<svg width="46" height="46" viewBox="0 0 46 46" fill="none" xmlns="http://www.w3.org/2000/svg">
<path fill-rule="evenodd" clip-rule="evenodd" d="M10.5697 30.6671L12.8313 28.4016C13.5558 27.6771 13.9545 26.7149 13.9545 25.6914V16.7272C13.9545 14.1262 15.0853 11.6403 17.0595 9.9115C19.049 8.16733 21.5828 7.40066 24.2221 7.74758C28.6822 8.33983 32.0459 12.3725 32.0459 17.1297V25.6914C32.0459 26.7149 32.4446 27.6771 33.1672 28.3997L35.4307 30.6671H10.5697ZM26.8326 35.154C26.8326 36.8771 25.0769 38.3337 22.9992 38.3337C20.9216 38.3337 19.1659 36.8771 19.1659 35.154V34.5004H26.8326V35.154ZM39.3312 29.1491L35.8792 25.6914V17.1297C35.8792 10.4577 31.0837 4.79016 24.7242 3.94875C21.0404 3.45808 17.3221 4.58316 14.5333 7.02883C11.7273 9.486 10.1212 13.0203 10.1212 16.7272L10.1192 25.6914L6.66732 29.1491C5.76841 30.0499 5.50199 31.3897 5.98882 32.5646C6.47757 33.7414 7.61416 34.5004 8.88682 34.5004H15.3326V35.154C15.3326 39.0218 18.7711 42.1671 22.9992 42.1671C27.2274 42.1671 30.6659 39.0218 30.6659 35.154V34.5004H37.1117C38.3843 34.5004 39.519 33.7414 40.0058 32.5665C40.4946 31.3897 40.2301 30.048 39.3312 29.1491Z" fill="url(#paint0_linear_721_8581)"/>
<mask id="mask0_721_8581" style="mask-type:alpha" maskUnits="userSpaceOnUse" x="5" y="3" width="36" height="40">
<path fill-rule="evenodd" clip-rule="evenodd" d="M10.5697 30.6671L12.8313 28.4016C13.5558 27.6771 13.9545 26.7149 13.9545 25.6914V16.7272C13.9545 14.1262 15.0853 11.6403 17.0595 9.9115C19.049 8.16733 21.5828 7.40066 24.2221 7.74758C28.6822 8.33983 32.0459 12.3725 32.0459 17.1297V25.6914C32.0459 26.7149 32.4446 27.6771 33.1672 28.3997L35.4307 30.6671H10.5697ZM26.8326 35.154C26.8326 36.8771 25.0769 38.3337 22.9992 38.3337C20.9216 38.3337 19.1659 36.8771 19.1659 35.154V34.5004H26.8326V35.154ZM39.3312 29.1491L35.8792 25.6914V17.1297C35.8792 10.4577 31.0837 4.79016 24.7242 3.94875C21.0404 3.45808 17.3221 4.58316 14.5333 7.02883C11.7273 9.486 10.1212 13.0203 10.1212 16.7272L10.1192 25.6914L6.66732 29.1491C5.76841 30.0499 5.50199 31.3897 5.98882 32.5646C6.47757 33.7414 7.61416 34.5004 8.88682 34.5004H15.3326V35.154C15.3326 39.0218 18.7711 42.1671 22.9992 42.1671C27.2274 42.1671 30.6659 39.0218 30.6659 35.154V34.5004H37.1117C38.3843 34.5004 39.519 33.7414 40.0058 32.5665C40.4946 31.3897 40.2301 30.048 39.3312 29.1491Z" fill="white"/>
</mask>
<g mask="url(#mask0_721_8581)">
</g>
<defs>
<linearGradient id="paint0_linear_721_8581" x1="22.9982" y1="3.83594" x2="22.9982" y2="42.1671" gradientUnits="userSpaceOnUse">
<stop stop-color="#4156F6"/>
<stop offset="1" stop-color="#0CB1B9"/>
</linearGradient>
</defs>
</svg>
