<svg width="25" height="25" viewBox="0 0 25 25" fill="none" xmlns="http://www.w3.org/2000/svg">
<path fill-rule="evenodd" clip-rule="evenodd" d="M18.0926 20.0998L18.0997 21.0997L6.10042 21.1856L6.09254 20.0855C6.08861 19.5355 5.6354 19.0888 5.08541 19.0927C4.53542 19.0966 4.08866 19.5499 4.09259 20.0998L4.10639 22.0273C4.09692 22.0835 4.09219 22.1412 4.09261 22.2C4.09655 22.75 4.54976 23.1968 5.09974 23.1928L19.0994 23.0926L19.1018 23.0926L19.114 23.0926C19.664 23.0887 20.1108 22.6355 20.1069 22.0855L20.0925 20.0855C20.0886 19.5355 19.6354 19.0888 19.0854 19.0927C18.5354 19.0966 18.0887 19.5499 18.0926 20.0998ZM12.064 5.08564C12.265 5.08421 12.4664 5.14376 12.6403 5.26352L16.6603 8.04882C17.1146 8.36358 17.228 8.98678 16.9133 9.44005C16.5985 9.89431 15.9763 10.0078 15.522 9.69301L13.082 8.00254C13.0841 8.02758 13.0852 8.05288 13.0854 8.07842L13.1427 16.0782C13.1466 16.6302 12.7029 17.0814 12.1499 17.0853C11.5969 17.0893 11.1467 16.6445 11.1427 16.0925L11.0855 8.0929L8.69842 9.90986C8.25881 10.246 7.63118 10.1595 7.29702 9.71988C6.96187 9.28027 7.04738 8.65264 7.487 8.31849L11.4654 5.28993C11.6415 5.15567 11.853 5.08715 12.064 5.08564Z" fill="#717A7F"/>
<mask id="mask0_113_16807" style="mask-type:alpha" maskUnits="userSpaceOnUse" x="5" y="-9" width="17" height="14">
<path fill-rule="evenodd" clip-rule="evenodd" d="M5.09275 1.1L5.10706 3.09994C5.111 3.64993 5.56421 4.0967 6.11419 4.09276C6.66418 4.08882 7.11094 3.63562 7.10701 3.08563L7.09269 1.08568C7.08876 0.535695 6.63555 0.0889272 6.08556 0.0928638C5.53558 0.0968003 5.08881 0.55001 5.09275 1.1ZM19.0927 0.0999956L19.1071 2.09994C19.111 2.64993 19.5642 3.0967 20.1142 3.09276C20.6642 3.08882 21.1109 2.63562 21.107 2.08563L21.0927 0.0856808C21.0888 -0.464305 20.6355 -0.911073 20.0856 -0.907136C19.5356 -0.9032 19.0888 -0.449991 19.0927 0.0999956ZM12.0641 -8.91421C12.2651 -8.91565 12.4665 -8.85609 12.6404 -8.73633L16.6604 -5.95103C17.1147 -5.63628 17.2282 -5.01307 16.9134 -4.55981C16.5986 -4.10554 15.9764 -3.99209 15.5222 -4.30684L13.0822 -5.99732C13.0842 -5.97228 13.0854 -5.94698 13.0856 -5.92144L13.1428 2.07835C13.1468 2.63034 12.703 3.08152 12.15 3.08548C11.597 3.08944 11.1468 2.64465 11.1429 2.09267L11.0856 -5.90695L8.69855 -4.09C8.25895 -3.75384 7.63131 -3.84035 7.29716 -4.27997C6.962 -4.71958 7.04751 -5.34721 7.48713 -5.68137L11.4656 -8.70992C11.6416 -8.84418 11.8531 -8.9127 12.0641 -8.91421Z" fill="white"/>
</mask>
<g mask="url(#mask0_113_16807)">
</g>
</svg>
