<svg width="50" height="50" viewBox="0 0 50 50" fill="none" xmlns="http://www.w3.org/2000/svg">
<path fill-rule="evenodd" clip-rule="evenodd" d="M39.5834 37.5H10.4167C9.26877 37.5 8.33335 36.5667 8.33335 35.4167V15.1042L23.75 26.6667C24.1209 26.9458 24.5604 27.0833 25 27.0833C25.4396 27.0833 25.8792 26.9458 26.25 26.6667L41.6667 15.1042V35.4167C41.6667 36.5667 40.7313 37.5 39.5834 37.5ZM38.1938 12.5L25 22.3958L11.8063 12.5H38.1938ZM39.5834 8.33333H10.4167C6.97085 8.33333 4.16669 11.1375 4.16669 14.5833V35.4167C4.16669 38.8625 6.97085 41.6667 10.4167 41.6667H39.5834C43.0292 41.6667 45.8334 38.8625 45.8334 35.4167V14.5833C45.8334 11.1375 43.0292 8.33333 39.5834 8.33333Z" fill="#4F4CEC"/>
<mask id="mask0_32_4409" style="mask-type:alpha" maskUnits="userSpaceOnUse" x="4" y="8" width="42" height="34">
<path fill-rule="evenodd" clip-rule="evenodd" d="M39.5834 37.5H10.4167C9.26877 37.5 8.33335 36.5667 8.33335 35.4167V15.1042L23.75 26.6667C24.1209 26.9458 24.5604 27.0833 25 27.0833C25.4396 27.0833 25.8792 26.9458 26.25 26.6667L41.6667 15.1042V35.4167C41.6667 36.5667 40.7313 37.5 39.5834 37.5ZM38.1938 12.5L25 22.3958L11.8063 12.5H38.1938ZM39.5834 8.33333H10.4167C6.97085 8.33333 4.16669 11.1375 4.16669 14.5833V35.4167C4.16669 38.8625 6.97085 41.6667 10.4167 41.6667H39.5834C43.0292 41.6667 45.8334 38.8625 45.8334 35.4167V14.5833C45.8334 11.1375 43.0292 8.33333 39.5834 8.33333Z" fill="white"/>
</mask>
<g mask="url(#mask0_32_4409)">
</g>
</svg>
