<svg width="46" height="46" viewBox="0 0 46 46" fill="none" xmlns="http://www.w3.org/2000/svg">
<path fill-rule="evenodd" clip-rule="evenodd" d="M23 30.6673C21.942 30.6673 21.0833 29.8087 21.0833 28.7507C21.0833 27.6926 21.942 26.834 23 26.834C24.058 26.834 24.9166 27.6926 24.9166 28.7507C24.9166 29.8087 24.058 30.6673 23 30.6673ZM23 23.0007C19.8298 23.0007 17.25 25.5805 17.25 28.7507C17.25 31.9208 19.8298 34.5007 23 34.5007C26.1701 34.5007 28.75 31.9208 28.75 28.7507C28.75 25.5805 26.1701 23.0007 23 23.0007ZM34.5 36.4173C34.5 37.4753 33.6413 38.334 32.5833 38.334H13.4166C12.3586 38.334 11.5 37.4753 11.5 36.4173V21.084C11.5 20.026 12.3586 19.1673 13.4166 19.1673H15.3333H19.1666H26.8333H30.6666H32.5833C33.6413 19.1673 34.5 20.026 34.5 21.084V36.4173ZM19.1666 11.7134C19.1666 9.4824 20.8859 7.66732 23 7.66732C25.114 7.66732 26.8333 9.4824 26.8333 11.7134V15.334H19.1666V11.7134ZM32.5833 15.334H30.6666V11.7134C30.6666 7.37023 27.2281 3.83398 23 3.83398C18.7718 3.83398 15.3333 7.37023 15.3333 11.7134V15.334H13.4166C10.2465 15.334 7.66663 17.9138 7.66663 21.084V36.4173C7.66663 39.5875 10.2465 42.1673 13.4166 42.1673H32.5833C35.7535 42.1673 38.3333 39.5875 38.3333 36.4173V21.084C38.3333 17.9138 35.7535 15.334 32.5833 15.334Z" fill="url(#paint0_linear_720_8571)"/>
<mask id="mask0_720_8571" style="mask-type:alpha" maskUnits="userSpaceOnUse" x="7" y="3" width="32" height="40">
<path fill-rule="evenodd" clip-rule="evenodd" d="M23 30.6673C21.942 30.6673 21.0833 29.8087 21.0833 28.7507C21.0833 27.6926 21.942 26.834 23 26.834C24.058 26.834 24.9166 27.6926 24.9166 28.7507C24.9166 29.8087 24.058 30.6673 23 30.6673ZM23 23.0007C19.8298 23.0007 17.25 25.5805 17.25 28.7507C17.25 31.9208 19.8298 34.5007 23 34.5007C26.1701 34.5007 28.75 31.9208 28.75 28.7507C28.75 25.5805 26.1701 23.0007 23 23.0007ZM34.5 36.4173C34.5 37.4753 33.6413 38.334 32.5833 38.334H13.4166C12.3586 38.334 11.5 37.4753 11.5 36.4173V21.084C11.5 20.026 12.3586 19.1673 13.4166 19.1673H15.3333H19.1666H26.8333H30.6666H32.5833C33.6413 19.1673 34.5 20.026 34.5 21.084V36.4173ZM19.1666 11.7134C19.1666 9.4824 20.8859 7.66732 23 7.66732C25.114 7.66732 26.8333 9.4824 26.8333 11.7134V15.334H19.1666V11.7134ZM32.5833 15.334H30.6666V11.7134C30.6666 7.37023 27.2281 3.83398 23 3.83398C18.7718 3.83398 15.3333 7.37023 15.3333 11.7134V15.334H13.4166C10.2465 15.334 7.66663 17.9138 7.66663 21.084V36.4173C7.66663 39.5875 10.2465 42.1673 13.4166 42.1673H32.5833C35.7535 42.1673 38.3333 39.5875 38.3333 36.4173V21.084C38.3333 17.9138 35.7535 15.334 32.5833 15.334Z" fill="white"/>
</mask>
<g mask="url(#mask0_720_8571)">
</g>
<defs>
<linearGradient id="paint0_linear_720_8571" x1="23" y1="3.83398" x2="23" y2="42.1673" gradientUnits="userSpaceOnUse">
<stop stop-color="#2C3A9F"/>
<stop offset="1" stop-color="#0CB1B9"/>
</linearGradient>
</defs>
</svg>
