<svg width="45" height="40" viewBox="0 0 45 40" fill="none" xmlns="http://www.w3.org/2000/svg">
<path fill-rule="evenodd" clip-rule="evenodd" d="M11.0244 17.5898C11.4718 17.8881 11.5927 18.4926 11.2945 18.9401C11.0052 19.374 10.8026 20.0171 10.6964 20.6997C10.5902 21.3821 10.6001 21.9724 10.6446 22.2399C10.7331 22.7703 10.3747 23.272 9.84431 23.3604C9.31389 23.4488 8.81224 23.0905 8.72383 22.5601C8.63509 22.0276 8.645 21.2179 8.77222 20.4003C8.89941 19.5828 9.1635 18.626 9.67418 17.8599C9.97245 17.4125 10.577 17.2916 11.0244 17.5898Z" fill="#4156F6"/>
<path fill-rule="evenodd" clip-rule="evenodd" d="M20.2482 10.2623C20.3242 10.7947 19.9544 11.2878 19.422 11.3639C15.4163 11.9361 13.1859 15.2081 12.5931 16.7496C12.4 17.2514 11.8367 17.5018 11.3348 17.3088C10.8329 17.1158 10.5825 16.5524 10.7756 16.0505C11.516 14.1253 14.1924 10.1439 19.1466 9.43616C19.679 9.36011 20.1721 9.73 20.2482 10.2623Z" fill="#4156F6"/>
<path fill-rule="evenodd" clip-rule="evenodd" d="M37.9141 14.7192C37.9587 14.1833 38.4293 13.7851 38.9652 13.8298C41.5837 14.048 43.6966 15.2748 44.484 17.1778C45.3046 19.1607 44.5037 21.3914 42.2926 23.1603C41.1819 24.0489 39.2262 25.0664 36.8361 26.089C34.4191 27.123 31.4748 28.1966 28.3243 29.1795C22.0404 31.1401 14.8457 32.7684 9.32034 32.973C4.93484 33.1355 2.41437 32.1171 1.4299 30.2182C0.477675 28.3814 1.27721 26.2915 2.06684 25.0711C2.35897 24.6196 2.96177 24.4905 3.41323 24.7826C3.8647 25.0747 3.99387 25.6775 3.70175 26.129C3.02471 27.1753 2.70425 28.4453 3.15869 29.3219C3.58089 30.1363 4.99375 31.1846 9.24826 31.0271C14.5229 30.8317 21.5282 29.26 27.7443 27.3206C30.8439 26.3535 33.7246 25.3021 36.0701 24.2986C38.4425 23.2837 40.1868 22.3512 41.0761 21.6398C42.865 20.2087 43.0642 18.8394 42.6847 17.9223C42.2721 16.9253 40.985 15.9521 38.8035 15.7703C38.2676 15.7257 37.8694 15.2551 37.9141 14.7192Z" fill="#4156F6"/>
<path fill-rule="evenodd" clip-rule="evenodd" d="M22.4843 38.0527C31.1291 38.0527 38.137 31.0447 38.137 22.4C38.137 13.7552 31.1291 6.74728 22.4843 6.74728C13.8396 6.74728 6.83162 13.7552 6.83162 22.4C6.83162 31.0447 13.8396 38.0527 22.4843 38.0527ZM22.4843 40C32.2045 40 40.0843 32.1202 40.0843 22.4C40.0843 12.6798 32.2045 4.79998 22.4843 4.79998C12.7641 4.79998 4.88432 12.6798 4.88432 22.4C4.88432 32.1202 12.7641 40 22.4843 40Z" fill="#4156F6"/>
<path fill-rule="evenodd" clip-rule="evenodd" d="M5.37514 12.6222C6.33932 12.4468 7.3667 12.4934 8.24438 12.6397C8.7748 12.7281 9.13312 13.2297 9.04472 13.7602C8.95632 14.2906 8.45466 14.6489 7.92424 14.5605C7.20192 14.4401 6.4093 14.4134 5.72348 14.538C5.02835 14.6644 4.55969 14.9223 4.30323 15.2643C4.06713 15.5791 3.87585 16.1469 4.1272 17.2176C4.38266 18.3058 5.0778 19.8135 6.48484 21.8459C9.18165 25.7413 14.3312 28.5231 19.8572 30.3981C25.3291 32.2548 30.9866 33.1614 34.5201 33.4265C36.6652 33.4221 39.4343 33.02 41.0964 31.9758C41.902 31.4696 42.3403 30.8836 42.4429 30.2046C42.5493 29.5007 42.3335 28.4539 41.2867 26.9585C40.9784 26.518 41.0855 25.9109 41.526 25.6025C41.9666 25.2942 42.5737 25.4013 42.882 25.8418C44.0753 27.5465 44.5794 29.0997 44.3683 30.4957C44.1535 31.9168 43.2368 32.9308 42.1324 33.6246C39.9837 34.9746 36.7344 35.3739 34.4844 35.3739H34.4484L34.4124 35.3712C30.7434 35.0994 24.9009 34.1659 19.2315 32.2422C13.5975 30.3305 7.94698 27.3789 4.88378 22.9543C3.41082 20.8267 2.56596 19.0877 2.23142 17.6626C1.89277 16.22 2.06149 15.0078 2.74539 14.0959C3.40893 13.2112 4.42027 12.7958 5.37514 12.6222Z" fill="#4156F6"/>
<path fill-rule="evenodd" clip-rule="evenodd" d="M40.4844 6.8527C41.8389 6.8527 42.9371 5.75459 42.9371 4.4C42.9371 3.04542 41.8389 1.94731 40.4844 1.94731C39.1298 1.94731 38.0317 3.04542 38.0317 4.4C38.0317 5.75459 39.1298 6.8527 40.4844 6.8527ZM40.4844 8.80001C42.9144 8.80001 44.8844 6.83006 44.8844 4.4C44.8844 1.96995 42.9144 0 40.4844 0C38.0543 0 36.0844 1.96995 36.0844 4.4C36.0844 6.83006 38.0543 8.80001 40.4844 8.80001Z" fill="#4156F6"/>
<path fill-rule="evenodd" clip-rule="evenodd" d="M31.7337 2.01991C31.7352 2.01632 31.737 2.01087 31.737 2C31.737 1.98913 31.7352 1.98369 31.7337 1.98009C31.7316 1.97519 31.7278 1.96892 31.7216 1.96274C31.7154 1.95656 31.7092 1.95272 31.7043 1.95065C31.7007 1.94913 31.6952 1.94731 31.6844 1.94731C31.6735 1.94731 31.668 1.94913 31.6644 1.95065C31.6595 1.95272 31.6533 1.95656 31.6471 1.96274C31.6409 1.96892 31.6371 1.97519 31.635 1.98009C31.6335 1.98369 31.6317 1.98913 31.6317 2C31.6317 2.01087 31.6335 2.01632 31.635 2.01991C31.6371 2.02481 31.6409 2.03108 31.6471 2.03726C31.6533 2.04344 31.6595 2.04728 31.6644 2.04935C31.668 2.05087 31.6735 2.05269 31.6844 2.05269C31.6952 2.05269 31.7007 2.05087 31.7043 2.04935C31.7092 2.04728 31.7154 2.04344 31.7216 2.03726C31.7278 2.03108 31.7316 2.02481 31.7337 2.01991ZM31.6844 4C32.7889 4 33.6844 3.10457 33.6844 2C33.6844 0.895431 32.7889 0 31.6844 0C30.5798 0 29.6843 0.895431 29.6843 2C29.6843 3.10457 30.5798 4 31.6844 4Z" fill="#4156F6"/>
</svg>
