<svg width="46" height="46" viewBox="0 0 46 46" fill="none" xmlns="http://www.w3.org/2000/svg">
<path fill-rule="evenodd" clip-rule="evenodd" d="M7.56761 11.5H38.4317C39.4322 11.5 40.2506 12.3184 40.2506 13.3189V13.5144C40.2506 14.5149 39.4322 15.3333 38.4317 15.3333H7.56761C6.56711 15.3333 5.75061 14.5149 5.75061 13.5144V13.3189C5.75061 12.3184 6.56711 11.5 7.56761 11.5ZM38.4317 21.0833H7.56761C6.56711 21.0833 5.75061 21.9018 5.75061 22.9023V23.0977C5.75061 24.0982 6.56711 24.9167 7.56761 24.9167H38.4317C39.4322 24.9167 40.2506 24.0982 40.2506 23.0977V22.9023C40.2506 21.9018 39.4322 21.0833 38.4317 21.0833ZM38.4317 30.6667H7.56761C6.56711 30.6667 5.75061 31.4851 5.75061 32.4856V32.6811C5.75061 33.6816 6.56711 34.5 7.56761 34.5H38.4317C39.4322 34.5 40.2506 33.6816 40.2506 32.6811V32.4856C40.2506 31.4851 39.4322 30.6667 38.4317 30.6667Z" fill="url(#paint0_linear_721_8572)"/>
<mask id="mask0_721_8572" style="mask-type:alpha" maskUnits="userSpaceOnUse" x="5" y="11" width="36" height="24">
<path fill-rule="evenodd" clip-rule="evenodd" d="M7.56761 11.5H38.4317C39.4322 11.5 40.2506 12.3184 40.2506 13.3189V13.5144C40.2506 14.5149 39.4322 15.3333 38.4317 15.3333H7.56761C6.56711 15.3333 5.75061 14.5149 5.75061 13.5144V13.3189C5.75061 12.3184 6.56711 11.5 7.56761 11.5ZM38.4317 21.0833H7.56761C6.56711 21.0833 5.75061 21.9018 5.75061 22.9023V23.0977C5.75061 24.0982 6.56711 24.9167 7.56761 24.9167H38.4317C39.4322 24.9167 40.2506 24.0982 40.2506 23.0977V22.9023C40.2506 21.9018 39.4322 21.0833 38.4317 21.0833ZM38.4317 30.6667H7.56761C6.56711 30.6667 5.75061 31.4851 5.75061 32.4856V32.6811C5.75061 33.6816 6.56711 34.5 7.56761 34.5H38.4317C39.4322 34.5 40.2506 33.6816 40.2506 32.6811V32.4856C40.2506 31.4851 39.4322 30.6667 38.4317 30.6667Z" fill="white"/>
</mask>
<g mask="url(#mask0_721_8572)">
</g>
<defs>
<linearGradient id="paint0_linear_721_8572" x1="23.0006" y1="11.5" x2="23.0006" y2="34.5" gradientUnits="userSpaceOnUse">
<stop stop-color="#4156F6"/>
<stop offset="1" stop-color="#0CB1B9"/>
</linearGradient>
</defs>
</svg>
