<svg width="18" height="18" viewBox="0 0 18 18" fill="none" xmlns="http://www.w3.org/2000/svg">
<path fill-rule="evenodd" clip-rule="evenodd" d="M4.95006 3C3.87456 3 3.00006 3.8745 3.00006 4.95C3.00006 10.491 7.50831 15 13.0501 15C14.1248 15 15.0001 14.1255 15.0001 13.05C15.0001 12.9668 14.9948 12.885 14.9843 12.804L11.5193 12.009C11.4503 12.141 11.3746 12.2843 11.3056 12.4178C10.9636 13.0703 10.7161 13.5443 10.0846 13.29C7.60506 12.42 5.58081 10.395 4.69956 7.8855C4.43181 7.29675 4.94181 7.02975 5.58831 6.69225C5.71956 6.62325 5.86131 6.549 5.99106 6.4815L5.19606 3.01575C5.11281 3.00525 5.03181 3 4.95006 3ZM13.0501 16.5C6.68106 16.5 1.50006 11.319 1.50006 4.95C1.50006 3.04725 3.04731 1.5 4.95006 1.5C5.14506 1.5 5.33781 1.5165 5.52456 1.54875C5.70681 1.578 5.88981 1.6245 6.06831 1.686C6.31206 1.77075 6.49581 1.9755 6.55356 2.2275L7.58031 6.7005C7.63731 6.9465 7.56606 7.2045 7.39056 7.3875C7.28856 7.494 7.28631 7.49625 6.35631 7.983C7.10931 9.6135 8.41806 10.9178 10.0156 11.6453C10.5031 10.7145 10.5061 10.7115 10.6126 10.6095C10.7956 10.434 11.0551 10.3657 11.2996 10.4198L15.7733 11.4465C16.0246 11.5043 16.2293 11.6873 16.3133 11.931C16.3748 12.108 16.4213 12.291 16.4521 12.4792C16.4836 12.6645 16.5001 12.8565 16.5001 13.05C16.5001 14.9527 14.9521 16.5 13.0501 16.5Z" fill="#717A7F"/>
<mask id="mask0_249_36343" style="mask-type:alpha" maskUnits="userSpaceOnUse" x="1" y="1" width="16" height="16">
<path fill-rule="evenodd" clip-rule="evenodd" d="M4.95006 3C3.87456 3 3.00006 3.8745 3.00006 4.95C3.00006 10.491 7.50831 15 13.0501 15C14.1248 15 15.0001 14.1255 15.0001 13.05C15.0001 12.9668 14.9948 12.885 14.9843 12.804L11.5193 12.009C11.4503 12.141 11.3746 12.2843 11.3056 12.4178C10.9636 13.0703 10.7161 13.5443 10.0846 13.29C7.60506 12.42 5.58081 10.395 4.69956 7.8855C4.43181 7.29675 4.94181 7.02975 5.58831 6.69225C5.71956 6.62325 5.86131 6.549 5.99106 6.4815L5.19606 3.01575C5.11281 3.00525 5.03181 3 4.95006 3ZM13.0501 16.5C6.68106 16.5 1.50006 11.319 1.50006 4.95C1.50006 3.04725 3.04731 1.5 4.95006 1.5C5.14506 1.5 5.33781 1.5165 5.52456 1.54875C5.70681 1.578 5.88981 1.6245 6.06831 1.686C6.31206 1.77075 6.49581 1.9755 6.55356 2.2275L7.58031 6.7005C7.63731 6.9465 7.56606 7.2045 7.39056 7.3875C7.28856 7.494 7.28631 7.49625 6.35631 7.983C7.10931 9.6135 8.41806 10.9178 10.0156 11.6453C10.5031 10.7145 10.5061 10.7115 10.6126 10.6095C10.7956 10.434 11.0551 10.3657 11.2996 10.4198L15.7733 11.4465C16.0246 11.5043 16.2293 11.6873 16.3133 11.931C16.3748 12.108 16.4213 12.291 16.4521 12.4792C16.4836 12.6645 16.5001 12.8565 16.5001 13.05C16.5001 14.9527 14.9521 16.5 13.0501 16.5Z" fill="white"/>
</mask>
<g mask="url(#mask0_249_36343)">
</g>
</svg>
