<svg width="38" height="36" viewBox="0 0 38 36" fill="none" xmlns="http://www.w3.org/2000/svg">
<path fill-rule="evenodd" clip-rule="evenodd" d="M14.1667 19.9167C6.77025 19.9167 0.75 25.935 0.75 33.3333C0.75 34.3913 1.60675 35.25 2.66667 35.25C3.72658 35.25 4.58333 34.3913 4.58333 33.3333C4.58333 28.0491 8.88242 23.75 14.1667 23.75C19.4509 23.75 23.75 28.0491 23.75 33.3333C23.75 34.3913 24.6068 35.25 25.6667 35.25C26.7266 35.25 27.5833 34.3913 27.5833 33.3333C27.5833 25.935 21.5631 19.9167 14.1667 19.9167ZM10.3333 8.41667C10.3333 10.5308 12.0526 12.25 14.1667 12.25C16.2808 12.25 18 10.5308 18 8.41667C18 6.30258 16.2808 4.58333 14.1667 4.58333C12.0526 4.58333 10.3333 6.30258 10.3333 8.41667ZM6.5 8.41667C6.5 4.1885 9.9385 0.75 14.1667 0.75C18.3948 0.75 21.8333 4.1885 21.8333 8.41667C21.8333 12.6448 18.3948 16.0833 14.1667 16.0833C9.9385 16.0833 6.5 12.6448 6.5 8.41667ZM36.6971 5.84067L31.6946 11.5907C31.3323 12.0066 30.811 12.2462 30.259 12.25H30.2475C29.7012 12.25 29.1818 12.0181 28.8196 11.6118L26.1554 8.63517C25.4501 7.8455 25.5172 6.63417 26.3049 5.92883C27.0965 5.22158 28.3078 5.28867 29.0112 6.07833L30.2264 7.43725L33.8029 3.326C34.4987 2.52483 35.7081 2.44242 36.5073 3.13817C37.3066 3.832 37.3909 5.04333 36.6971 5.84067Z" fill="url(#paint0_linear_1122_2220)"/>
<defs>
<linearGradient id="paint0_linear_1122_2220" x1="18.9584" y1="0.75" x2="18.9584" y2="35.25" gradientUnits="userSpaceOnUse">
<stop stop-color="#2C3A9F"/>
<stop offset="1" stop-color="#0CB1B9"/>
</linearGradient>
</defs>
</svg>
