<svg width="46" height="46" viewBox="0 0 46 46" fill="none" xmlns="http://www.w3.org/2000/svg">
<path fill-rule="evenodd" clip-rule="evenodd" d="M19.1667 24.9167C11.7702 24.9167 5.75 30.935 5.75 38.3333C5.75 39.3913 6.60675 40.25 7.66667 40.25C8.72658 40.25 9.58333 39.3913 9.58333 38.3333C9.58333 33.0491 13.8824 28.75 19.1667 28.75C24.4509 28.75 28.75 33.0491 28.75 38.3333C28.75 39.3913 29.6067 40.25 30.6667 40.25C31.7266 40.25 32.5833 39.3913 32.5833 38.3333C32.5833 30.935 26.5631 24.9167 19.1667 24.9167M15.3333 13.4167C15.3333 15.5308 17.0526 17.25 19.1667 17.25C21.2808 17.25 23 15.5308 23 13.4167C23 11.3026 21.2808 9.58333 19.1667 9.58333C17.0526 9.58333 15.3333 11.3026 15.3333 13.4167M11.5 13.4167C11.5 9.1885 14.9385 5.75 19.1667 5.75C23.3948 5.75 26.8333 9.1885 26.8333 13.4167C26.8333 17.6448 23.3948 21.0833 19.1667 21.0833C14.9385 21.0833 11.5 17.6448 11.5 13.4167M42.1667 13.4167C42.1667 14.4708 41.3042 15.3333 40.25 15.3333H32.5833C31.5292 15.3333 30.6667 14.4708 30.6667 13.4167C30.6667 12.3625 31.5292 11.5 32.5833 11.5H40.25C41.3042 11.5 42.1667 12.3625 42.1667 13.4167" fill="black"/>
</svg>
