<svg width="1144" height="932" viewBox="0 0 1144 932" fill="none" xmlns="http://www.w3.org/2000/svg">
<g clip-path="url(#clip0_760_64970)">
<g opacity="0.5">
<line x1="544.603" y1="1.48787" x2="544.603" y2="879.875" stroke="#E9EAE9"/>
<line x1="272.552" y1="1.48787" x2="272.552" y2="879.875" stroke="#E9EAE9"/>
<line x1="816.654" y1="1.48787" x2="816.654" y2="879.875" stroke="#E9EAE9"/>
<line x1="1088.71" y1="1.48787" x2="1088.71" y2="879.875" stroke="#E9EAE9"/>
<line x1="136.526" y1="1.48787" x2="136.526" y2="879.875" stroke="#E9EAE9"/>
<line x1="680.628" y1="1.48787" x2="680.628" y2="879.875" stroke="#E9EAE9"/>
<line x1="408.577" y1="1.48787" x2="408.577" y2="879.875" stroke="#E9EAE9"/>
<line x1="952.681" y1="1.48787" x2="952.681" y2="879.875" stroke="#E9EAE9"/>
<line x1="1.91452e-08" y1="572.167" x2="1378" y2="572.167" stroke="#E9EAE9"/>
<line x1="1.92381e-08" y1="800.833" x2="1378" y2="800.833" stroke="#E9EAE9"/>
<line x1="1.92381e-08" y1="343.5" x2="1378" y2="343.5" stroke="#E9EAE9"/>
<line x1="1.91452e-08" y1="114.834" x2="1378" y2="114.834" stroke="#E9EAE9"/>
<line x1="1.92381e-08" y1="915.166" x2="1378" y2="915.166" stroke="#E9EAE9"/>
<line x1="1.91452e-08" y1="457.833" x2="1378" y2="457.833" stroke="#E9EAE9"/>
<line x1="1.91452e-08" y1="686.499" x2="1378" y2="686.499" stroke="#E9EAE9"/>
<line x1="1.92381e-08" y1="229.167" x2="1378" y2="229.167" stroke="#E9EAE9"/>
<line x1="1.91452e-08" y1="0.5" x2="1378" y2="0.500069" stroke="#E9EAE9"/>
</g>
</g>
<defs>
<clipPath id="clip0_760_64970">
<rect width="1381" height="953" rx="20" fill="white"/>
</clipPath>
</defs>
</svg>
