<svg width="90" height="79" viewBox="0 0 90 79" fill="none" xmlns="http://www.w3.org/2000/svg">
<g filter="url(#filter0_d_183_39271)">
<path d="M78 63V43.9V43.1H43.8483C38.2398 43.1 36.437 37.9 36.2367 35.3V8H12V63H78Z" fill="white"/>
<path d="M70.7891 20.2C71.1897 20.8 71.6303 22.3 70.1882 23.5C68.746 24.7 67.3839 24 66.8832 23.5L63.4846 20.2L60.173 23.5L64.8801 28.1L62.7769 30.2L64.5797 31.9C64.8801 32.2333 65.3608 33.06 64.8801 33.7C64.3994 34.34 61.5417 37.1 60.173 38.4C59.9393 38.5333 59.3317 38.68 58.7709 38.2C58.21 37.72 57.2018 36.6667 56.7678 36.2L54.1639 38.8C53.7299 39.2 52.6015 39.76 51.5599 38.8C50.5184 37.84 44.2489 31.5333 41.2443 28.5C40.7769 28 40.0225 26.8 40.7435 26C41.0223 25.6908 42.2077 24.5151 43.7481 23.0041C43.1138 22.4361 41.7651 21.22 41.4446 20.9C41.1241 20.58 41.3111 19.9667 41.4446 19.7C42.7132 18.3667 45.4106 15.64 46.0516 15.4C46.6926 15.16 47.3202 15.5 47.5539 15.7L49.3566 17.5365C50.1735 16.7433 50.93 16.0099 51.5599 15.4L56.3672 19.7L59.5711 16.4L55.9666 12.9C55.6328 12.2333 55.2455 10.64 56.3672 9.6C57.4889 8.56 58.7709 8.76667 59.2716 9L70.7891 20.2Z" fill="white"/>
<path d="M63.4846 20.2L66.8832 23.5C67.3839 24 68.746 24.7 70.1882 23.5C71.6303 22.3 71.1897 20.8 70.7891 20.2L59.2716 9C58.7709 8.76667 57.4889 8.56 56.3672 9.6C55.2455 10.64 55.6328 12.2333 55.9666 12.9L59.5711 16.4M63.4846 20.2L60.173 23.5M63.4846 20.2L59.5711 16.4M60.173 23.5L64.8801 28.1L62.7769 30.2M60.173 23.5L56.3672 19.7M56.3672 19.7L51.5599 15.4C50.93 16.0099 50.1735 16.7433 49.3566 17.5365M56.3672 19.7L59.5711 16.4M62.7769 30.2L64.5797 31.9C64.8801 32.2333 65.3608 33.06 64.8801 33.7C64.3994 34.34 61.5417 37.1 60.173 38.4C59.9393 38.5333 59.3317 38.68 58.7709 38.2C58.21 37.72 57.2018 36.6667 56.7678 36.2M62.7769 30.2L56.7678 36.2M56.7678 36.2L54.1639 38.8C53.7299 39.2 52.6015 39.76 51.5599 38.8C50.5184 37.84 44.2489 31.5333 41.2443 28.5C40.7769 28 40.0225 26.8 40.7435 26C41.0223 25.6908 42.2077 24.5151 43.7481 23.0041M49.3566 17.5365L47.5539 15.7C47.3202 15.5 46.6926 15.16 46.0516 15.4C45.4106 15.64 42.7132 18.3667 41.4446 19.7C41.3111 19.9667 41.1241 20.58 41.4446 20.9C41.7651 21.22 43.1138 22.4361 43.7481 23.0041M49.3566 17.5365C47.5439 19.2965 45.4335 21.351 43.7481 23.0041M34.5 52.5L39 49L28.5 38.8L25 43.1M34.5 52.5L25 43.1M34.5 52.5L33 57L21 45.5L25 43.1M78 43.9V63H12V8H36.2367V35.3C36.437 37.9 38.2398 43.1 43.8483 43.1C49.4568 43.1 68.953 43.1 78 43.1V43.9Z" stroke="#B4B4B4" stroke-width="2" stroke-linejoin="round"/>
</g>
<defs>
<filter id="filter0_d_183_39271" x="0" y="0" width="90" height="79" filterUnits="userSpaceOnUse" color-interpolation-filters="sRGB">
<feFlood flood-opacity="0" result="BackgroundImageFix"/>
<feColorMatrix in="SourceAlpha" type="matrix" values="0 0 0 0 0 0 0 0 0 0 0 0 0 0 0 0 0 0 127 0" result="hardAlpha"/>
<feOffset dy="4"/>
<feGaussianBlur stdDeviation="5.5"/>
<feComposite in2="hardAlpha" operator="out"/>
<feColorMatrix type="matrix" values="0 0 0 0 0 0 0 0 0 0 0 0 0 0 0 0 0 0 0.14 0"/>
<feBlend mode="normal" in2="BackgroundImageFix" result="effect1_dropShadow_183_39271"/>
<feBlend mode="normal" in="SourceGraphic" in2="effect1_dropShadow_183_39271" result="shape"/>
</filter>
</defs>
</svg>
