<svg width="90" height="79" viewBox="0 0 90 79" fill="none" xmlns="http://www.w3.org/2000/svg">
<g filter="url(#filter0_d_183_39269)">
<path d="M12 63V43.9V43.1H46.1517C51.7602 43.1 53.563 37.9 53.7633 35.3V8H78V63H12Z" fill="white"/>
<path d="M19.2109 20.2C18.8103 20.8 18.3697 22.3 19.8118 23.5C21.254 24.7 22.6161 24 23.1168 23.5L26.5154 20.2L29.827 23.5L25.1199 28.1L27.2231 30.2L25.4203 31.9C25.1199 32.2333 24.6392 33.06 25.1199 33.7C25.6006 34.34 28.4583 37.1 29.827 38.4C30.0607 38.5333 30.6683 38.68 31.2291 38.2C31.79 37.72 32.7982 36.6667 33.2322 36.2L35.8361 38.8C36.2701 39.2 37.3985 39.76 38.4401 38.8C39.4816 37.84 45.7511 31.5333 48.7557 28.5C49.2231 28 49.9775 26.8 49.2565 26C48.9777 25.6908 47.7923 24.5151 46.2519 23.0041C46.8862 22.4361 48.2349 21.22 48.5554 20.9C48.8759 20.58 48.6889 19.9667 48.5554 19.7C47.2868 18.3667 44.5894 15.64 43.9484 15.4C43.3074 15.16 42.6798 15.5 42.4461 15.7L40.6434 17.5365C39.8265 16.7433 39.07 16.0099 38.4401 15.4L33.6328 19.7L30.4289 16.4L34.0334 12.9C34.3672 12.2333 34.7545 10.64 33.6328 9.6C32.5111 8.56 31.2291 8.76667 30.7284 9L19.2109 20.2Z" fill="white"/>
<path d="M26.5154 20.2L23.1168 23.5C22.6161 24 21.254 24.7 19.8118 23.5C18.3697 22.3 18.8103 20.8 19.2109 20.2L30.7284 9C31.2291 8.76667 32.5111 8.56 33.6328 9.6C34.7545 10.64 34.3672 12.2333 34.0334 12.9L30.4289 16.4M26.5154 20.2L29.827 23.5M26.5154 20.2L30.4289 16.4M29.827 23.5L25.1199 28.1L27.2231 30.2M29.827 23.5L33.6328 19.7M33.6328 19.7L38.4401 15.4C39.07 16.0099 39.8265 16.7433 40.6434 17.5365M33.6328 19.7L30.4289 16.4M27.2231 30.2L25.4203 31.9C25.1199 32.2333 24.6392 33.06 25.1199 33.7C25.6006 34.34 28.4583 37.1 29.827 38.4C30.0607 38.5333 30.6683 38.68 31.2291 38.2C31.79 37.72 32.7982 36.6667 33.2322 36.2M27.2231 30.2L33.2322 36.2M33.2322 36.2L35.8361 38.8C36.2701 39.2 37.3985 39.76 38.4401 38.8C39.4816 37.84 45.7511 31.5333 48.7557 28.5C49.2231 28 49.9775 26.8 49.2565 26C48.9777 25.6908 47.7923 24.5151 46.2519 23.0041M40.6434 17.5365L42.4461 15.7C42.6798 15.5 43.3074 15.16 43.9484 15.4C44.5894 15.64 47.2868 18.3667 48.5554 19.7C48.6889 19.9667 48.8759 20.58 48.5554 20.9C48.2349 21.22 46.8862 22.4361 46.2519 23.0041M40.6434 17.5365C42.4561 19.2965 44.5665 21.351 46.2519 23.0041M55.5 52.5L51 49L61.5 38.8L65 43.1M55.5 52.5L65 43.1M55.5 52.5L57 57L69 45.5L65 43.1M12 43.9V63H78V8H53.7633V35.3C53.563 37.9 51.7602 43.1 46.1517 43.1C40.5432 43.1 21.047 43.1 12 43.1V43.9Z" stroke="#B4B4B4" stroke-width="2" stroke-linejoin="round"/>
</g>
<defs>
<filter id="filter0_d_183_39269" x="0" y="0" width="90" height="79" filterUnits="userSpaceOnUse" color-interpolation-filters="sRGB">
<feFlood flood-opacity="0" result="BackgroundImageFix"/>
<feColorMatrix in="SourceAlpha" type="matrix" values="0 0 0 0 0 0 0 0 0 0 0 0 0 0 0 0 0 0 127 0" result="hardAlpha"/>
<feOffset dy="4"/>
<feGaussianBlur stdDeviation="5.5"/>
<feComposite in2="hardAlpha" operator="out"/>
<feColorMatrix type="matrix" values="0 0 0 0 0 0 0 0 0 0 0 0 0 0 0 0 0 0 0.14 0"/>
<feBlend mode="normal" in2="BackgroundImageFix" result="effect1_dropShadow_183_39269"/>
<feBlend mode="normal" in="SourceGraphic" in2="effect1_dropShadow_183_39269" result="shape"/>
</filter>
</defs>
</svg>
