<svg width="90" height="79" viewBox="0 0 90 79" fill="none" xmlns="http://www.w3.org/2000/svg">
<g filter="url(#filter0_d_183_39267)">
<path d="M12 8V27.1V27.9H46.1517C51.7602 27.9 53.563 33.1 53.7633 35.7V63H78V8H12Z" fill="white"/>
<path d="M19.2109 50.8C18.8103 50.2 18.3697 48.7 19.8118 47.5C21.254 46.3 22.6161 47 23.1168 47.5L26.5154 50.8L29.827 47.5L25.1199 42.9L27.2231 40.8L25.4203 39.1C25.1199 38.7667 24.6392 37.94 25.1199 37.3C25.6006 36.66 28.4583 33.9 29.827 32.6C30.0607 32.4667 30.6683 32.32 31.2291 32.8C31.79 33.28 32.7982 34.3333 33.2322 34.8L35.8361 32.2C36.2701 31.8 37.3985 31.24 38.4401 32.2C39.4816 33.16 45.7511 39.4667 48.7557 42.5C49.2231 43 49.9775 44.2 49.2565 45C48.9777 45.3092 47.7923 46.4849 46.2519 47.9959C46.8862 48.5639 48.2349 49.78 48.5554 50.1C48.8759 50.42 48.6889 51.0333 48.5554 51.3C47.2868 52.6333 44.5894 55.36 43.9484 55.6C43.3074 55.84 42.6798 55.5 42.4461 55.3L40.6434 53.4635C39.8265 54.2567 39.07 54.9901 38.4401 55.6L33.6328 51.3L30.4289 54.6L34.0334 58.1C34.3672 58.7667 34.7545 60.36 33.6328 61.4C32.5111 62.44 31.2291 62.2333 30.7284 62L19.2109 50.8Z" fill="white"/>
<path d="M26.5154 50.8L23.1168 47.5C22.6161 47 21.254 46.3 19.8118 47.5C18.3697 48.7 18.8103 50.2 19.2109 50.8L30.7284 62C31.2291 62.2333 32.5111 62.44 33.6328 61.4C34.7545 60.36 34.3672 58.7667 34.0334 58.1L30.4289 54.6M26.5154 50.8L29.827 47.5M26.5154 50.8L30.4289 54.6M29.827 47.5L25.1199 42.9L27.2231 40.8M29.827 47.5L33.6328 51.3M33.6328 51.3L38.4401 55.6C39.07 54.9901 39.8265 54.2567 40.6434 53.4635M33.6328 51.3L30.4289 54.6M27.2231 40.8L25.4203 39.1C25.1199 38.7667 24.6392 37.94 25.1199 37.3C25.6006 36.66 28.4583 33.9 29.827 32.6C30.0607 32.4667 30.6683 32.32 31.2291 32.8C31.79 33.28 32.7982 34.3333 33.2322 34.8M27.2231 40.8L33.2322 34.8M33.2322 34.8L35.8361 32.2C36.2701 31.8 37.3985 31.24 38.4401 32.2C39.4816 33.16 45.7511 39.4667 48.7557 42.5C49.2231 43 49.9775 44.2 49.2565 45C48.9777 45.3092 47.7923 46.4849 46.2519 47.9959M40.6434 53.4635L42.4461 55.3C42.6798 55.5 43.3074 55.84 43.9484 55.6C44.5894 55.36 47.2868 52.6333 48.5554 51.3C48.6889 51.0333 48.8759 50.42 48.5554 50.1C48.2349 49.78 46.8862 48.5639 46.2519 47.9959M40.6434 53.4635C42.4561 51.7035 44.5665 49.649 46.2519 47.9959M55.5 18.5L51 22L61.5 32.2L65 27.9M55.5 18.5L65 27.9M55.5 18.5L57 14L69 25.5L65 27.9M12 27.1V8H78V63H53.7633V35.7C53.563 33.1 51.7602 27.9 46.1517 27.9C40.5432 27.9 21.047 27.9 12 27.9V27.1Z" stroke="#B4B4B4" stroke-width="2" stroke-linejoin="round"/>
</g>
<defs>
<filter id="filter0_d_183_39267" x="0" y="0" width="90" height="79" filterUnits="userSpaceOnUse" color-interpolation-filters="sRGB">
<feFlood flood-opacity="0" result="BackgroundImageFix"/>
<feColorMatrix in="SourceAlpha" type="matrix" values="0 0 0 0 0 0 0 0 0 0 0 0 0 0 0 0 0 0 127 0" result="hardAlpha"/>
<feOffset dy="4"/>
<feGaussianBlur stdDeviation="5.5"/>
<feComposite in2="hardAlpha" operator="out"/>
<feColorMatrix type="matrix" values="0 0 0 0 0 0 0 0 0 0 0 0 0 0 0 0 0 0 0.14 0"/>
<feBlend mode="normal" in2="BackgroundImageFix" result="effect1_dropShadow_183_39267"/>
<feBlend mode="normal" in="SourceGraphic" in2="effect1_dropShadow_183_39267" result="shape"/>
</filter>
</defs>
</svg>
