<svg width="90" height="79" viewBox="0 0 90 79" fill="none" xmlns="http://www.w3.org/2000/svg">
<g filter="url(#filter0_d_183_39273)">
<path d="M78 8V27.1V27.9H43.8483C38.2398 27.9 36.437 33.1 36.2367 35.7V63H12V8H78Z" fill="white"/>
<path d="M70.7891 50.8C71.1897 50.2 71.6303 48.7 70.1882 47.5C68.746 46.3 67.3839 47 66.8832 47.5L63.4846 50.8L60.173 47.5L64.8801 42.9L62.7769 40.8L64.5797 39.1C64.8801 38.7667 65.3608 37.94 64.8801 37.3C64.3994 36.66 61.5417 33.9 60.173 32.6C59.9393 32.4667 59.3317 32.32 58.7709 32.8C58.21 33.28 57.2018 34.3333 56.7678 34.8L54.1639 32.2C53.7299 31.8 52.6015 31.24 51.5599 32.2C50.5184 33.16 44.2489 39.4667 41.2443 42.5C40.7769 43 40.0225 44.2 40.7435 45C41.0223 45.3092 42.2077 46.4849 43.7481 47.9959C43.1138 48.5639 41.7651 49.78 41.4446 50.1C41.1241 50.42 41.3111 51.0333 41.4446 51.3C42.7132 52.6333 45.4106 55.36 46.0516 55.6C46.6926 55.84 47.3202 55.5 47.5539 55.3L49.3566 53.4635C50.1735 54.2567 50.93 54.9901 51.5599 55.6L56.3672 51.3L59.5711 54.6L55.9666 58.1C55.6328 58.7667 55.2455 60.36 56.3672 61.4C57.4889 62.44 58.7709 62.2333 59.2716 62L70.7891 50.8Z" fill="white"/>
<path d="M63.4846 50.8L66.8832 47.5C67.3839 47 68.746 46.3 70.1882 47.5C71.6303 48.7 71.1897 50.2 70.7891 50.8L59.2716 62C58.7709 62.2333 57.4889 62.44 56.3672 61.4C55.2455 60.36 55.6328 58.7667 55.9666 58.1L59.5711 54.6M63.4846 50.8L60.173 47.5M63.4846 50.8L59.5711 54.6M60.173 47.5L64.8801 42.9L62.7769 40.8M60.173 47.5L56.3672 51.3M56.3672 51.3L51.5599 55.6C50.93 54.9901 50.1735 54.2567 49.3566 53.4635M56.3672 51.3L59.5711 54.6M62.7769 40.8L64.5797 39.1C64.8801 38.7667 65.3608 37.94 64.8801 37.3C64.3994 36.66 61.5417 33.9 60.173 32.6C59.9393 32.4667 59.3317 32.32 58.7709 32.8C58.21 33.28 57.2018 34.3333 56.7678 34.8M62.7769 40.8L56.7678 34.8M56.7678 34.8L54.1639 32.2C53.7299 31.8 52.6015 31.24 51.5599 32.2C50.5184 33.16 44.2489 39.4667 41.2443 42.5C40.7769 43 40.0225 44.2 40.7435 45C41.0223 45.3092 42.2077 46.4849 43.7481 47.9959M49.3566 53.4635L47.5539 55.3C47.3202 55.5 46.6926 55.84 46.0516 55.6C45.4106 55.36 42.7132 52.6333 41.4446 51.3C41.3111 51.0333 41.1241 50.42 41.4446 50.1C41.7651 49.78 43.1138 48.5639 43.7481 47.9959M49.3566 53.4635C47.5439 51.7035 45.4335 49.649 43.7481 47.9959M34.5 18.5L39 22L28.5 32.2L25 27.9M34.5 18.5L25 27.9M34.5 18.5L33 14L21 25.5L25 27.9M78 27.1V8H12V63H36.2367V35.7C36.437 33.1 38.2398 27.9 43.8483 27.9C49.4568 27.9 68.953 27.9 78 27.9V27.1Z" stroke="#B4B4B4" stroke-width="2" stroke-linejoin="round"/>
</g>
<defs>
<filter id="filter0_d_183_39273" x="0" y="0" width="90" height="79" filterUnits="userSpaceOnUse" color-interpolation-filters="sRGB">
<feFlood flood-opacity="0" result="BackgroundImageFix"/>
<feColorMatrix in="SourceAlpha" type="matrix" values="0 0 0 0 0 0 0 0 0 0 0 0 0 0 0 0 0 0 127 0" result="hardAlpha"/>
<feOffset dy="4"/>
<feGaussianBlur stdDeviation="5.5"/>
<feComposite in2="hardAlpha" operator="out"/>
<feColorMatrix type="matrix" values="0 0 0 0 0 0 0 0 0 0 0 0 0 0 0 0 0 0 0.14 0"/>
<feBlend mode="normal" in2="BackgroundImageFix" result="effect1_dropShadow_183_39273"/>
<feBlend mode="normal" in="SourceGraphic" in2="effect1_dropShadow_183_39273" result="shape"/>
</filter>
</defs>
</svg>
