<svg width="58" height="58" viewBox="0 0 58 58" fill="none" xmlns="http://www.w3.org/2000/svg">
<path fill-rule="evenodd" clip-rule="evenodd" d="M58 29C58 45.0162 45.0162 58 29 58C12.9838 58 0 45.0162 0 29C0 12.9838 12.9838 0 29 0C45.0162 0 58 12.9838 58 29ZM29.1352 33.1217C34.4802 25.563 34.7161 20.982 29.1352 12.8889C23.4476 21.1547 24.1808 25.5359 29.1352 33.1217ZM26.597 42.9678C27.4466 33.7492 25.3605 29.6641 16.4807 25.4457C15.6881 35.4478 18.5136 38.8756 26.597 42.9678ZM31.7078 42.9678C30.8583 33.7492 32.9445 29.6641 41.8243 25.4457C42.6168 35.4478 39.7914 38.8756 31.7078 42.9678Z" fill="#4339F2"/>
</svg>
