<svg width="1052" height="194" viewBox="0 0 1052 194" fill="none" xmlns="http://www.w3.org/2000/svg">
<g filter="url(#filter0_d_370_7711)">
<rect width="1052" height="194" rx="16" fill="url(#paint0_linear_370_7711)"/>
</g>
<path d="M815.176 128.706C814.362 123.823 815.177 111.617 820.059 104.294" stroke="white" stroke-opacity="0.2" stroke-width="2" stroke-linecap="round"/>
<path d="M827.382 92.0883C831.451 81.5099 846.424 59.3766 873.765 55.4707" stroke="white" stroke-opacity="0.2" stroke-width="2" stroke-linecap="round"/>
<path d="M773.676 148.235C764.725 162.069 760.006 189.247 812.735 187.294C878.647 184.853 986.059 148.235 1010.47 128.706C1034.88 109.177 1022.68 84.7649 993.382 82.3237" stroke="white" stroke-opacity="0.2" stroke-width="2" stroke-linecap="round"/>
<circle cx="893.294" cy="128.706" r="106.412" stroke="white" stroke-opacity="0.2" stroke-width="2"/>
<path d="M805.412 75.0006C785.882 71.7457 755.612 77.93 790.764 128.706C825.917 179.483 922.588 198.687 966.529 201.942C993.382 201.942 1040.25 192.178 1012.91 153.119" stroke="white" stroke-opacity="0.2" stroke-width="2" stroke-linecap="round"/>
<circle cx="1003.15" cy="18.8529" r="25.8529" stroke="white" stroke-opacity="0.2" stroke-width="2"/>
<circle cx="949.441" cy="4.20588" r="11.2059" stroke="white" stroke-opacity="0.2" stroke-width="2"/>
<circle cx="734.618" cy="223.912" r="35.6176" stroke="white" stroke-opacity="0.2" stroke-width="2"/>
<path d="M510.452 8.17117C506.021 5.96575 496.614 -1.85481 493.547 -10.105" stroke="white" stroke-opacity="0.2" stroke-width="2" stroke-linecap="round"/>
<path d="M501.92 53.2359C507.871 68.6003 527.112 88.3674 556.466 44.5205C593.158 -10.2881 626.521 -118.755 625.028 -149.982C623.535 -181.208 596.605 -185.646 577.441 -163.355" stroke="white" stroke-opacity="0.2" stroke-width="2" stroke-linecap="round"/>
<circle cx="556.282" cy="-55.0902" r="106.412" transform="rotate(-54.078 556.282 -55.0902)" stroke="white" stroke-opacity="0.2" stroke-width="2"/>
<path d="M461.232 -15.4294C447.138 -1.52378 434.387 26.6181 496.131 27.9403C557.874 29.2626 630.141 -37.7562 658.556 -71.4309C674.311 -93.1769 693.901 -136.862 646.23 -137.636" stroke="white" stroke-opacity="0.2" stroke-width="2" stroke-linecap="round"/>
<circle cx="721.939" cy="40.806" r="13.6471" transform="rotate(-54.078 721.939 40.806)" stroke="white" stroke-opacity="0.2" stroke-width="2"/>
<circle cx="540.289" cy="129.264" r="35.6176" transform="rotate(-54.078 540.289 129.264)" stroke="white" stroke-opacity="0.2" stroke-width="2"/>
<circle cx="610.528" cy="65.5998" r="6.32353" transform="rotate(-54.078 610.528 65.5998)" stroke="white" stroke-opacity="0.2" stroke-width="2"/>
<circle cx="664.792" cy="98.8829" r="11.2059" transform="rotate(-54.078 664.792 98.8829)" stroke="white" stroke-opacity="0.2" stroke-width="2"/>
<defs>
<filter id="filter0_d_370_7711" x="-10" y="-10" width="1072" height="214" filterUnits="userSpaceOnUse" color-interpolation-filters="sRGB">
<feFlood flood-opacity="0" result="BackgroundImageFix"/>
<feColorMatrix in="SourceAlpha" type="matrix" values="0 0 0 0 0 0 0 0 0 0 0 0 0 0 0 0 0 0 127 0" result="hardAlpha"/>
<feOffset/>
<feGaussianBlur stdDeviation="5"/>
<feComposite in2="hardAlpha" operator="out"/>
<feColorMatrix type="matrix" values="0 0 0 0 0 0 0 0 0 0 0 0 0 0 0 0 0 0 0.15 0"/>
<feBlend mode="normal" in2="BackgroundImageFix" result="effect1_dropShadow_370_7711"/>
<feBlend mode="normal" in="SourceGraphic" in2="effect1_dropShadow_370_7711" result="shape"/>
</filter>
<linearGradient id="paint0_linear_370_7711" x1="22.5" y1="97.0004" x2="1032.25" y2="105.167" gradientUnits="userSpaceOnUse">
<stop stop-color="#BD7AE3"/>
<stop offset="1" stop-color="#4156F6"/>
</linearGradient>
</defs>
</svg>
