<svg width="46" height="46" viewBox="0 0 46 46" fill="none" xmlns="http://www.w3.org/2000/svg">
<path d="M40.25 3.8335L36.4167 7.66683M40.25 3.8335L29.7084 14.3752M29.7084 14.3752L35.4584 20.1252L42.1667 13.4168L36.4167 7.66683M29.7084 14.3752L36.4167 7.66683M21.8309 22.2527C22.8205 23.2291 23.6072 24.3917 24.1457 25.6735C24.6842 26.9553 24.9639 28.3309 24.9685 29.7212C24.9732 31.1115 24.7028 32.489 24.1729 33.7743C23.643 35.0597 22.8641 36.2275 21.881 37.2106C20.8979 38.1937 19.7301 38.9726 18.4447 39.5025C17.1593 40.0324 15.7819 40.3028 14.3916 40.2981C13.0013 40.2935 11.6257 40.0139 10.3439 39.4754C9.06211 38.9369 7.89952 38.1502 6.92304 37.1605C5.00279 35.1723 3.94025 32.5095 3.96427 29.7455C3.98828 26.9815 5.09694 24.3375 7.05145 22.383C9.00596 20.4285 11.6499 19.3198 14.4139 19.2958C17.1779 19.2718 19.8408 20.3343 21.829 22.2546L21.8309 22.2527Z" stroke="#FFCF5C" stroke-width="4" stroke-linecap="round" stroke-linejoin="round"/>
</svg>
