<svg width="453" height="438" viewBox="0 0 453 438" fill="none" xmlns="http://www.w3.org/2000/svg">
<rect x="0.5" y="0.5" width="452" height="437" rx="19.5" fill="white" stroke="#4F4CEC"/>
<path d="M158.259 39L164.559 25H167.119L173.439 39H170.719L165.299 26.38H166.339L160.939 39H158.259ZM161.159 35.76L161.859 33.72H169.419L170.119 35.76H161.159ZM179.782 39.14C178.662 39.14 177.662 38.9067 176.782 38.44C175.916 37.96 175.236 37.3067 174.742 36.48C174.249 35.6533 174.002 34.7133 174.002 33.66C174.002 32.5933 174.249 31.6533 174.742 30.84C175.236 30.0133 175.916 29.3667 176.782 28.9C177.662 28.4333 178.662 28.2 179.782 28.2C180.822 28.2 181.736 28.4133 182.522 28.84C183.322 29.2533 183.929 29.8667 184.342 30.68L182.422 31.8C182.102 31.2933 181.709 30.92 181.242 30.68C180.789 30.44 180.296 30.32 179.762 30.32C179.149 30.32 178.596 30.4533 178.102 30.72C177.609 30.9867 177.222 31.3733 176.942 31.88C176.662 32.3733 176.522 32.9667 176.522 33.66C176.522 34.3533 176.662 34.9533 176.942 35.46C177.222 35.9533 177.609 36.3333 178.102 36.6C178.596 36.8667 179.149 37 179.762 37C180.296 37 180.789 36.88 181.242 36.64C181.709 36.4 182.102 36.0267 182.422 35.52L184.342 36.64C183.929 37.44 183.322 38.06 182.522 38.5C181.736 38.9267 180.822 39.14 179.782 39.14ZM191.247 39.14C190.127 39.14 189.127 38.9067 188.247 38.44C187.38 37.96 186.7 37.3067 186.207 36.48C185.714 35.6533 185.467 34.7133 185.467 33.66C185.467 32.5933 185.714 31.6533 186.207 30.84C186.7 30.0133 187.38 29.3667 188.247 28.9C189.127 28.4333 190.127 28.2 191.247 28.2C192.287 28.2 193.2 28.4133 193.987 28.84C194.787 29.2533 195.394 29.8667 195.807 30.68L193.887 31.8C193.567 31.2933 193.174 30.92 192.707 30.68C192.254 30.44 191.76 30.32 191.227 30.32C190.614 30.32 190.06 30.4533 189.567 30.72C189.074 30.9867 188.687 31.3733 188.407 31.88C188.127 32.3733 187.987 32.9667 187.987 33.66C187.987 34.3533 188.127 34.9533 188.407 35.46C188.687 35.9533 189.074 36.3333 189.567 36.6C190.06 36.8667 190.614 37 191.227 37C191.76 37 192.254 36.88 192.707 36.64C193.174 36.4 193.567 36.0267 193.887 35.52L195.807 36.64C195.394 37.44 194.787 38.06 193.987 38.5C193.2 38.9267 192.287 39.14 191.247 39.14ZM202.832 39.14C201.645 39.14 200.605 38.9067 199.712 38.44C198.832 37.96 198.145 37.3067 197.652 36.48C197.172 35.6533 196.932 34.7133 196.932 33.66C196.932 32.5933 197.165 31.6533 197.632 30.84C198.112 30.0133 198.765 29.3667 199.592 28.9C200.432 28.4333 201.385 28.2 202.452 28.2C203.492 28.2 204.419 28.4267 205.232 28.88C206.045 29.3333 206.685 29.9733 207.152 30.8C207.619 31.6267 207.852 32.6 207.852 33.72C207.852 33.8267 207.845 33.9467 207.832 34.08C207.832 34.2133 207.825 34.34 207.812 34.46H198.912V32.8H206.492L205.512 33.32C205.525 32.7067 205.399 32.1667 205.132 31.7C204.865 31.2333 204.499 30.8667 204.032 30.6C203.579 30.3333 203.052 30.2 202.452 30.2C201.839 30.2 201.299 30.3333 200.832 30.6C200.379 30.8667 200.019 31.24 199.752 31.72C199.499 32.1867 199.372 32.74 199.372 33.38V33.78C199.372 34.42 199.519 34.9867 199.812 35.48C200.105 35.9733 200.519 36.3533 201.052 36.62C201.585 36.8867 202.199 37.02 202.892 37.02C203.492 37.02 204.032 36.9267 204.512 36.74C204.992 36.5533 205.419 36.26 205.792 35.86L207.132 37.4C206.652 37.96 206.045 38.3933 205.312 38.7C204.592 38.9933 203.765 39.14 202.832 39.14ZM213.553 39.14C212.66 39.14 211.8 39.0267 210.973 38.8C210.16 38.56 209.513 38.2733 209.033 37.94L209.993 36.04C210.473 36.3467 211.047 36.6 211.713 36.8C212.38 37 213.047 37.1 213.713 37.1C214.5 37.1 215.067 36.9933 215.413 36.78C215.773 36.5667 215.953 36.28 215.953 35.92C215.953 35.6267 215.833 35.4067 215.593 35.26C215.353 35.1 215.04 34.98 214.653 34.9C214.267 34.82 213.833 34.7467 213.353 34.68C212.887 34.6133 212.413 34.5267 211.933 34.42C211.467 34.3 211.04 34.1333 210.653 33.92C210.267 33.6933 209.953 33.3933 209.713 33.02C209.473 32.6467 209.353 32.1533 209.353 31.54C209.353 30.86 209.547 30.2733 209.933 29.78C210.32 29.2733 210.86 28.8867 211.553 28.62C212.26 28.34 213.093 28.2 214.053 28.2C214.773 28.2 215.5 28.28 216.233 28.44C216.967 28.6 217.573 28.8267 218.053 29.12L217.093 31.02C216.587 30.7133 216.073 30.5067 215.553 30.4C215.047 30.28 214.54 30.22 214.033 30.22C213.273 30.22 212.707 30.3333 212.333 30.56C211.973 30.7867 211.793 31.0733 211.793 31.42C211.793 31.74 211.913 31.98 212.153 32.14C212.393 32.3 212.707 32.4267 213.093 32.52C213.48 32.6133 213.907 32.6933 214.373 32.76C214.853 32.8133 215.327 32.9 215.793 33.02C216.26 33.14 216.687 33.3067 217.073 33.52C217.473 33.72 217.793 34.0067 218.033 34.38C218.273 34.7533 218.393 35.24 218.393 35.84C218.393 36.5067 218.193 37.0867 217.793 37.58C217.407 38.0733 216.853 38.46 216.133 38.74C215.413 39.0067 214.553 39.14 213.553 39.14ZM223.846 39.14C222.953 39.14 222.093 39.0267 221.266 38.8C220.453 38.56 219.806 38.2733 219.326 37.94L220.286 36.04C220.766 36.3467 221.34 36.6 222.006 36.8C222.673 37 223.34 37.1 224.006 37.1C224.793 37.1 225.36 36.9933 225.706 36.78C226.066 36.5667 226.246 36.28 226.246 35.92C226.246 35.6267 226.126 35.4067 225.886 35.26C225.646 35.1 225.333 34.98 224.946 34.9C224.56 34.82 224.126 34.7467 223.646 34.68C223.18 34.6133 222.706 34.5267 222.226 34.42C221.76 34.3 221.333 34.1333 220.946 33.92C220.56 33.6933 220.246 33.3933 220.006 33.02C219.766 32.6467 219.646 32.1533 219.646 31.54C219.646 30.86 219.84 30.2733 220.226 29.78C220.613 29.2733 221.153 28.8867 221.846 28.62C222.553 28.34 223.386 28.2 224.346 28.2C225.066 28.2 225.793 28.28 226.526 28.44C227.26 28.6 227.866 28.8267 228.346 29.12L227.386 31.02C226.88 30.7133 226.366 30.5067 225.846 30.4C225.34 30.28 224.833 30.22 224.326 30.22C223.566 30.22 223 30.3333 222.626 30.56C222.266 30.7867 222.086 31.0733 222.086 31.42C222.086 31.74 222.206 31.98 222.446 32.14C222.686 32.3 223 32.4267 223.386 32.52C223.773 32.6133 224.2 32.6933 224.666 32.76C225.146 32.8133 225.62 32.9 226.086 33.02C226.553 33.14 226.98 33.3067 227.366 33.52C227.766 33.72 228.086 34.0067 228.326 34.38C228.566 34.7533 228.686 35.24 228.686 35.84C228.686 36.5067 228.486 37.0867 228.086 37.58C227.7 38.0733 227.146 38.46 226.426 38.74C225.706 39.0067 224.846 39.14 223.846 39.14ZM241.267 39.14C240.147 39.14 239.147 38.9067 238.267 38.44C237.4 37.96 236.72 37.3067 236.227 36.48C235.733 35.6533 235.487 34.7133 235.487 33.66C235.487 32.5933 235.733 31.6533 236.227 30.84C236.72 30.0133 237.4 29.3667 238.267 28.9C239.147 28.4333 240.147 28.2 241.267 28.2C242.307 28.2 243.22 28.4133 244.007 28.84C244.807 29.2533 245.413 29.8667 245.827 30.68L243.907 31.8C243.587 31.2933 243.193 30.92 242.727 30.68C242.273 30.44 241.78 30.32 241.247 30.32C240.633 30.32 240.08 30.4533 239.587 30.72C239.093 30.9867 238.707 31.3733 238.427 31.88C238.147 32.3733 238.007 32.9667 238.007 33.66C238.007 34.3533 238.147 34.9533 238.427 35.46C238.707 35.9533 239.093 36.3333 239.587 36.6C240.08 36.8667 240.633 37 241.247 37C241.78 37 242.273 36.88 242.727 36.64C243.193 36.4 243.587 36.0267 243.907 35.52L245.827 36.64C245.413 37.44 244.807 38.06 244.007 38.5C243.22 38.9267 242.307 39.14 241.267 39.14ZM253.95 28.2C254.803 28.2 255.563 28.3667 256.23 28.7C256.91 29.0333 257.443 29.5467 257.83 30.24C258.217 30.92 258.41 31.8 258.41 32.88V39H255.91V33.2C255.91 32.2533 255.683 31.5467 255.23 31.08C254.79 30.6133 254.17 30.38 253.37 30.38C252.783 30.38 252.263 30.5 251.81 30.74C251.357 30.98 251.003 31.34 250.75 31.82C250.51 32.2867 250.39 32.88 250.39 33.6V39H247.89V24.16H250.39V31.2L249.85 30.32C250.223 29.64 250.763 29.12 251.47 28.76C252.19 28.3867 253.017 28.2 253.95 28.2ZM266.621 39.14C265.434 39.14 264.394 38.9067 263.501 38.44C262.621 37.96 261.934 37.3067 261.441 36.48C260.961 35.6533 260.721 34.7133 260.721 33.66C260.721 32.5933 260.954 31.6533 261.421 30.84C261.901 30.0133 262.554 29.3667 263.381 28.9C264.221 28.4333 265.174 28.2 266.241 28.2C267.281 28.2 268.208 28.4267 269.021 28.88C269.834 29.3333 270.474 29.9733 270.941 30.8C271.408 31.6267 271.641 32.6 271.641 33.72C271.641 33.8267 271.634 33.9467 271.621 34.08C271.621 34.2133 271.614 34.34 271.601 34.46H262.701V32.8H270.281L269.301 33.32C269.314 32.7067 269.188 32.1667 268.921 31.7C268.654 31.2333 268.288 30.8667 267.821 30.6C267.368 30.3333 266.841 30.2 266.241 30.2C265.628 30.2 265.088 30.3333 264.621 30.6C264.168 30.8667 263.808 31.24 263.541 31.72C263.288 32.1867 263.161 32.74 263.161 33.38V33.78C263.161 34.42 263.308 34.9867 263.601 35.48C263.894 35.9733 264.308 36.3533 264.841 36.62C265.374 36.8867 265.988 37.02 266.681 37.02C267.281 37.02 267.821 36.9267 268.301 36.74C268.781 36.5533 269.208 36.26 269.581 35.86L270.921 37.4C270.441 37.96 269.834 38.3933 269.101 38.7C268.381 38.9933 267.554 39.14 266.621 39.14ZM278.942 39.14C277.822 39.14 276.822 38.9067 275.942 38.44C275.076 37.96 274.396 37.3067 273.902 36.48C273.409 35.6533 273.162 34.7133 273.162 33.66C273.162 32.5933 273.409 31.6533 273.902 30.84C274.396 30.0133 275.076 29.3667 275.942 28.9C276.822 28.4333 277.822 28.2 278.942 28.2C279.982 28.2 280.896 28.4133 281.682 28.84C282.482 29.2533 283.089 29.8667 283.502 30.68L281.582 31.8C281.262 31.2933 280.869 30.92 280.402 30.68C279.949 30.44 279.456 30.32 278.922 30.32C278.309 30.32 277.756 30.4533 277.262 30.72C276.769 30.9867 276.382 31.3733 276.102 31.88C275.822 32.3733 275.682 32.9667 275.682 33.66C275.682 34.3533 275.822 34.9533 276.102 35.46C276.382 35.9533 276.769 36.3333 277.262 36.6C277.756 36.8667 278.309 37 278.922 37C279.456 37 279.949 36.88 280.402 36.64C280.869 36.4 281.262 36.0267 281.582 35.52L283.502 36.64C283.089 37.44 282.482 38.06 281.682 38.5C280.896 38.9267 279.982 39.14 278.942 39.14ZM287.606 36.62L287.666 33.48L293.246 28.32H296.246L291.506 33.08L290.186 34.18L287.606 36.62ZM285.566 39V24.16H288.066V39H285.566ZM293.626 39L289.726 34.18L291.306 32.18L296.666 39H293.626Z" fill="#0D1C2E"/>
<path d="M0 59L453 59" stroke="#BBBCBD"/>
<path fill-rule="evenodd" clip-rule="evenodd" d="M421.414 30.9998L425.707 26.7068C426.098 26.3158 426.098 25.6838 425.707 25.2928C425.316 24.9018 424.684 24.9018 424.293 25.2928L420 29.5858L415.707 25.2928C415.316 24.9018 414.684 24.9018 414.293 25.2928C413.902 25.6838 413.902 26.3158 414.293 26.7068L418.586 30.9998L414.293 35.2928C413.902 35.6838 413.902 36.3158 414.293 36.7068C414.488 36.9018 414.744 36.9998 415 36.9998C415.256 36.9998 415.512 36.9018 415.707 36.7068L420 32.4138L424.293 36.7068C424.488 36.9018 424.744 36.9998 425 36.9998C425.256 36.9998 425.512 36.9018 425.707 36.7068C426.098 36.3158 426.098 35.6838 425.707 35.2928L421.414 30.9998Z" fill="#0D1C2E"/>
<mask id="mask0_197_51314" style="mask-type:luminance" maskUnits="userSpaceOnUse" x="413" y="24" width="14" height="13">
<path fill-rule="evenodd" clip-rule="evenodd" d="M421.414 30.9998L425.707 26.7068C426.098 26.3158 426.098 25.6838 425.707 25.2928C425.316 24.9018 424.684 24.9018 424.293 25.2928L420 29.5858L415.707 25.2928C415.316 24.9018 414.684 24.9018 414.293 25.2928C413.902 25.6838 413.902 26.3158 414.293 26.7068L418.586 30.9998L414.293 35.2928C413.902 35.6838 413.902 36.3158 414.293 36.7068C414.488 36.9018 414.744 36.9998 415 36.9998C415.256 36.9998 415.512 36.9018 415.707 36.7068L420 32.4138L424.293 36.7068C424.488 36.9018 424.744 36.9998 425 36.9998C425.256 36.9998 425.512 36.9018 425.707 36.7068C426.098 36.3158 426.098 35.6838 425.707 35.2928L421.414 30.9998Z" fill="white"/>
</mask>
<g mask="url(#mask0_197_51314)">
</g>
<path d="M88.4983 187V177.2H92.3203C93.179 177.2 93.9117 177.335 94.5183 177.606C95.125 177.877 95.5917 178.269 95.9183 178.782C96.245 179.295 96.4083 179.907 96.4083 180.616C96.4083 181.325 96.245 181.937 95.9183 182.45C95.5917 182.954 95.125 183.346 94.5183 183.626C93.9117 183.897 93.179 184.032 92.3203 184.032H89.2683L89.8983 183.374V187H88.4983ZM89.8983 183.514L89.2683 182.814H92.2783C93.1743 182.814 93.851 182.623 94.3083 182.24C94.775 181.857 95.0083 181.316 95.0083 180.616C95.0083 179.916 94.775 179.375 94.3083 178.992C93.851 178.609 93.1743 178.418 92.2783 178.418H89.2683L89.8983 177.718V183.514ZM98.4058 187V176.612H99.7498V187H98.4058ZM105.62 187.084C104.827 187.084 104.127 186.921 103.52 186.594C102.923 186.267 102.456 185.819 102.12 185.25C101.793 184.681 101.63 184.027 101.63 183.29C101.63 182.553 101.789 181.899 102.106 181.33C102.433 180.761 102.876 180.317 103.436 180C104.005 179.673 104.645 179.51 105.354 179.51C106.073 179.51 106.707 179.669 107.258 179.986C107.809 180.303 108.238 180.751 108.546 181.33C108.863 181.899 109.022 182.567 109.022 183.332C109.022 183.388 109.017 183.453 109.008 183.528C109.008 183.603 109.003 183.673 108.994 183.738H102.68V182.772H108.294L107.748 183.108C107.757 182.632 107.659 182.207 107.454 181.834C107.249 181.461 106.964 181.171 106.6 180.966C106.245 180.751 105.83 180.644 105.354 180.644C104.887 180.644 104.472 180.751 104.108 180.966C103.744 181.171 103.459 181.465 103.254 181.848C103.049 182.221 102.946 182.651 102.946 183.136V183.36C102.946 183.855 103.058 184.298 103.282 184.69C103.515 185.073 103.837 185.371 104.248 185.586C104.659 185.801 105.13 185.908 105.662 185.908C106.101 185.908 106.497 185.833 106.852 185.684C107.216 185.535 107.533 185.311 107.804 185.012L108.546 185.88C108.21 186.272 107.79 186.571 107.286 186.776C106.791 186.981 106.236 187.084 105.62 187.084ZM115.289 187V185.432L115.219 185.138V182.464C115.219 181.895 115.051 181.456 114.715 181.148C114.389 180.831 113.894 180.672 113.231 180.672C112.793 180.672 112.363 180.747 111.943 180.896C111.523 181.036 111.169 181.227 110.879 181.47L110.319 180.462C110.702 180.154 111.159 179.921 111.691 179.762C112.233 179.594 112.797 179.51 113.385 179.51C114.403 179.51 115.187 179.757 115.737 180.252C116.288 180.747 116.563 181.503 116.563 182.52V187H115.289ZM112.853 187.084C112.303 187.084 111.817 186.991 111.397 186.804C110.987 186.617 110.669 186.361 110.445 186.034C110.221 185.698 110.109 185.32 110.109 184.9C110.109 184.499 110.203 184.135 110.389 183.808C110.585 183.481 110.898 183.22 111.327 183.024C111.766 182.828 112.354 182.73 113.091 182.73H115.443V183.696H113.147C112.475 183.696 112.023 183.808 111.789 184.032C111.556 184.256 111.439 184.527 111.439 184.844C111.439 185.208 111.584 185.502 111.873 185.726C112.163 185.941 112.564 186.048 113.077 186.048C113.581 186.048 114.02 185.936 114.393 185.712C114.776 185.488 115.051 185.161 115.219 184.732L115.485 185.656C115.308 186.095 114.995 186.445 114.547 186.706C114.099 186.958 113.535 187.084 112.853 187.084ZM121.178 187.084C120.562 187.084 119.974 187 119.414 186.832C118.864 186.664 118.43 186.459 118.112 186.216L118.672 185.152C118.99 185.367 119.382 185.549 119.848 185.698C120.315 185.847 120.791 185.922 121.276 185.922C121.902 185.922 122.35 185.833 122.62 185.656C122.9 185.479 123.04 185.231 123.04 184.914C123.04 184.681 122.956 184.499 122.788 184.368C122.62 184.237 122.396 184.139 122.116 184.074C121.846 184.009 121.542 183.953 121.206 183.906C120.87 183.85 120.534 183.785 120.198 183.71C119.862 183.626 119.554 183.514 119.274 183.374C118.994 183.225 118.77 183.024 118.602 182.772C118.434 182.511 118.35 182.165 118.35 181.736C118.35 181.288 118.476 180.896 118.728 180.56C118.98 180.224 119.335 179.967 119.792 179.79C120.259 179.603 120.81 179.51 121.444 179.51C121.93 179.51 122.42 179.571 122.914 179.692C123.418 179.804 123.829 179.967 124.146 180.182L123.572 181.246C123.236 181.022 122.886 180.868 122.522 180.784C122.158 180.7 121.794 180.658 121.43 180.658C120.842 180.658 120.404 180.756 120.114 180.952C119.825 181.139 119.68 181.381 119.68 181.68C119.68 181.932 119.764 182.128 119.932 182.268C120.11 182.399 120.334 182.501 120.604 182.576C120.884 182.651 121.192 182.716 121.528 182.772C121.864 182.819 122.2 182.884 122.536 182.968C122.872 183.043 123.176 183.15 123.446 183.29C123.726 183.43 123.95 183.626 124.118 183.878C124.296 184.13 124.384 184.466 124.384 184.886C124.384 185.334 124.254 185.721 123.992 186.048C123.731 186.375 123.362 186.631 122.886 186.818C122.41 186.995 121.841 187.084 121.178 187.084ZM129.368 187.084C128.575 187.084 127.875 186.921 127.268 186.594C126.671 186.267 126.204 185.819 125.868 185.25C125.541 184.681 125.378 184.027 125.378 183.29C125.378 182.553 125.537 181.899 125.854 181.33C126.181 180.761 126.624 180.317 127.184 180C127.753 179.673 128.393 179.51 129.102 179.51C129.821 179.51 130.455 179.669 131.006 179.986C131.557 180.303 131.986 180.751 132.294 181.33C132.611 181.899 132.77 182.567 132.77 183.332C132.77 183.388 132.765 183.453 132.756 183.528C132.756 183.603 132.751 183.673 132.742 183.738H126.428V182.772H132.042L131.496 183.108C131.505 182.632 131.407 182.207 131.202 181.834C130.997 181.461 130.712 181.171 130.348 180.966C129.993 180.751 129.578 180.644 129.102 180.644C128.635 180.644 128.22 180.751 127.856 180.966C127.492 181.171 127.207 181.465 127.002 181.848C126.797 182.221 126.694 182.651 126.694 183.136V183.36C126.694 183.855 126.806 184.298 127.03 184.69C127.263 185.073 127.585 185.371 127.996 185.586C128.407 185.801 128.878 185.908 129.41 185.908C129.849 185.908 130.245 185.833 130.6 185.684C130.964 185.535 131.281 185.311 131.552 185.012L132.294 185.88C131.958 186.272 131.538 186.571 131.034 186.776C130.539 186.981 129.984 187.084 129.368 187.084ZM141.7 187.084C140.907 187.084 140.207 186.921 139.6 186.594C139.003 186.267 138.536 185.819 138.2 185.25C137.873 184.681 137.71 184.027 137.71 183.29C137.71 182.553 137.869 181.899 138.186 181.33C138.513 180.761 138.956 180.317 139.516 180C140.085 179.673 140.725 179.51 141.434 179.51C142.153 179.51 142.787 179.669 143.338 179.986C143.889 180.303 144.318 180.751 144.626 181.33C144.943 181.899 145.102 182.567 145.102 183.332C145.102 183.388 145.097 183.453 145.088 183.528C145.088 183.603 145.083 183.673 145.074 183.738H138.76V182.772H144.374L143.828 183.108C143.837 182.632 143.739 182.207 143.534 181.834C143.329 181.461 143.044 181.171 142.68 180.966C142.325 180.751 141.91 180.644 141.434 180.644C140.967 180.644 140.552 180.751 140.188 180.966C139.824 181.171 139.539 181.465 139.334 181.848C139.129 182.221 139.026 182.651 139.026 183.136V183.36C139.026 183.855 139.138 184.298 139.362 184.69C139.595 185.073 139.917 185.371 140.328 185.586C140.739 185.801 141.21 185.908 141.742 185.908C142.181 185.908 142.577 185.833 142.932 185.684C143.296 185.535 143.613 185.311 143.884 185.012L144.626 185.88C144.29 186.272 143.87 186.571 143.366 186.776C142.871 186.981 142.316 187.084 141.7 187.084ZM150.93 179.51C151.537 179.51 152.069 179.627 152.526 179.86C152.993 180.093 153.357 180.448 153.618 180.924C153.88 181.4 154.01 182.002 154.01 182.73V187H152.666V182.884C152.666 182.165 152.489 181.624 152.134 181.26C151.789 180.896 151.299 180.714 150.664 180.714C150.188 180.714 149.773 180.807 149.418 180.994C149.064 181.181 148.788 181.456 148.592 181.82C148.406 182.184 148.312 182.637 148.312 183.178V187H146.968V179.58H148.256V181.582L148.046 181.05C148.289 180.565 148.662 180.187 149.166 179.916C149.67 179.645 150.258 179.51 150.93 179.51ZM159.046 187.084C158.299 187.084 157.72 186.883 157.31 186.482C156.899 186.081 156.694 185.507 156.694 184.76V177.956H158.038V184.704C158.038 185.105 158.136 185.413 158.332 185.628C158.537 185.843 158.826 185.95 159.2 185.95C159.62 185.95 159.97 185.833 160.25 185.6L160.67 186.566C160.464 186.743 160.217 186.874 159.928 186.958C159.648 187.042 159.354 187.084 159.046 187.084ZM155.434 180.686V179.58H160.166V180.686H155.434ZM165.352 187.084C164.559 187.084 163.859 186.921 163.252 186.594C162.655 186.267 162.188 185.819 161.852 185.25C161.526 184.681 161.362 184.027 161.362 183.29C161.362 182.553 161.521 181.899 161.838 181.33C162.165 180.761 162.608 180.317 163.168 180C163.738 179.673 164.377 179.51 165.086 179.51C165.805 179.51 166.44 179.669 166.99 179.986C167.541 180.303 167.97 180.751 168.278 181.33C168.596 181.899 168.754 182.567 168.754 183.332C168.754 183.388 168.75 183.453 168.74 183.528C168.74 183.603 168.736 183.673 168.726 183.738H162.412V182.772H168.026L167.48 183.108C167.49 182.632 167.392 182.207 167.186 181.834C166.981 181.461 166.696 181.171 166.332 180.966C165.978 180.751 165.562 180.644 165.086 180.644C164.62 180.644 164.204 180.751 163.84 180.966C163.476 181.171 163.192 181.465 162.986 181.848C162.781 182.221 162.678 182.651 162.678 183.136V183.36C162.678 183.855 162.79 184.298 163.014 184.69C163.248 185.073 163.57 185.371 163.98 185.586C164.391 185.801 164.862 185.908 165.394 185.908C165.833 185.908 166.23 185.833 166.584 185.684C166.948 185.535 167.266 185.311 167.536 185.012L168.278 185.88C167.942 186.272 167.522 186.571 167.018 186.776C166.524 186.981 165.968 187.084 165.352 187.084ZM170.621 187V179.58H171.909V181.596L171.783 181.092C171.988 180.579 172.333 180.187 172.819 179.916C173.304 179.645 173.901 179.51 174.611 179.51V180.812C174.555 180.803 174.499 180.798 174.443 180.798C174.396 180.798 174.349 180.798 174.303 180.798C173.584 180.798 173.015 181.013 172.595 181.442C172.175 181.871 171.965 182.492 171.965 183.304V187H170.621ZM180.445 189.8C180.09 189.8 179.745 189.739 179.409 189.618C179.073 189.506 178.783 189.338 178.541 189.114L179.115 188.106C179.301 188.283 179.507 188.419 179.731 188.512C179.955 188.605 180.193 188.652 180.445 188.652C180.771 188.652 181.042 188.568 181.257 188.4C181.471 188.232 181.672 187.933 181.859 187.504L182.321 186.482L182.461 186.314L185.373 179.58H186.689L183.091 187.742C182.876 188.265 182.633 188.675 182.363 188.974C182.101 189.273 181.812 189.483 181.495 189.604C181.177 189.735 180.827 189.8 180.445 189.8ZM182.209 187.238L178.821 179.58H180.221L183.105 186.188L182.209 187.238ZM190.916 187.084C190.169 187.084 189.507 186.921 188.928 186.594C188.349 186.267 187.892 185.819 187.556 185.25C187.22 184.671 187.052 184.018 187.052 183.29C187.052 182.553 187.22 181.899 187.556 181.33C187.892 180.761 188.349 180.317 188.928 180C189.507 179.673 190.169 179.51 190.916 179.51C191.653 179.51 192.311 179.673 192.89 180C193.478 180.317 193.935 180.761 194.262 181.33C194.598 181.89 194.766 182.543 194.766 183.29C194.766 184.027 194.598 184.681 194.262 185.25C193.935 185.819 193.478 186.267 192.89 186.594C192.311 186.921 191.653 187.084 190.916 187.084ZM190.916 185.908C191.392 185.908 191.817 185.801 192.19 185.586C192.573 185.371 192.871 185.068 193.086 184.676C193.301 184.275 193.408 183.813 193.408 183.29C193.408 182.758 193.301 182.301 193.086 181.918C192.871 181.526 192.573 181.223 192.19 181.008C191.817 180.793 191.392 180.686 190.916 180.686C190.44 180.686 190.015 180.793 189.642 181.008C189.269 181.223 188.97 181.526 188.746 181.918C188.522 182.301 188.41 182.758 188.41 183.29C188.41 183.813 188.522 184.275 188.746 184.676C188.97 185.068 189.269 185.371 189.642 185.586C190.015 185.801 190.44 185.908 190.916 185.908ZM199.747 187.084C199.112 187.084 198.552 186.967 198.067 186.734C197.591 186.501 197.217 186.146 196.947 185.67C196.685 185.185 196.555 184.578 196.555 183.85V179.58H197.899V183.696C197.899 184.424 198.071 184.97 198.417 185.334C198.771 185.698 199.266 185.88 199.901 185.88C200.367 185.88 200.773 185.787 201.119 185.6C201.464 185.404 201.73 185.124 201.917 184.76C202.103 184.387 202.197 183.939 202.197 183.416V179.58H203.541V187H202.267V184.998L202.477 185.53C202.234 186.025 201.87 186.407 201.385 186.678C200.899 186.949 200.353 187.084 199.747 187.084ZM206.099 187V179.58H207.387V181.596L207.261 181.092C207.467 180.579 207.812 180.187 208.297 179.916C208.783 179.645 209.38 179.51 210.089 179.51V180.812C210.033 180.803 209.977 180.798 209.921 180.798C209.875 180.798 209.828 180.798 209.781 180.798C209.063 180.798 208.493 181.013 208.073 181.442C207.653 181.871 207.443 182.492 207.443 183.304V187H206.099ZM215.797 187V177.2H219.619C220.478 177.2 221.21 177.335 221.817 177.606C222.424 177.877 222.89 178.269 223.217 178.782C223.544 179.295 223.707 179.907 223.707 180.616C223.707 181.325 223.544 181.937 223.217 182.45C222.89 182.954 222.424 183.346 221.817 183.626C221.21 183.897 220.478 184.032 219.619 184.032H216.567L217.197 183.374V187H215.797ZM217.197 183.514L216.567 182.814H219.577C220.473 182.814 221.15 182.623 221.607 182.24C222.074 181.857 222.307 181.316 222.307 180.616C222.307 179.916 222.074 179.375 221.607 178.992C221.15 178.609 220.473 178.418 219.577 178.418H216.567L217.197 177.718V183.514ZM225.764 187V177.2H227.164V187H225.764ZM230.098 187V177.2H231.246L237.728 185.25H237.126V177.2H238.526V187H237.378L230.896 178.95H231.498V187H230.098ZM245.023 187V179.58H246.367V187H245.023ZM245.695 178.152C245.434 178.152 245.214 178.068 245.037 177.9C244.869 177.732 244.785 177.527 244.785 177.284C244.785 177.032 244.869 176.822 245.037 176.654C245.214 176.486 245.434 176.402 245.695 176.402C245.956 176.402 246.171 176.486 246.339 176.654C246.516 176.813 246.605 177.013 246.605 177.256C246.605 177.508 246.521 177.723 246.353 177.9C246.185 178.068 245.966 178.152 245.695 178.152ZM252.895 179.51C253.502 179.51 254.034 179.627 254.491 179.86C254.958 180.093 255.322 180.448 255.583 180.924C255.845 181.4 255.975 182.002 255.975 182.73V187H254.631V182.884C254.631 182.165 254.454 181.624 254.099 181.26C253.754 180.896 253.264 180.714 252.629 180.714C252.153 180.714 251.738 180.807 251.383 180.994C251.029 181.181 250.753 181.456 250.557 181.82C250.371 182.184 250.277 182.637 250.277 183.178V187H248.933V179.58H250.221V181.582L250.011 181.05C250.254 180.565 250.627 180.187 251.131 179.916C251.635 179.645 252.223 179.51 252.895 179.51ZM265.4 187.084C264.654 187.084 263.991 186.921 263.412 186.594C262.834 186.267 262.376 185.819 262.04 185.25C261.704 184.671 261.536 184.018 261.536 183.29C261.536 182.553 261.704 181.899 262.04 181.33C262.376 180.761 262.834 180.317 263.412 180C263.991 179.673 264.654 179.51 265.4 179.51C266.138 179.51 266.796 179.673 267.374 180C267.962 180.317 268.42 180.761 268.746 181.33C269.082 181.89 269.25 182.543 269.25 183.29C269.25 184.027 269.082 184.681 268.746 185.25C268.42 185.819 267.962 186.267 267.374 186.594C266.796 186.921 266.138 187.084 265.4 187.084ZM265.4 185.908C265.876 185.908 266.301 185.801 266.674 185.586C267.057 185.371 267.356 185.068 267.57 184.676C267.785 184.275 267.892 183.813 267.892 183.29C267.892 182.758 267.785 182.301 267.57 181.918C267.356 181.526 267.057 181.223 266.674 181.008C266.301 180.793 265.876 180.686 265.4 180.686C264.924 180.686 264.5 180.793 264.126 181.008C263.753 181.223 263.454 181.526 263.23 181.918C263.006 182.301 262.894 182.758 262.894 183.29C262.894 183.813 263.006 184.275 263.23 184.676C263.454 185.068 263.753 185.371 264.126 185.586C264.5 185.801 264.924 185.908 265.4 185.908ZM271.109 187V179.58H272.397V181.596L272.271 181.092C272.476 180.579 272.822 180.187 273.307 179.916C273.792 179.645 274.39 179.51 275.099 179.51V180.812C275.043 180.803 274.987 180.798 274.931 180.798C274.884 180.798 274.838 180.798 274.791 180.798C274.072 180.798 273.503 181.013 273.083 181.442C272.663 181.871 272.453 182.492 272.453 183.304V187H271.109ZM279.753 187.084C279.034 187.084 278.39 186.925 277.821 186.608C277.261 186.291 276.818 185.847 276.491 185.278C276.164 184.709 276.001 184.046 276.001 183.29C276.001 182.534 276.164 181.876 276.491 181.316C276.818 180.747 277.261 180.303 277.821 179.986C278.39 179.669 279.034 179.51 279.753 179.51C280.378 179.51 280.943 179.65 281.447 179.93C281.951 180.21 282.352 180.63 282.651 181.19C282.959 181.75 283.113 182.45 283.113 183.29C283.113 184.13 282.964 184.83 282.665 185.39C282.376 185.95 281.979 186.375 281.475 186.664C280.971 186.944 280.397 187.084 279.753 187.084ZM279.865 185.908C280.332 185.908 280.752 185.801 281.125 185.586C281.508 185.371 281.806 185.068 282.021 184.676C282.245 184.275 282.357 183.813 282.357 183.29C282.357 182.758 282.245 182.301 282.021 181.918C281.806 181.526 281.508 181.223 281.125 181.008C280.752 180.793 280.332 180.686 279.865 180.686C279.389 180.686 278.964 180.793 278.591 181.008C278.218 181.223 277.919 181.526 277.695 181.918C277.471 182.301 277.359 182.758 277.359 183.29C277.359 183.813 277.471 184.275 277.695 184.676C277.919 185.068 278.218 185.371 278.591 185.586C278.964 185.801 279.389 185.908 279.865 185.908ZM282.399 187V184.998L282.483 183.276L282.343 181.554V176.612H283.687V187H282.399ZM289.534 187.084C288.741 187.084 288.041 186.921 287.434 186.594C286.837 186.267 286.37 185.819 286.034 185.25C285.707 184.681 285.544 184.027 285.544 183.29C285.544 182.553 285.703 181.899 286.02 181.33C286.347 180.761 286.79 180.317 287.35 180C287.919 179.673 288.559 179.51 289.268 179.51C289.987 179.51 290.621 179.669 291.172 179.986C291.723 180.303 292.152 180.751 292.46 181.33C292.777 181.899 292.936 182.567 292.936 183.332C292.936 183.388 292.931 183.453 292.922 183.528C292.922 183.603 292.917 183.673 292.908 183.738H286.594V182.772H292.208L291.662 183.108C291.671 182.632 291.573 182.207 291.368 181.834C291.163 181.461 290.878 181.171 290.514 180.966C290.159 180.751 289.744 180.644 289.268 180.644C288.801 180.644 288.386 180.751 288.022 180.966C287.658 181.171 287.373 181.465 287.168 181.848C286.963 182.221 286.86 182.651 286.86 183.136V183.36C286.86 183.855 286.972 184.298 287.196 184.69C287.429 185.073 287.751 185.371 288.162 185.586C288.573 185.801 289.044 185.908 289.576 185.908C290.015 185.908 290.411 185.833 290.766 185.684C291.13 185.535 291.447 185.311 291.718 185.012L292.46 185.88C292.124 186.272 291.704 186.571 291.2 186.776C290.705 186.981 290.15 187.084 289.534 187.084ZM294.802 187V179.58H296.09V181.596L295.964 181.092C296.17 180.579 296.515 180.187 297 179.916C297.486 179.645 298.083 179.51 298.792 179.51V180.812C298.736 180.803 298.68 180.798 298.624 180.798C298.578 180.798 298.531 180.798 298.484 180.798C297.766 180.798 297.196 181.013 296.776 181.442C296.356 181.871 296.146 182.492 296.146 183.304V187H294.802ZM306.852 187.084C306.106 187.084 305.527 186.883 305.116 186.482C304.706 186.081 304.5 185.507 304.5 184.76V177.956H305.844V184.704C305.844 185.105 305.942 185.413 306.138 185.628C306.344 185.843 306.633 185.95 307.006 185.95C307.426 185.95 307.776 185.833 308.056 185.6L308.476 186.566C308.271 186.743 308.024 186.874 307.734 186.958C307.454 187.042 307.16 187.084 306.852 187.084ZM303.24 180.686V179.58H307.972V180.686H303.24ZM313.033 187.084C312.286 187.084 311.624 186.921 311.045 186.594C310.466 186.267 310.009 185.819 309.673 185.25C309.337 184.671 309.169 184.018 309.169 183.29C309.169 182.553 309.337 181.899 309.673 181.33C310.009 180.761 310.466 180.317 311.045 180C311.624 179.673 312.286 179.51 313.033 179.51C313.77 179.51 314.428 179.673 315.007 180C315.595 180.317 316.052 180.761 316.379 181.33C316.715 181.89 316.883 182.543 316.883 183.29C316.883 184.027 316.715 184.681 316.379 185.25C316.052 185.819 315.595 186.267 315.007 186.594C314.428 186.921 313.77 187.084 313.033 187.084ZM313.033 185.908C313.509 185.908 313.934 185.801 314.307 185.586C314.69 185.371 314.988 185.068 315.203 184.676C315.418 184.275 315.525 183.813 315.525 183.29C315.525 182.758 315.418 182.301 315.203 181.918C314.988 181.526 314.69 181.223 314.307 181.008C313.934 180.793 313.509 180.686 313.033 180.686C312.557 180.686 312.132 180.793 311.759 181.008C311.386 181.223 311.087 181.526 310.863 181.918C310.639 182.301 310.527 182.758 310.527 183.29C310.527 183.813 310.639 184.275 310.863 184.676C311.087 185.068 311.386 185.371 311.759 185.586C312.132 185.801 312.557 185.908 313.033 185.908ZM327.108 187V185.432L327.038 185.138V182.464C327.038 181.895 326.87 181.456 326.534 181.148C326.207 180.831 325.712 180.672 325.05 180.672C324.611 180.672 324.182 180.747 323.762 180.896C323.342 181.036 322.987 181.227 322.698 181.47L322.138 180.462C322.52 180.154 322.978 179.921 323.51 179.762C324.051 179.594 324.616 179.51 325.204 179.51C326.221 179.51 327.005 179.757 327.556 180.252C328.106 180.747 328.382 181.503 328.382 182.52V187H327.108ZM324.672 187.084C324.121 187.084 323.636 186.991 323.216 186.804C322.805 186.617 322.488 186.361 322.264 186.034C322.04 185.698 321.928 185.32 321.928 184.9C321.928 184.499 322.021 184.135 322.208 183.808C322.404 183.481 322.716 183.22 323.146 183.024C323.584 182.828 324.172 182.73 324.91 182.73H327.262V183.696H324.966C324.294 183.696 323.841 183.808 323.608 184.032C323.374 184.256 323.258 184.527 323.258 184.844C323.258 185.208 323.402 185.502 323.692 185.726C323.981 185.941 324.382 186.048 324.896 186.048C325.4 186.048 325.838 185.936 326.212 185.712C326.594 185.488 326.87 185.161 327.038 184.732L327.304 185.656C327.126 186.095 326.814 186.445 326.366 186.706C325.918 186.958 325.353 187.084 324.672 187.084ZM334.103 187.084C333.347 187.084 332.67 186.921 332.073 186.594C331.485 186.267 331.023 185.819 330.687 185.25C330.351 184.681 330.183 184.027 330.183 183.29C330.183 182.553 330.351 181.899 330.687 181.33C331.023 180.761 331.485 180.317 332.073 180C332.67 179.673 333.347 179.51 334.103 179.51C334.775 179.51 335.372 179.645 335.895 179.916C336.427 180.177 336.837 180.569 337.127 181.092L336.105 181.75C335.862 181.386 335.563 181.12 335.209 180.952C334.863 180.775 334.49 180.686 334.089 180.686C333.603 180.686 333.169 180.793 332.787 181.008C332.404 181.223 332.101 181.526 331.877 181.918C331.653 182.301 331.541 182.758 331.541 183.29C331.541 183.822 331.653 184.284 331.877 184.676C332.101 185.068 332.404 185.371 332.787 185.586C333.169 185.801 333.603 185.908 334.089 185.908C334.49 185.908 334.863 185.824 335.209 185.656C335.563 185.479 335.862 185.208 336.105 184.844L337.127 185.488C336.837 186.001 336.427 186.398 335.895 186.678C335.372 186.949 334.775 187.084 334.103 187.084ZM341.991 187.084C341.235 187.084 340.559 186.921 339.961 186.594C339.373 186.267 338.911 185.819 338.575 185.25C338.239 184.681 338.071 184.027 338.071 183.29C338.071 182.553 338.239 181.899 338.575 181.33C338.911 180.761 339.373 180.317 339.961 180C340.559 179.673 341.235 179.51 341.991 179.51C342.663 179.51 343.261 179.645 343.783 179.916C344.315 180.177 344.726 180.569 345.015 181.092L343.993 181.75C343.751 181.386 343.452 181.12 343.097 180.952C342.752 180.775 342.379 180.686 341.977 180.686C341.492 180.686 341.058 180.793 340.675 181.008C340.293 181.223 339.989 181.526 339.765 181.918C339.541 182.301 339.429 182.758 339.429 183.29C339.429 183.822 339.541 184.284 339.765 184.676C339.989 185.068 340.293 185.371 340.675 185.586C341.058 185.801 341.492 185.908 341.977 185.908C342.379 185.908 342.752 185.824 343.097 185.656C343.452 185.479 343.751 185.208 343.993 184.844L345.015 185.488C344.726 186.001 344.315 186.398 343.783 186.678C343.261 186.949 342.663 187.084 341.991 187.084ZM349.95 187.084C349.157 187.084 348.457 186.921 347.85 186.594C347.253 186.267 346.786 185.819 346.45 185.25C346.123 184.681 345.96 184.027 345.96 183.29C345.96 182.553 346.119 181.899 346.436 181.33C346.763 180.761 347.206 180.317 347.766 180C348.335 179.673 348.975 179.51 349.684 179.51C350.403 179.51 351.037 179.669 351.588 179.986C352.139 180.303 352.568 180.751 352.876 181.33C353.193 181.899 353.352 182.567 353.352 183.332C353.352 183.388 353.347 183.453 353.338 183.528C353.338 183.603 353.333 183.673 353.324 183.738H347.01V182.772H352.624L352.078 183.108C352.087 182.632 351.989 182.207 351.784 181.834C351.579 181.461 351.294 181.171 350.93 180.966C350.575 180.751 350.16 180.644 349.684 180.644C349.217 180.644 348.802 180.751 348.438 180.966C348.074 181.171 347.789 181.465 347.584 181.848C347.379 182.221 347.276 182.651 347.276 183.136V183.36C347.276 183.855 347.388 184.298 347.612 184.69C347.845 185.073 348.167 185.371 348.578 185.586C348.989 185.801 349.46 185.908 349.992 185.908C350.431 185.908 350.827 185.833 351.182 185.684C351.546 185.535 351.863 185.311 352.134 185.012L352.876 185.88C352.54 186.272 352.12 186.571 351.616 186.776C351.121 186.981 350.566 187.084 349.95 187.084ZM357.346 187.084C356.73 187.084 356.142 187 355.582 186.832C355.032 186.664 354.598 186.459 354.28 186.216L354.84 185.152C355.158 185.367 355.55 185.549 356.016 185.698C356.483 185.847 356.959 185.922 357.444 185.922C358.07 185.922 358.518 185.833 358.788 185.656C359.068 185.479 359.208 185.231 359.208 184.914C359.208 184.681 359.124 184.499 358.956 184.368C358.788 184.237 358.564 184.139 358.284 184.074C358.014 184.009 357.71 183.953 357.374 183.906C357.038 183.85 356.702 183.785 356.366 183.71C356.03 183.626 355.722 183.514 355.442 183.374C355.162 183.225 354.938 183.024 354.77 182.772C354.602 182.511 354.518 182.165 354.518 181.736C354.518 181.288 354.644 180.896 354.896 180.56C355.148 180.224 355.503 179.967 355.96 179.79C356.427 179.603 356.978 179.51 357.612 179.51C358.098 179.51 358.588 179.571 359.082 179.692C359.586 179.804 359.997 179.967 360.314 180.182L359.74 181.246C359.404 181.022 359.054 180.868 358.69 180.784C358.326 180.7 357.962 180.658 357.598 180.658C357.01 180.658 356.572 180.756 356.282 180.952C355.993 181.139 355.848 181.381 355.848 181.68C355.848 181.932 355.932 182.128 356.1 182.268C356.278 182.399 356.502 182.501 356.772 182.576C357.052 182.651 357.36 182.716 357.696 182.772C358.032 182.819 358.368 182.884 358.704 182.968C359.04 183.043 359.344 183.15 359.614 183.29C359.894 183.43 360.118 183.626 360.286 183.878C360.464 184.13 360.552 184.466 360.552 184.886C360.552 185.334 360.422 185.721 360.16 186.048C359.899 186.375 359.53 186.631 359.054 186.818C358.578 186.995 358.009 187.084 357.346 187.084ZM364.36 187.084C363.744 187.084 363.156 187 362.596 186.832C362.045 186.664 361.611 186.459 361.294 186.216L361.854 185.152C362.171 185.367 362.563 185.549 363.03 185.698C363.497 185.847 363.973 185.922 364.458 185.922C365.083 185.922 365.531 185.833 365.802 185.656C366.082 185.479 366.222 185.231 366.222 184.914C366.222 184.681 366.138 184.499 365.97 184.368C365.802 184.237 365.578 184.139 365.298 184.074C365.027 184.009 364.724 183.953 364.388 183.906C364.052 183.85 363.716 183.785 363.38 183.71C363.044 183.626 362.736 183.514 362.456 183.374C362.176 183.225 361.952 183.024 361.784 182.772C361.616 182.511 361.532 182.165 361.532 181.736C361.532 181.288 361.658 180.896 361.91 180.56C362.162 180.224 362.517 179.967 362.974 179.79C363.441 179.603 363.991 179.51 364.626 179.51C365.111 179.51 365.601 179.571 366.096 179.692C366.6 179.804 367.011 179.967 367.328 180.182L366.754 181.246C366.418 181.022 366.068 180.868 365.704 180.784C365.34 180.7 364.976 180.658 364.612 180.658C364.024 180.658 363.585 180.756 363.296 180.952C363.007 181.139 362.862 181.381 362.862 181.68C362.862 181.932 362.946 182.128 363.114 182.268C363.291 182.399 363.515 182.501 363.786 182.576C364.066 182.651 364.374 182.716 364.71 182.772C365.046 182.819 365.382 182.884 365.718 182.968C366.054 183.043 366.357 183.15 366.628 183.29C366.908 183.43 367.132 183.626 367.3 183.878C367.477 184.13 367.566 184.466 367.566 184.886C367.566 185.334 367.435 185.721 367.174 186.048C366.913 186.375 366.544 186.631 366.068 186.818C365.592 186.995 365.023 187.084 364.36 187.084ZM124.224 207V205.432L124.154 205.138V202.464C124.154 201.895 123.986 201.456 123.65 201.148C123.323 200.831 122.828 200.672 122.166 200.672C121.727 200.672 121.298 200.747 120.878 200.896C120.458 201.036 120.103 201.227 119.814 201.47L119.254 200.462C119.636 200.154 120.094 199.921 120.626 199.762C121.167 199.594 121.732 199.51 122.32 199.51C123.337 199.51 124.121 199.757 124.672 200.252C125.222 200.747 125.498 201.503 125.498 202.52V207H124.224ZM121.788 207.084C121.237 207.084 120.752 206.991 120.332 206.804C119.921 206.617 119.604 206.361 119.38 206.034C119.156 205.698 119.044 205.32 119.044 204.9C119.044 204.499 119.137 204.135 119.324 203.808C119.52 203.481 119.832 203.22 120.262 203.024C120.7 202.828 121.288 202.73 122.026 202.73H124.378V203.696H122.082C121.41 203.696 120.957 203.808 120.724 204.032C120.49 204.256 120.374 204.527 120.374 204.844C120.374 205.208 120.518 205.502 120.808 205.726C121.097 205.941 121.498 206.048 122.012 206.048C122.516 206.048 122.954 205.936 123.328 205.712C123.71 205.488 123.986 205.161 124.154 204.732L124.42 205.656C124.242 206.095 123.93 206.445 123.482 206.706C123.034 206.958 122.469 207.084 121.788 207.084ZM131.219 207.084C130.463 207.084 129.786 206.921 129.189 206.594C128.601 206.267 128.139 205.819 127.803 205.25C127.467 204.681 127.299 204.027 127.299 203.29C127.299 202.553 127.467 201.899 127.803 201.33C128.139 200.761 128.601 200.317 129.189 200C129.786 199.673 130.463 199.51 131.219 199.51C131.891 199.51 132.488 199.645 133.011 199.916C133.543 200.177 133.954 200.569 134.243 201.092L133.221 201.75C132.978 201.386 132.68 201.12 132.325 200.952C131.98 200.775 131.606 200.686 131.205 200.686C130.72 200.686 130.286 200.793 129.903 201.008C129.52 201.223 129.217 201.526 128.993 201.918C128.769 202.301 128.657 202.758 128.657 203.29C128.657 203.822 128.769 204.284 128.993 204.676C129.217 205.068 129.52 205.371 129.903 205.586C130.286 205.801 130.72 205.908 131.205 205.908C131.606 205.908 131.98 205.824 132.325 205.656C132.68 205.479 132.978 205.208 133.221 204.844L134.243 205.488C133.954 206.001 133.543 206.398 133.011 206.678C132.488 206.949 131.891 207.084 131.219 207.084ZM139.108 207.084C138.352 207.084 137.675 206.921 137.078 206.594C136.49 206.267 136.028 205.819 135.692 205.25C135.356 204.681 135.188 204.027 135.188 203.29C135.188 202.553 135.356 201.899 135.692 201.33C136.028 200.761 136.49 200.317 137.078 200C137.675 199.673 138.352 199.51 139.108 199.51C139.78 199.51 140.377 199.645 140.9 199.916C141.432 200.177 141.842 200.569 142.132 201.092L141.11 201.75C140.867 201.386 140.568 201.12 140.214 200.952C139.868 200.775 139.495 200.686 139.094 200.686C138.608 200.686 138.174 200.793 137.792 201.008C137.409 201.223 137.106 201.526 136.882 201.918C136.658 202.301 136.546 202.758 136.546 203.29C136.546 203.822 136.658 204.284 136.882 204.676C137.106 205.068 137.409 205.371 137.792 205.586C138.174 205.801 138.608 205.908 139.094 205.908C139.495 205.908 139.868 205.824 140.214 205.656C140.568 205.479 140.867 205.208 141.11 204.844L142.132 205.488C141.842 206.001 141.432 206.398 140.9 206.678C140.377 206.949 139.78 207.084 139.108 207.084ZM146.94 207.084C146.194 207.084 145.531 206.921 144.952 206.594C144.374 206.267 143.916 205.819 143.58 205.25C143.244 204.671 143.076 204.018 143.076 203.29C143.076 202.553 143.244 201.899 143.58 201.33C143.916 200.761 144.374 200.317 144.952 200C145.531 199.673 146.194 199.51 146.94 199.51C147.678 199.51 148.336 199.673 148.914 200C149.502 200.317 149.96 200.761 150.286 201.33C150.622 201.89 150.79 202.543 150.79 203.29C150.79 204.027 150.622 204.681 150.286 205.25C149.96 205.819 149.502 206.267 148.914 206.594C148.336 206.921 147.678 207.084 146.94 207.084ZM146.94 205.908C147.416 205.908 147.841 205.801 148.214 205.586C148.597 205.371 148.896 205.068 149.11 204.676C149.325 204.275 149.432 203.813 149.432 203.29C149.432 202.758 149.325 202.301 149.11 201.918C148.896 201.526 148.597 201.223 148.214 201.008C147.841 200.793 147.416 200.686 146.94 200.686C146.464 200.686 146.04 200.793 145.666 201.008C145.293 201.223 144.994 201.526 144.77 201.918C144.546 202.301 144.434 202.758 144.434 203.29C144.434 203.813 144.546 204.275 144.77 204.676C144.994 205.068 145.293 205.371 145.666 205.586C146.04 205.801 146.464 205.908 146.94 205.908ZM155.771 207.084C155.136 207.084 154.576 206.967 154.091 206.734C153.615 206.501 153.242 206.146 152.971 205.67C152.71 205.185 152.579 204.578 152.579 203.85V199.58H153.923V203.696C153.923 204.424 154.096 204.97 154.441 205.334C154.796 205.698 155.29 205.88 155.925 205.88C156.392 205.88 156.798 205.787 157.143 205.6C157.488 205.404 157.754 205.124 157.941 204.76C158.128 204.387 158.221 203.939 158.221 203.416V199.58H159.565V207H158.291V204.998L158.501 205.53C158.258 206.025 157.894 206.407 157.409 206.678C156.924 206.949 156.378 207.084 155.771 207.084ZM166.086 199.51C166.692 199.51 167.224 199.627 167.682 199.86C168.148 200.093 168.512 200.448 168.774 200.924C169.035 201.4 169.166 202.002 169.166 202.73V207H167.822V202.884C167.822 202.165 167.644 201.624 167.29 201.26C166.944 200.896 166.454 200.714 165.82 200.714C165.344 200.714 164.928 200.807 164.574 200.994C164.219 201.181 163.944 201.456 163.748 201.82C163.561 202.184 163.468 202.637 163.468 203.178V207H162.124V199.58H163.412V201.582L163.202 201.05C163.444 200.565 163.818 200.187 164.322 199.916C164.826 199.645 165.414 199.51 166.086 199.51ZM174.201 207.084C173.454 207.084 172.876 206.883 172.465 206.482C172.054 206.081 171.849 205.507 171.849 204.76V197.956H173.193V204.704C173.193 205.105 173.291 205.413 173.487 205.628C173.692 205.843 173.982 205.95 174.355 205.95C174.775 205.95 175.125 205.833 175.405 205.6L175.825 206.566C175.62 206.743 175.372 206.874 175.083 206.958C174.803 207.042 174.509 207.084 174.201 207.084ZM170.589 200.686V199.58H175.321V200.686H170.589ZM190.492 199.51C191.089 199.51 191.616 199.627 192.074 199.86C192.531 200.093 192.886 200.448 193.138 200.924C193.399 201.4 193.53 202.002 193.53 202.73V207H192.186V202.884C192.186 202.165 192.018 201.624 191.682 201.26C191.346 200.896 190.874 200.714 190.268 200.714C189.82 200.714 189.428 200.807 189.092 200.994C188.756 201.181 188.494 201.456 188.308 201.82C188.13 202.184 188.042 202.637 188.042 203.178V207H186.698V202.884C186.698 202.165 186.53 201.624 186.194 201.26C185.867 200.896 185.396 200.714 184.78 200.714C184.341 200.714 183.954 200.807 183.618 200.994C183.282 201.181 183.02 201.456 182.834 201.82C182.647 202.184 182.554 202.637 182.554 203.178V207H181.21V199.58H182.498V201.554L182.288 201.05C182.521 200.565 182.88 200.187 183.366 199.916C183.851 199.645 184.416 199.51 185.06 199.51C185.769 199.51 186.38 199.687 186.894 200.042C187.407 200.387 187.743 200.915 187.902 201.624L187.356 201.4C187.58 200.831 187.972 200.373 188.532 200.028C189.092 199.683 189.745 199.51 190.492 199.51ZM200.609 207V205.432L200.539 205.138V202.464C200.539 201.895 200.371 201.456 200.035 201.148C199.708 200.831 199.213 200.672 198.551 200.672C198.112 200.672 197.683 200.747 197.263 200.896C196.843 201.036 196.488 201.227 196.199 201.47L195.639 200.462C196.021 200.154 196.479 199.921 197.011 199.762C197.552 199.594 198.117 199.51 198.705 199.51C199.722 199.51 200.506 199.757 201.057 200.252C201.607 200.747 201.883 201.503 201.883 202.52V207H200.609ZM198.173 207.084C197.622 207.084 197.137 206.991 196.717 206.804C196.306 206.617 195.989 206.361 195.765 206.034C195.541 205.698 195.429 205.32 195.429 204.9C195.429 204.499 195.522 204.135 195.709 203.808C195.905 203.481 196.217 203.22 196.647 203.024C197.085 202.828 197.673 202.73 198.411 202.73H200.763V203.696H198.467C197.795 203.696 197.342 203.808 197.109 204.032C196.875 204.256 196.759 204.527 196.759 204.844C196.759 205.208 196.903 205.502 197.193 205.726C197.482 205.941 197.883 206.048 198.397 206.048C198.901 206.048 199.339 205.936 199.713 205.712C200.095 205.488 200.371 205.161 200.539 204.732L200.805 205.656C200.627 206.095 200.315 206.445 199.867 206.706C199.419 206.958 198.854 207.084 198.173 207.084ZM208.332 199.51C208.938 199.51 209.47 199.627 209.928 199.86C210.394 200.093 210.758 200.448 211.02 200.924C211.281 201.4 211.412 202.002 211.412 202.73V207H210.068V202.884C210.068 202.165 209.89 201.624 209.536 201.26C209.19 200.896 208.7 200.714 208.066 200.714C207.59 200.714 207.174 200.807 206.82 200.994C206.465 201.181 206.19 201.456 205.994 201.82C205.807 202.184 205.714 202.637 205.714 203.178V207H204.37V199.58H205.658V201.582L205.448 201.05C205.69 200.565 206.064 200.187 206.568 199.916C207.072 199.645 207.66 199.51 208.332 199.51ZM218.505 207V205.432L218.435 205.138V202.464C218.435 201.895 218.267 201.456 217.931 201.148C217.604 200.831 217.11 200.672 216.447 200.672C216.008 200.672 215.579 200.747 215.159 200.896C214.739 201.036 214.384 201.227 214.095 201.47L213.535 200.462C213.918 200.154 214.375 199.921 214.907 199.762C215.448 199.594 216.013 199.51 216.601 199.51C217.618 199.51 218.402 199.757 218.953 200.252C219.504 200.747 219.779 201.503 219.779 202.52V207H218.505ZM216.069 207.084C215.518 207.084 215.033 206.991 214.613 206.804C214.202 206.617 213.885 206.361 213.661 206.034C213.437 205.698 213.325 205.32 213.325 204.9C213.325 204.499 213.418 204.135 213.605 203.808C213.801 203.481 214.114 203.22 214.543 203.024C214.982 202.828 215.57 202.73 216.307 202.73H218.659V203.696H216.363C215.691 203.696 215.238 203.808 215.005 204.032C214.772 204.256 214.655 204.527 214.655 204.844C214.655 205.208 214.8 205.502 215.089 205.726C215.378 205.941 215.78 206.048 216.293 206.048C216.797 206.048 217.236 205.936 217.609 205.712C217.992 205.488 218.267 205.161 218.435 204.732L218.701 205.656C218.524 206.095 218.211 206.445 217.763 206.706C217.315 206.958 216.75 207.084 216.069 207.084ZM225.514 209.8C224.833 209.8 224.17 209.702 223.526 209.506C222.892 209.319 222.374 209.049 221.972 208.694L222.616 207.658C222.962 207.957 223.386 208.19 223.89 208.358C224.394 208.535 224.922 208.624 225.472 208.624C226.35 208.624 226.994 208.419 227.404 208.008C227.815 207.597 228.02 206.972 228.02 206.132V204.564L228.16 203.094L228.09 201.61V199.58H229.364V205.992C229.364 207.299 229.038 208.26 228.384 208.876C227.731 209.492 226.774 209.8 225.514 209.8ZM225.346 206.692C224.628 206.692 223.984 206.543 223.414 206.244C222.854 205.936 222.406 205.511 222.07 204.97C221.744 204.429 221.58 203.803 221.58 203.094C221.58 202.375 221.744 201.75 222.07 201.218C222.406 200.677 222.854 200.257 223.414 199.958C223.984 199.659 224.628 199.51 225.346 199.51C225.981 199.51 226.56 199.641 227.082 199.902C227.605 200.154 228.02 200.546 228.328 201.078C228.646 201.61 228.804 202.282 228.804 203.094C228.804 203.897 228.646 204.564 228.328 205.096C228.02 205.628 227.605 206.029 227.082 206.3C226.56 206.561 225.981 206.692 225.346 206.692ZM225.5 205.516C225.995 205.516 226.434 205.413 226.816 205.208C227.199 205.003 227.498 204.718 227.712 204.354C227.936 203.99 228.048 203.57 228.048 203.094C228.048 202.618 227.936 202.198 227.712 201.834C227.498 201.47 227.199 201.19 226.816 200.994C226.434 200.789 225.995 200.686 225.5 200.686C225.006 200.686 224.562 200.789 224.17 200.994C223.788 201.19 223.484 201.47 223.26 201.834C223.046 202.198 222.938 202.618 222.938 203.094C222.938 203.57 223.046 203.99 223.26 204.354C223.484 204.718 223.788 205.003 224.17 205.208C224.562 205.413 225.006 205.516 225.5 205.516ZM235.236 207.084C234.443 207.084 233.743 206.921 233.136 206.594C232.539 206.267 232.072 205.819 231.736 205.25C231.41 204.681 231.246 204.027 231.246 203.29C231.246 202.553 231.405 201.899 231.722 201.33C232.049 200.761 232.492 200.317 233.052 200C233.622 199.673 234.261 199.51 234.97 199.51C235.689 199.51 236.324 199.669 236.874 199.986C237.425 200.303 237.854 200.751 238.162 201.33C238.48 201.899 238.638 202.567 238.638 203.332C238.638 203.388 238.634 203.453 238.624 203.528C238.624 203.603 238.62 203.673 238.61 203.738H232.296V202.772H237.91L237.364 203.108C237.374 202.632 237.276 202.207 237.07 201.834C236.865 201.461 236.58 201.171 236.216 200.966C235.862 200.751 235.446 200.644 234.97 200.644C234.504 200.644 234.088 200.751 233.724 200.966C233.36 201.171 233.076 201.465 232.87 201.848C232.665 202.221 232.562 202.651 232.562 203.136V203.36C232.562 203.855 232.674 204.298 232.898 204.69C233.132 205.073 233.454 205.371 233.864 205.586C234.275 205.801 234.746 205.908 235.278 205.908C235.717 205.908 236.114 205.833 236.468 205.684C236.832 205.535 237.15 205.311 237.42 205.012L238.162 205.88C237.826 206.272 237.406 206.571 236.902 206.776C236.408 206.981 235.852 207.084 235.236 207.084ZM249.786 199.51C250.384 199.51 250.911 199.627 251.368 199.86C251.826 200.093 252.18 200.448 252.432 200.924C252.694 201.4 252.824 202.002 252.824 202.73V207H251.48V202.884C251.48 202.165 251.312 201.624 250.976 201.26C250.64 200.896 250.169 200.714 249.562 200.714C249.114 200.714 248.722 200.807 248.386 200.994C248.05 201.181 247.789 201.456 247.602 201.82C247.425 202.184 247.336 202.637 247.336 203.178V207H245.992V202.884C245.992 202.165 245.824 201.624 245.488 201.26C245.162 200.896 244.69 200.714 244.074 200.714C243.636 200.714 243.248 200.807 242.912 200.994C242.576 201.181 242.315 201.456 242.128 201.82C241.942 202.184 241.848 202.637 241.848 203.178V207H240.504V199.58H241.792V201.554L241.582 201.05C241.816 200.565 242.175 200.187 242.66 199.916C243.146 199.645 243.71 199.51 244.354 199.51C245.064 199.51 245.675 199.687 246.188 200.042C246.702 200.387 247.038 200.915 247.196 201.624L246.65 201.4C246.874 200.831 247.266 200.373 247.826 200.028C248.386 199.683 249.04 199.51 249.786 199.51ZM258.601 207.084C257.808 207.084 257.108 206.921 256.501 206.594C255.904 206.267 255.437 205.819 255.101 205.25C254.775 204.681 254.611 204.027 254.611 203.29C254.611 202.553 254.77 201.899 255.087 201.33C255.414 200.761 255.857 200.317 256.417 200C256.987 199.673 257.626 199.51 258.335 199.51C259.054 199.51 259.689 199.669 260.239 199.986C260.79 200.303 261.219 200.751 261.527 201.33C261.845 201.899 262.003 202.567 262.003 203.332C262.003 203.388 261.999 203.453 261.989 203.528C261.989 203.603 261.985 203.673 261.975 203.738H255.661V202.772H261.275L260.729 203.108C260.739 202.632 260.641 202.207 260.435 201.834C260.23 201.461 259.945 201.171 259.581 200.966C259.227 200.751 258.811 200.644 258.335 200.644C257.869 200.644 257.453 200.751 257.089 200.966C256.725 201.171 256.441 201.465 256.235 201.848C256.03 202.221 255.927 202.651 255.927 203.136V203.36C255.927 203.855 256.039 204.298 256.263 204.69C256.497 205.073 256.819 205.371 257.229 205.586C257.64 205.801 258.111 205.908 258.643 205.908C259.082 205.908 259.479 205.833 259.833 205.684C260.197 205.535 260.515 205.311 260.785 205.012L261.527 205.88C261.191 206.272 260.771 206.571 260.267 206.776C259.773 206.981 259.217 207.084 258.601 207.084ZM267.832 199.51C268.438 199.51 268.97 199.627 269.428 199.86C269.894 200.093 270.258 200.448 270.52 200.924C270.781 201.4 270.912 202.002 270.912 202.73V207H269.568V202.884C269.568 202.165 269.39 201.624 269.036 201.26C268.69 200.896 268.2 200.714 267.566 200.714C267.09 200.714 266.674 200.807 266.32 200.994C265.965 201.181 265.69 201.456 265.494 201.82C265.307 202.184 265.214 202.637 265.214 203.178V207H263.87V199.58H265.158V201.582L264.948 201.05C265.19 200.565 265.564 200.187 266.068 199.916C266.572 199.645 267.16 199.51 267.832 199.51ZM275.947 207.084C275.2 207.084 274.622 206.883 274.211 206.482C273.8 206.081 273.595 205.507 273.595 204.76V197.956H274.939V204.704C274.939 205.105 275.037 205.413 275.233 205.628C275.438 205.843 275.728 205.95 276.101 205.95C276.521 205.95 276.871 205.833 277.151 205.6L277.571 206.566C277.366 206.743 277.118 206.874 276.829 206.958C276.549 207.042 276.255 207.084 275.947 207.084ZM272.335 200.686V199.58H277.067V200.686H272.335ZM285.084 207.084C284.468 207.084 283.88 207 283.32 206.832C282.769 206.664 282.335 206.459 282.018 206.216L282.578 205.152C282.895 205.367 283.287 205.549 283.754 205.698C284.22 205.847 284.696 205.922 285.182 205.922C285.807 205.922 286.255 205.833 286.526 205.656C286.806 205.479 286.946 205.231 286.946 204.914C286.946 204.681 286.862 204.499 286.694 204.368C286.526 204.237 286.302 204.139 286.022 204.074C285.751 204.009 285.448 203.953 285.112 203.906C284.776 203.85 284.44 203.785 284.104 203.71C283.768 203.626 283.46 203.514 283.18 203.374C282.9 203.225 282.676 203.024 282.508 202.772C282.34 202.511 282.256 202.165 282.256 201.736C282.256 201.288 282.382 200.896 282.634 200.56C282.886 200.224 283.24 199.967 283.698 199.79C284.164 199.603 284.715 199.51 285.35 199.51C285.835 199.51 286.325 199.571 286.82 199.692C287.324 199.804 287.734 199.967 288.052 200.182L287.478 201.246C287.142 201.022 286.792 200.868 286.428 200.784C286.064 200.7 285.7 200.658 285.336 200.658C284.748 200.658 284.309 200.756 284.02 200.952C283.73 201.139 283.586 201.381 283.586 201.68C283.586 201.932 283.67 202.128 283.838 202.268C284.015 202.399 284.239 202.501 284.51 202.576C284.79 202.651 285.098 202.716 285.434 202.772C285.77 202.819 286.106 202.884 286.442 202.968C286.778 203.043 287.081 203.15 287.352 203.29C287.632 203.43 287.856 203.626 288.024 203.878C288.201 204.13 288.29 204.466 288.29 204.886C288.29 205.334 288.159 205.721 287.898 206.048C287.636 206.375 287.268 206.631 286.792 206.818C286.316 206.995 285.746 207.084 285.084 207.084ZM293.273 207.084C292.48 207.084 291.78 206.921 291.173 206.594C290.576 206.267 290.109 205.819 289.773 205.25C289.447 204.681 289.283 204.027 289.283 203.29C289.283 202.553 289.442 201.899 289.759 201.33C290.086 200.761 290.529 200.317 291.089 200C291.659 199.673 292.298 199.51 293.007 199.51C293.726 199.51 294.361 199.669 294.911 199.986C295.462 200.303 295.891 200.751 296.199 201.33C296.517 201.899 296.675 202.567 296.675 203.332C296.675 203.388 296.671 203.453 296.661 203.528C296.661 203.603 296.657 203.673 296.647 203.738H290.333V202.772H295.947L295.401 203.108C295.411 202.632 295.313 202.207 295.107 201.834C294.902 201.461 294.617 201.171 294.253 200.966C293.899 200.751 293.483 200.644 293.007 200.644C292.541 200.644 292.125 200.751 291.761 200.966C291.397 201.171 291.113 201.465 290.907 201.848C290.702 202.221 290.599 202.651 290.599 203.136V203.36C290.599 203.855 290.711 204.298 290.935 204.69C291.169 205.073 291.491 205.371 291.901 205.586C292.312 205.801 292.783 205.908 293.315 205.908C293.754 205.908 294.151 205.833 294.505 205.684C294.869 205.535 295.187 205.311 295.457 205.012L296.199 205.88C295.863 206.272 295.443 206.571 294.939 206.776C294.445 206.981 293.889 207.084 293.273 207.084ZM301.776 207.084C301.02 207.084 300.343 206.921 299.746 206.594C299.158 206.267 298.696 205.819 298.36 205.25C298.024 204.681 297.856 204.027 297.856 203.29C297.856 202.553 298.024 201.899 298.36 201.33C298.696 200.761 299.158 200.317 299.746 200C300.343 199.673 301.02 199.51 301.776 199.51C302.448 199.51 303.045 199.645 303.568 199.916C304.1 200.177 304.51 200.569 304.8 201.092L303.778 201.75C303.535 201.386 303.236 201.12 302.882 200.952C302.536 200.775 302.163 200.686 301.762 200.686C301.276 200.686 300.842 200.793 300.46 201.008C300.077 201.223 299.774 201.526 299.55 201.918C299.326 202.301 299.214 202.758 299.214 203.29C299.214 203.822 299.326 204.284 299.55 204.676C299.774 205.068 300.077 205.371 300.46 205.586C300.842 205.801 301.276 205.908 301.762 205.908C302.163 205.908 302.536 205.824 302.882 205.656C303.236 205.479 303.535 205.208 303.778 204.844L304.8 205.488C304.51 206.001 304.1 206.398 303.568 206.678C303.045 206.949 302.448 207.084 301.776 207.084ZM309.183 207.084C308.437 207.084 307.858 206.883 307.447 206.482C307.037 206.081 306.831 205.507 306.831 204.76V197.956H308.175V204.704C308.175 205.105 308.273 205.413 308.469 205.628C308.675 205.843 308.964 205.95 309.337 205.95C309.757 205.95 310.107 205.833 310.387 205.6L310.807 206.566C310.602 206.743 310.355 206.874 310.065 206.958C309.785 207.042 309.491 207.084 309.183 207.084ZM305.571 200.686V199.58H310.303V200.686H305.571ZM312.432 207V199.58H313.776V207H312.432ZM313.104 198.152C312.843 198.152 312.624 198.068 312.446 197.9C312.278 197.732 312.194 197.527 312.194 197.284C312.194 197.032 312.278 196.822 312.446 196.654C312.624 196.486 312.843 196.402 313.104 196.402C313.366 196.402 313.58 196.486 313.748 196.654C313.926 196.813 314.014 197.013 314.014 197.256C314.014 197.508 313.93 197.723 313.762 197.9C313.594 198.068 313.375 198.152 313.104 198.152ZM319.52 207.084C318.774 207.084 318.111 206.921 317.532 206.594C316.954 206.267 316.496 205.819 316.16 205.25C315.824 204.671 315.656 204.018 315.656 203.29C315.656 202.553 315.824 201.899 316.16 201.33C316.496 200.761 316.954 200.317 317.532 200C318.111 199.673 318.774 199.51 319.52 199.51C320.258 199.51 320.916 199.673 321.494 200C322.082 200.317 322.54 200.761 322.866 201.33C323.202 201.89 323.37 202.543 323.37 203.29C323.37 204.027 323.202 204.681 322.866 205.25C322.54 205.819 322.082 206.267 321.494 206.594C320.916 206.921 320.258 207.084 319.52 207.084ZM319.52 205.908C319.996 205.908 320.421 205.801 320.794 205.586C321.177 205.371 321.476 205.068 321.69 204.676C321.905 204.275 322.012 203.813 322.012 203.29C322.012 202.758 321.905 202.301 321.69 201.918C321.476 201.526 321.177 201.223 320.794 201.008C320.421 200.793 319.996 200.686 319.52 200.686C319.044 200.686 318.62 200.793 318.246 201.008C317.873 201.223 317.574 201.526 317.35 201.918C317.126 202.301 317.014 202.758 317.014 203.29C317.014 203.813 317.126 204.275 317.35 204.676C317.574 205.068 317.873 205.371 318.246 205.586C318.62 205.801 319.044 205.908 319.52 205.908ZM329.191 199.51C329.798 199.51 330.33 199.627 330.787 199.86C331.254 200.093 331.618 200.448 331.879 200.924C332.14 201.4 332.271 202.002 332.271 202.73V207H330.927V202.884C330.927 202.165 330.75 201.624 330.395 201.26C330.05 200.896 329.56 200.714 328.925 200.714C328.449 200.714 328.034 200.807 327.679 200.994C327.324 201.181 327.049 201.456 326.853 201.82C326.666 202.184 326.573 202.637 326.573 203.178V207H325.229V199.58H326.517V201.582L326.307 201.05C326.55 200.565 326.923 200.187 327.427 199.916C327.931 199.645 328.519 199.51 329.191 199.51ZM335.08 207.084C334.819 207.084 334.595 206.995 334.408 206.818C334.222 206.631 334.128 206.398 334.128 206.118C334.128 205.838 334.222 205.609 334.408 205.432C334.595 205.255 334.819 205.166 335.08 205.166C335.332 205.166 335.547 205.255 335.724 205.432C335.911 205.609 336.004 205.838 336.004 206.118C336.004 206.398 335.911 206.631 335.724 206.818C335.547 206.995 335.332 207.084 335.08 207.084Z" fill="#0D1C2E"/>
<g filter="url(#filter0_d_197_51314)">
<rect x="67" y="230" width="320" height="48" rx="6" fill="white"/>
<rect x="67.5" y="230.5" width="319" height="47" rx="5.5" stroke="#ECEBED"/>
</g>
<path d="M85.52 253.582H90.7V254.464H85.52V253.582ZM85.632 258.104H91.526V259H84.596V249.2H91.316V250.096H85.632V258.104ZM97.5032 251.58C98.1006 251.58 98.6232 251.697 99.0712 251.93C99.5286 252.154 99.8832 252.499 100.135 252.966C100.397 253.433 100.527 254.021 100.527 254.73V259H99.5332V254.828C99.5332 254.053 99.3372 253.47 98.9452 253.078C98.5626 252.677 98.0212 252.476 97.3212 252.476C96.7986 252.476 96.3412 252.583 95.9492 252.798C95.5666 253.003 95.2679 253.307 95.0532 253.708C94.8479 254.1 94.7452 254.576 94.7452 255.136V259H93.7512V251.65H94.7032V253.666L94.5492 253.288C94.7826 252.756 95.1559 252.341 95.6692 252.042C96.1826 251.734 96.7939 251.58 97.5032 251.58ZM105.536 259.07C104.846 259.07 104.314 258.883 103.94 258.51C103.567 258.137 103.38 257.609 103.38 256.928V250.026H104.374V256.872C104.374 257.301 104.482 257.633 104.696 257.866C104.92 258.099 105.238 258.216 105.648 258.216C106.087 258.216 106.451 258.09 106.74 257.838L107.09 258.552C106.894 258.729 106.656 258.86 106.376 258.944C106.106 259.028 105.826 259.07 105.536 259.07ZM102.064 252.476V251.65H106.614V252.476H102.064ZM111.762 259.07C110.997 259.07 110.325 258.911 109.746 258.594C109.167 258.267 108.715 257.824 108.388 257.264C108.061 256.695 107.898 256.046 107.898 255.318C107.898 254.59 108.052 253.946 108.36 253.386C108.677 252.826 109.107 252.387 109.648 252.07C110.199 251.743 110.815 251.58 111.496 251.58C112.187 251.58 112.798 251.739 113.33 252.056C113.871 252.364 114.296 252.803 114.604 253.372C114.912 253.932 115.066 254.581 115.066 255.318C115.066 255.365 115.061 255.416 115.052 255.472C115.052 255.519 115.052 255.57 115.052 255.626H108.654V254.884H114.52L114.128 255.178C114.128 254.646 114.011 254.175 113.778 253.764C113.554 253.344 113.246 253.017 112.854 252.784C112.462 252.551 112.009 252.434 111.496 252.434C110.992 252.434 110.539 252.551 110.138 252.784C109.737 253.017 109.424 253.344 109.2 253.764C108.976 254.184 108.864 254.665 108.864 255.206V255.36C108.864 255.92 108.985 256.415 109.228 256.844C109.48 257.264 109.825 257.595 110.264 257.838C110.712 258.071 111.221 258.188 111.79 258.188C112.238 258.188 112.653 258.109 113.036 257.95C113.428 257.791 113.764 257.549 114.044 257.222L114.604 257.866C114.277 258.258 113.867 258.557 113.372 258.762C112.887 258.967 112.35 259.07 111.762 259.07ZM117.089 259V251.65H118.041V253.652L117.943 253.302C118.148 252.742 118.494 252.317 118.979 252.028C119.464 251.729 120.066 251.58 120.785 251.58V252.546C120.748 252.546 120.71 252.546 120.673 252.546C120.636 252.537 120.598 252.532 120.561 252.532C119.786 252.532 119.18 252.77 118.741 253.246C118.302 253.713 118.083 254.38 118.083 255.248V259H117.089ZM126.582 259V249.2H130.25C131.081 249.2 131.795 249.335 132.392 249.606C132.99 249.867 133.447 250.25 133.764 250.754C134.091 251.249 134.254 251.851 134.254 252.56C134.254 253.251 134.091 253.848 133.764 254.352C133.447 254.847 132.99 255.229 132.392 255.5C131.795 255.771 131.081 255.906 130.25 255.906H127.156L127.618 255.416V259H126.582ZM127.618 255.5L127.156 254.996H130.222C131.202 254.996 131.944 254.786 132.448 254.366C132.962 253.937 133.218 253.335 133.218 252.56C133.218 251.776 132.962 251.169 132.448 250.74C131.944 250.311 131.202 250.096 130.222 250.096H127.156L127.618 249.606V255.5ZM136.494 259V249.2H137.53V259H136.494ZM140.719 259V249.2H141.573L148.335 257.712H147.887V249.2H148.909V259H148.055L141.307 250.488H141.755V259H140.719Z" fill="#3F3356"/>
<path fill-rule="evenodd" clip-rule="evenodd" d="M359 255.5C358.173 255.5 357.5 254.827 357.5 254C357.5 253.173 358.173 252.5 359 252.5C359.827 252.5 360.5 253.173 360.5 254C360.5 254.827 359.827 255.5 359 255.5ZM359 250.5C357.07 250.5 355.5 252.07 355.5 254C355.5 255.93 357.07 257.5 359 257.5C360.93 257.5 362.5 255.93 362.5 254C362.5 252.07 360.93 250.5 359 250.5ZM359.22 258.998C354.914 259.098 352.105 255.415 351.173 253.996C352.199 252.391 354.783 249.105 358.781 249.003C363.07 248.894 365.895 252.586 366.827 254.005C365.802 255.61 363.217 258.896 359.22 258.998ZM368.868 253.503C368.23 252.391 364.706 246.817 358.73 247.004C353.202 247.144 349.987 252.014 349.133 253.503C348.956 253.811 348.956 254.19 349.133 254.498C349.762 255.595 353.162 261 359.025 261C359.107 261 359.189 260.999 359.271 260.997C364.798 260.856 368.014 255.987 368.868 254.498C369.044 254.19 369.044 253.811 368.868 253.503Z" fill="#444348"/>
<mask id="mask1_197_51314" style="mask-type:luminance" maskUnits="userSpaceOnUse" x="349" y="246" width="20" height="15">
<path fill-rule="evenodd" clip-rule="evenodd" d="M359 255.5C358.173 255.5 357.5 254.827 357.5 254C357.5 253.173 358.173 252.5 359 252.5C359.827 252.5 360.5 253.173 360.5 254C360.5 254.827 359.827 255.5 359 255.5ZM359 250.5C357.07 250.5 355.5 252.07 355.5 254C355.5 255.93 357.07 257.5 359 257.5C360.93 257.5 362.5 255.93 362.5 254C362.5 252.07 360.93 250.5 359 250.5ZM359.22 258.998C354.914 259.098 352.105 255.415 351.173 253.996C352.199 252.391 354.783 249.105 358.781 249.003C363.07 248.894 365.895 252.586 366.827 254.005C365.802 255.61 363.217 258.896 359.22 258.998ZM368.868 253.503C368.23 252.391 364.706 246.817 358.73 247.004C353.202 247.144 349.987 252.014 349.133 253.503C348.956 253.811 348.956 254.19 349.133 254.498C349.762 255.595 353.162 261 359.025 261C359.107 261 359.189 260.999 359.271 260.997C364.798 260.856 368.014 255.987 368.868 254.498C369.044 254.19 369.044 253.811 368.868 253.503Z" fill="white"/>
</mask>
<g mask="url(#mask1_197_51314)">
</g>
<path d="M252.25 92.8335L248.417 96.6668M252.25 92.8335L241.708 103.375M241.708 103.375L247.458 109.125L254.167 102.417L248.417 96.6668M241.708 103.375L248.417 96.6668M233.831 111.253C234.821 112.229 235.607 113.392 236.146 114.674C236.684 115.955 236.964 117.331 236.969 118.721C236.973 120.111 236.703 121.489 236.173 122.774C235.643 124.06 234.864 125.228 233.881 126.211C232.898 127.194 231.73 127.973 230.445 128.502C229.159 129.032 227.782 129.303 226.392 129.298C225.001 129.293 223.626 129.014 222.344 128.475C221.062 127.937 219.9 127.15 218.923 126.161C217.003 124.172 215.94 121.509 215.964 118.745C215.988 115.981 217.097 113.338 219.051 111.383C221.006 109.428 223.65 108.32 226.414 108.296C229.178 108.272 231.841 109.334 233.829 111.255L233.831 111.253Z" stroke="#FFCF5C" stroke-width="4" stroke-linecap="round" stroke-linejoin="round"/>
<g clip-path="url(#clip0_197_51314)">
<rect x="138" y="348" width="177" height="40" rx="6" fill="#4156F6"/>
<path d="M203.141 374V362.8H205.285L211.893 370.864H210.852V362.8H213.413V374H211.285L204.661 365.936H205.701V374H203.141ZM218.446 367.312H223.838V369.328H218.446V367.312ZM218.638 371.92H224.734V374H216.062V362.8H224.526V364.88H218.638V371.92ZM225.407 374L230.223 367.36V369.248L225.615 362.8H228.559L231.743 367.296L230.511 367.312L233.647 362.8H236.463L231.887 369.136V367.28L236.735 374H233.743L230.447 369.248H231.631L228.383 374H225.407ZM239.945 374V364.912H236.361V362.8H246.121V364.912H242.537V374H239.945Z" fill="white"/>
</g>
<path d="M69.34 300.572H73.672V301.604H69.34V300.572ZM69.46 305H68.26V296.6H74.188V297.644H69.46V305ZM78.234 305.072C77.594 305.072 77.026 304.932 76.53 304.652C76.034 304.372 75.642 303.988 75.354 303.5C75.066 303.004 74.922 302.444 74.922 301.82C74.922 301.188 75.066 300.628 75.354 300.14C75.642 299.652 76.034 299.272 76.53 299C77.026 298.72 77.594 298.58 78.234 298.58C78.866 298.58 79.43 298.72 79.926 299C80.43 299.272 80.822 299.652 81.102 300.14C81.39 300.62 81.534 301.18 81.534 301.82C81.534 302.452 81.39 303.012 81.102 303.5C80.822 303.988 80.43 304.372 79.926 304.652C79.43 304.932 78.866 305.072 78.234 305.072ZM78.234 304.064C78.642 304.064 79.006 303.972 79.326 303.788C79.654 303.604 79.91 303.344 80.094 303.008C80.278 302.664 80.37 302.268 80.37 301.82C80.37 301.364 80.278 300.972 80.094 300.644C79.91 300.308 79.654 300.048 79.326 299.864C79.006 299.68 78.642 299.588 78.234 299.588C77.826 299.588 77.462 299.68 77.142 299.864C76.822 300.048 76.566 300.308 76.374 300.644C76.182 300.972 76.086 301.364 76.086 301.82C76.086 302.268 76.182 302.664 76.374 303.008C76.566 303.344 76.822 303.604 77.142 303.788C77.462 303.972 77.826 304.064 78.234 304.064ZM83.1272 305V298.64H84.2312V300.368L84.1232 299.936C84.2992 299.496 84.5952 299.16 85.0112 298.928C85.4272 298.696 85.9392 298.58 86.5472 298.58V299.696C86.4992 299.688 86.4512 299.684 86.4032 299.684C86.3632 299.684 86.3232 299.684 86.2832 299.684C85.6672 299.684 85.1792 299.868 84.8192 300.236C84.4592 300.604 84.2792 301.136 84.2792 301.832V305H83.1272ZM90.6924 307.4C90.1084 307.4 89.5404 307.316 88.9884 307.148C88.4444 306.988 88.0004 306.756 87.6564 306.452L88.2084 305.564C88.5044 305.82 88.8684 306.02 89.3004 306.164C89.7324 306.316 90.1844 306.392 90.6564 306.392C91.4084 306.392 91.9604 306.216 92.3124 305.864C92.6644 305.512 92.8404 304.976 92.8404 304.256V302.912L92.9604 301.652L92.9004 300.38V298.64H93.9924V304.136C93.9924 305.256 93.7124 306.08 93.1524 306.608C92.5924 307.136 91.7724 307.4 90.6924 307.4ZM90.5484 304.736C89.9324 304.736 89.3804 304.608 88.8924 304.352C88.4124 304.088 88.0284 303.724 87.7404 303.26C87.4604 302.796 87.3204 302.26 87.3204 301.652C87.3204 301.036 87.4604 300.5 87.7404 300.044C88.0284 299.58 88.4124 299.22 88.8924 298.964C89.3804 298.708 89.9324 298.58 90.5484 298.58C91.0924 298.58 91.5884 298.692 92.0364 298.916C92.4844 299.132 92.8404 299.468 93.1044 299.924C93.3764 300.38 93.5124 300.956 93.5124 301.652C93.5124 302.34 93.3764 302.912 93.1044 303.368C92.8404 303.824 92.4844 304.168 92.0364 304.4C91.5884 304.624 91.0924 304.736 90.5484 304.736ZM90.6804 303.728C91.1044 303.728 91.4804 303.64 91.8084 303.464C92.1364 303.288 92.3924 303.044 92.5764 302.732C92.7684 302.42 92.8644 302.06 92.8644 301.652C92.8644 301.244 92.7684 300.884 92.5764 300.572C92.3924 300.26 92.1364 300.02 91.8084 299.852C91.4804 299.676 91.1044 299.588 90.6804 299.588C90.2564 299.588 89.8764 299.676 89.5404 299.852C89.2124 300.02 88.9524 300.26 88.7604 300.572C88.5764 300.884 88.4844 301.244 88.4844 301.652C88.4844 302.06 88.5764 302.42 88.7604 302.732C88.9524 303.044 89.2124 303.288 89.5404 303.464C89.8764 303.64 90.2564 303.728 90.6804 303.728ZM98.9176 305.072C98.2776 305.072 97.7096 304.932 97.2136 304.652C96.7176 304.372 96.3256 303.988 96.0376 303.5C95.7496 303.004 95.6056 302.444 95.6056 301.82C95.6056 301.188 95.7496 300.628 96.0376 300.14C96.3256 299.652 96.7176 299.272 97.2136 299C97.7096 298.72 98.2776 298.58 98.9176 298.58C99.5496 298.58 100.114 298.72 100.61 299C101.114 299.272 101.506 299.652 101.786 300.14C102.074 300.62 102.218 301.18 102.218 301.82C102.218 302.452 102.074 303.012 101.786 303.5C101.506 303.988 101.114 304.372 100.61 304.652C100.114 304.932 99.5496 305.072 98.9176 305.072ZM98.9176 304.064C99.3256 304.064 99.6896 303.972 100.01 303.788C100.338 303.604 100.594 303.344 100.778 303.008C100.962 302.664 101.054 302.268 101.054 301.82C101.054 301.364 100.962 300.972 100.778 300.644C100.594 300.308 100.338 300.048 100.01 299.864C99.6896 299.68 99.3256 299.588 98.9176 299.588C98.5096 299.588 98.1456 299.68 97.8256 299.864C97.5056 300.048 97.2496 300.308 97.0576 300.644C96.8656 300.972 96.7696 301.364 96.7696 301.82C96.7696 302.268 96.8656 302.664 97.0576 303.008C97.2496 303.344 97.5056 303.604 97.8256 303.788C98.1456 303.972 98.5096 304.064 98.9176 304.064ZM105.995 305.072C105.355 305.072 104.859 304.9 104.507 304.556C104.155 304.212 103.979 303.72 103.979 303.08V297.248H105.131V303.032C105.131 303.376 105.215 303.64 105.383 303.824C105.559 304.008 105.807 304.1 106.127 304.1C106.487 304.1 106.787 304 107.027 303.8L107.387 304.628C107.211 304.78 106.999 304.892 106.751 304.964C106.511 305.036 106.259 305.072 105.995 305.072ZM102.899 299.588V298.64H106.955V299.588H102.899ZM112.17 305V296.6H115.446C116.182 296.6 116.81 296.716 117.33 296.948C117.85 297.18 118.25 297.516 118.53 297.956C118.81 298.396 118.95 298.92 118.95 299.528C118.95 300.136 118.81 300.66 118.53 301.1C118.25 301.532 117.85 301.868 117.33 302.108C116.81 302.34 116.182 302.456 115.446 302.456H112.83L113.37 301.892V305H112.17ZM113.37 302.012L112.83 301.412H115.41C116.178 301.412 116.758 301.248 117.15 300.92C117.55 300.592 117.75 300.128 117.75 299.528C117.75 298.928 117.55 298.464 117.15 298.136C116.758 297.808 116.178 297.644 115.41 297.644H112.83L113.37 297.044V302.012ZM120.713 305V296.6H121.913V305H120.713ZM124.428 305V296.6H125.412L130.968 303.5H130.452V296.6H131.652V305H130.668L125.112 298.1H125.628V305H124.428ZM135.642 302.348C135.642 302.036 135.694 301.764 135.798 301.532C135.902 301.3 136.03 301.092 136.182 300.908C136.342 300.724 136.514 300.556 136.698 300.404C136.882 300.244 137.054 300.088 137.214 299.936C137.374 299.776 137.502 299.608 137.598 299.432C137.702 299.256 137.754 299.052 137.754 298.82C137.754 298.436 137.602 298.124 137.298 297.884C136.994 297.644 136.574 297.524 136.038 297.524C135.558 297.524 135.142 297.604 134.79 297.764C134.438 297.924 134.138 298.16 133.89 298.472L133.014 297.848C133.35 297.424 133.778 297.096 134.298 296.864C134.818 296.624 135.426 296.504 136.122 296.504C136.698 296.504 137.198 296.592 137.622 296.768C138.046 296.936 138.374 297.18 138.606 297.5C138.846 297.812 138.966 298.192 138.966 298.64C138.966 298.976 138.914 299.264 138.81 299.504C138.706 299.744 138.574 299.956 138.414 300.14C138.254 300.324 138.082 300.496 137.898 300.656C137.722 300.816 137.554 300.976 137.394 301.136C137.234 301.296 137.102 301.472 136.998 301.664C136.894 301.856 136.842 302.084 136.842 302.348H135.642ZM136.254 305.072C136.03 305.072 135.842 304.996 135.69 304.844C135.546 304.692 135.474 304.512 135.474 304.304C135.474 304.08 135.546 303.896 135.69 303.752C135.842 303.608 136.03 303.536 136.254 303.536C136.478 303.536 136.662 303.608 136.806 303.752C136.95 303.896 137.022 304.08 137.022 304.304C137.022 304.512 136.95 304.692 136.806 304.844C136.662 304.996 136.478 305.072 136.254 305.072Z" fill="#6979F8"/>
<path d="M67 306.5H139.782V307.1H67V306.5Z" fill="#6979F8"/>
<defs>
<filter id="filter0_d_197_51314" x="3" y="173" width="448" height="176" filterUnits="userSpaceOnUse" color-interpolation-filters="sRGB">
<feFlood flood-opacity="0" result="BackgroundImageFix"/>
<feColorMatrix in="SourceAlpha" type="matrix" values="0 0 0 0 0 0 0 0 0 0 0 0 0 0 0 0 0 0 127 0" result="hardAlpha"/>
<feOffset dy="7"/>
<feGaussianBlur stdDeviation="32"/>
<feColorMatrix type="matrix" values="0 0 0 0 0 0 0 0 0 0 0 0 0 0 0 0 0 0 0.07 0"/>
<feBlend mode="normal" in2="BackgroundImageFix" result="effect1_dropShadow_197_51314"/>
<feBlend mode="normal" in="SourceGraphic" in2="effect1_dropShadow_197_51314" result="shape"/>
</filter>
<clipPath id="clip0_197_51314">
<rect width="177" height="40" fill="white" transform="translate(138 348)"/>
</clipPath>
</defs>
</svg>
