<svg width="20" height="20" viewBox="0 0 20 20" fill="none" xmlns="http://www.w3.org/2000/svg">
<path fill-rule="evenodd" clip-rule="evenodd" d="M5.83346 9.16573C5.83346 8.70573 6.20679 8.3324 6.66679 8.3324C7.12679 8.3324 7.50013 8.70573 7.50013 9.16573C7.50013 9.62573 7.12679 9.99907 6.66679 9.99907C6.20679 9.99907 5.83346 9.62573 5.83346 9.16573ZM10.0001 8.3324C9.54013 8.3324 9.16679 8.70573 9.16679 9.16573C9.16679 9.62573 9.54013 9.99907 10.0001 9.99907C10.4601 9.99907 10.8335 9.62573 10.8335 9.16573C10.8335 8.70573 10.4601 8.3324 10.0001 8.3324ZM13.3335 8.3324C12.8735 8.3324 12.5001 8.70573 12.5001 9.16573C12.5001 9.62573 12.8735 9.99907 13.3335 9.99907C13.7935 9.99907 14.1668 9.62573 14.1668 9.16573C14.1668 8.70573 13.7935 8.3324 13.3335 8.3324ZM16.5821 10.2448C16.1596 12.9565 13.9738 15.2056 11.2663 15.7131C9.95879 15.9598 8.62713 15.819 7.41879 15.3073C7.07629 15.1623 6.72213 15.089 6.37463 15.089C6.21629 15.089 6.05963 15.104 5.90546 15.1348L3.56213 15.6031L4.03129 13.2556C4.12963 12.7681 4.06963 12.2465 3.85879 11.7473C3.34713 10.539 3.20713 9.20815 3.45296 7.89982C3.96046 5.19232 6.20879 3.00648 8.92129 2.58398C11.0796 2.24815 13.1905 2.92815 14.7138 4.45148C16.238 5.97565 16.9188 8.08732 16.5821 10.2448ZM15.893 3.27315C13.9888 1.36982 11.3555 0.520651 8.66463 0.936484C5.26713 1.46648 2.45046 4.20315 1.81463 7.59232C1.50796 9.22398 1.68463 10.8856 2.32379 12.3965C2.40463 12.589 2.42963 12.7681 2.39796 12.929L1.68296 16.5023C1.62796 16.7756 1.71379 17.0581 1.91129 17.2548C2.06879 17.4131 2.28129 17.499 2.50046 17.499C2.55463 17.499 2.60879 17.494 2.66379 17.4831L6.23296 16.769C6.43796 16.7298 6.63629 16.7873 6.76879 16.8423C8.28129 17.4815 9.94296 17.6573 11.573 17.3515C14.963 16.7156 17.6996 13.899 18.2296 10.5015C18.648 7.81232 17.7971 5.17732 15.893 3.27315Z" fill="white"/>
<mask id="mask0_601_602" style="mask-type:alpha" maskUnits="userSpaceOnUse" x="1" y="0" width="18" height="18">
<path opacity="0.7" fill-rule="evenodd" clip-rule="evenodd" d="M5.83346 9.16573C5.83346 8.70573 6.20679 8.3324 6.66679 8.3324C7.12679 8.3324 7.50013 8.70573 7.50013 9.16573C7.50013 9.62573 7.12679 9.99907 6.66679 9.99907C6.20679 9.99907 5.83346 9.62573 5.83346 9.16573ZM10.0001 8.3324C9.54013 8.3324 9.16679 8.70573 9.16679 9.16573C9.16679 9.62573 9.54013 9.99907 10.0001 9.99907C10.4601 9.99907 10.8335 9.62573 10.8335 9.16573C10.8335 8.70573 10.4601 8.3324 10.0001 8.3324ZM13.3335 8.3324C12.8735 8.3324 12.5001 8.70573 12.5001 9.16573C12.5001 9.62573 12.8735 9.99907 13.3335 9.99907C13.7935 9.99907 14.1668 9.62573 14.1668 9.16573C14.1668 8.70573 13.7935 8.3324 13.3335 8.3324ZM16.5821 10.2448C16.1596 12.9565 13.9738 15.2056 11.2663 15.7131C9.95879 15.9598 8.62713 15.819 7.41879 15.3073C7.07629 15.1623 6.72213 15.089 6.37463 15.089C6.21629 15.089 6.05963 15.104 5.90546 15.1348L3.56213 15.6031L4.03129 13.2556C4.12963 12.7681 4.06963 12.2465 3.85879 11.7473C3.34713 10.539 3.20713 9.20815 3.45296 7.89982C3.96046 5.19232 6.20879 3.00648 8.92129 2.58398C11.0796 2.24815 13.1905 2.92815 14.7138 4.45148C16.238 5.97565 16.9188 8.08732 16.5821 10.2448ZM15.893 3.27315C13.9888 1.36982 11.3555 0.520651 8.66463 0.936484C5.26713 1.46648 2.45046 4.20315 1.81463 7.59232C1.50796 9.22398 1.68463 10.8856 2.32379 12.3965C2.40463 12.589 2.42963 12.7681 2.39796 12.929L1.68296 16.5023C1.62796 16.7756 1.71379 17.0581 1.91129 17.2548C2.06879 17.4131 2.28129 17.499 2.50046 17.499C2.55463 17.499 2.60879 17.494 2.66379 17.4831L6.23296 16.769C6.43796 16.7298 6.63629 16.7873 6.76879 16.8423C8.28129 17.4815 9.94296 17.6573 11.573 17.3515C14.963 16.7156 17.6996 13.899 18.2296 10.5015C18.648 7.81232 17.7971 5.17732 15.893 3.27315Z" fill="white"/>
</mask>
<g mask="url(#mask0_601_602)">
</g>
</svg>
