<svg width="30" height="30" viewBox="0 0 30 30" fill="none" xmlns="http://www.w3.org/2000/svg">
<path fill-rule="evenodd" clip-rule="evenodd" d="M18.3837 11.6162C17.895 11.1275 17.105 11.1275 16.6163 11.6162L15 13.2325L13.3837 11.6162C12.895 11.1275 12.105 11.1275 11.6162 11.6162C11.1275 12.105 11.1275 12.895 11.6162 13.3837L13.2325 15L11.6162 16.6163C11.1275 17.105 11.1275 17.895 11.6162 18.3838C11.86 18.6275 12.18 18.75 12.5 18.75C12.82 18.75 13.14 18.6275 13.3837 18.3838L15 16.7675L16.6163 18.3838C16.86 18.6275 17.18 18.75 17.5 18.75C17.82 18.75 18.14 18.6275 18.3837 18.3838C18.8725 17.895 18.8725 17.105 18.3837 16.6163L16.7675 15L18.3837 13.3837C18.8725 12.895 18.8725 12.105 18.3837 11.6162ZM15 25C9.48625 25 5 20.5138 5 15C5 9.48625 9.48625 5 15 5C20.5138 5 25 9.48625 25 15C25 20.5138 20.5138 25 15 25ZM15 2.5C8.1075 2.5 2.5 8.1075 2.5 15C2.5 21.8925 8.1075 27.5 15 27.5C21.8925 27.5 27.5 21.8925 27.5 15C27.5 8.1075 21.8925 2.5 15 2.5Z" fill="#FF4A66"/>
<mask id="mask0_370_10422" style="mask-type:alpha" maskUnits="userSpaceOnUse" x="2" y="2" width="26" height="26">
<path fill-rule="evenodd" clip-rule="evenodd" d="M18.3837 11.6162C17.895 11.1275 17.105 11.1275 16.6163 11.6162L15 13.2325L13.3837 11.6162C12.895 11.1275 12.105 11.1275 11.6162 11.6162C11.1275 12.105 11.1275 12.895 11.6162 13.3837L13.2325 15L11.6162 16.6163C11.1275 17.105 11.1275 17.895 11.6162 18.3838C11.86 18.6275 12.18 18.75 12.5 18.75C12.82 18.75 13.14 18.6275 13.3837 18.3838L15 16.7675L16.6163 18.3838C16.86 18.6275 17.18 18.75 17.5 18.75C17.82 18.75 18.14 18.6275 18.3837 18.3838C18.8725 17.895 18.8725 17.105 18.3837 16.6163L16.7675 15L18.3837 13.3837C18.8725 12.895 18.8725 12.105 18.3837 11.6162ZM15 25C9.48625 25 5 20.5138 5 15C5 9.48625 9.48625 5 15 5C20.5138 5 25 9.48625 25 15C25 20.5138 20.5138 25 15 25ZM15 2.5C8.1075 2.5 2.5 8.1075 2.5 15C2.5 21.8925 8.1075 27.5 15 27.5C21.8925 27.5 27.5 21.8925 27.5 15C27.5 8.1075 21.8925 2.5 15 2.5Z" fill="white"/>
</mask>
<g mask="url(#mask0_370_10422)">
</g>
</svg>
