<svg width="74" height="74" viewBox="0 0 74 74" fill="none" xmlns="http://www.w3.org/2000/svg">
<rect width="74" height="74" rx="16" fill="#4156F6"/>
<path fill-rule="evenodd" clip-rule="evenodd" d="M41.1696 31.4415L35.3359 39.1021L32.8184 35.8861C32.2927 35.214 31.3245 35.0968 30.6539 35.6225C29.9833 36.1467 29.8646 37.1164 30.3903 37.7855L34.1381 42.5754C34.431 42.9485 34.878 43.1659 35.3529 43.1659H35.3637C35.84 43.1644 36.2902 42.9393 36.5785 42.5585L43.6224 33.3085C44.1388 32.6301 44.0078 31.6651 43.3295 31.1486C42.6511 30.6321 41.683 30.7647 41.1696 31.4415ZM47.7917 46.25C47.7917 47.101 47.0995 47.7917 46.25 47.7917H27.75C26.9005 47.7917 26.2083 47.101 26.2083 46.25V27.75C26.2083 26.899 26.9005 26.2083 27.75 26.2083H46.25C47.0995 26.2083 47.7917 26.899 47.7917 27.75V46.25ZM46.25 23.125H27.75C25.2001 23.125 23.125 25.2001 23.125 27.75V46.25C23.125 48.7999 25.2001 50.875 27.75 50.875H46.25C48.7999 50.875 50.875 48.7999 50.875 46.25V27.75C50.875 25.2001 48.7999 23.125 46.25 23.125Z" fill="#FAFAFA"/>
<mask id="mask0_730_10598" style="mask-type:alpha" maskUnits="userSpaceOnUse" x="23" y="23" width="28" height="28">
<path fill-rule="evenodd" clip-rule="evenodd" d="M41.1696 31.4415L35.3359 39.1021L32.8184 35.8861C32.2927 35.214 31.3245 35.0968 30.6539 35.6225C29.9833 36.1467 29.8646 37.1164 30.3903 37.7855L34.1381 42.5754C34.431 42.9485 34.878 43.1659 35.3529 43.1659H35.3637C35.84 43.1644 36.2902 42.9393 36.5785 42.5585L43.6224 33.3085C44.1388 32.6301 44.0078 31.6651 43.3295 31.1486C42.6511 30.6321 41.683 30.7647 41.1696 31.4415ZM47.7917 46.25C47.7917 47.101 47.0995 47.7917 46.25 47.7917H27.75C26.9005 47.7917 26.2083 47.101 26.2083 46.25V27.75C26.2083 26.899 26.9005 26.2083 27.75 26.2083H46.25C47.0995 26.2083 47.7917 26.899 47.7917 27.75V46.25ZM46.25 23.125H27.75C25.2001 23.125 23.125 25.2001 23.125 27.75V46.25C23.125 48.7999 25.2001 50.875 27.75 50.875H46.25C48.7999 50.875 50.875 48.7999 50.875 46.25V27.75C50.875 25.2001 48.7999 23.125 46.25 23.125Z" fill="white"/>
</mask>
<g mask="url(#mask0_730_10598)">
</g>
</svg>
