<svg width="42" height="42" viewBox="0 0 42 42" fill="none" xmlns="http://www.w3.org/2000/svg">
<g clip-path="url(#clip0_721_8532)">
<path fill-rule="evenodd" clip-rule="evenodd" d="M3.75 10.5C3.75 9.67157 4.42157 9 5.25 9H36.75C37.5784 9 38.25 9.67157 38.25 10.5V15.5H3.75V10.5ZM-0.25 17.5V10.5C-0.25 7.46243 2.21243 5 5.25 5H36.75C39.7876 5 42.25 7.46243 42.25 10.5V17.5V31.5C42.25 34.5376 39.7876 37 36.75 37H5.25C2.21243 37 -0.25 34.5376 -0.25 31.5V17.5ZM38.25 19.5V31.5C38.25 32.3284 37.5784 33 36.75 33H5.25C4.42157 33 3.75 32.3284 3.75 31.5V19.5H38.25Z" fill="url(#paint0_linear_721_8532)"/>
</g>
<defs>
<linearGradient id="paint0_linear_721_8532" x1="21" y1="5" x2="21" y2="37" gradientUnits="userSpaceOnUse">
<stop stop-color="#4156F6"/>
<stop offset="1" stop-color="#0CB1B9"/>
</linearGradient>
<clipPath id="clip0_721_8532">
<rect width="42" height="42" fill="white"/>
</clipPath>
</defs>
</svg>
