<svg width="46" height="46" viewBox="0 0 46 46" fill="none" xmlns="http://www.w3.org/2000/svg">
<path fill-rule="evenodd" clip-rule="evenodd" d="M19.1667 24.9167C11.7702 24.9167 5.75 30.9369 5.75 38.3333C5.75 39.3932 6.60675 40.25 7.66667 40.25C8.72658 40.25 9.58333 39.3932 9.58333 38.3333C9.58333 33.0491 13.8824 28.75 19.1667 28.75C24.4509 28.75 28.75 33.0491 28.75 38.3333C28.75 39.3932 29.6068 40.25 30.6667 40.25C31.7266 40.25 32.5833 39.3932 32.5833 38.3333C32.5833 30.9369 26.5631 24.9167 19.1667 24.9167ZM15.3333 13.4167C15.3333 15.5308 17.0526 17.25 19.1667 17.25C21.2808 17.25 23 15.5308 23 13.4167C23 11.3026 21.2808 9.58333 19.1667 9.58333C17.0526 9.58333 15.3333 11.3026 15.3333 13.4167ZM11.5 13.4167C11.5 9.1885 14.9385 5.75 19.1667 5.75C23.3948 5.75 26.8333 9.1885 26.8333 13.4167C26.8333 17.6448 23.3948 21.0833 19.1667 21.0833C14.9385 21.0833 11.5 17.6448 11.5 13.4167ZM40.6295 15.778C41.4019 16.5523 41.4019 17.8154 40.6295 18.5878C39.8571 19.3603 38.594 19.3603 37.8197 18.5878L36.4167 17.1829L35.0137 18.5878C34.2393 19.3603 32.9762 19.3603 32.2038 18.5878C31.4314 17.8154 31.4314 16.5523 32.2038 15.778L33.6087 14.375L32.2038 12.972C31.4314 12.1977 31.4314 10.9346 32.2038 10.1622C32.9762 9.38975 34.2393 9.38975 35.0137 10.1622L36.4167 11.5671L37.8197 10.1622C38.594 9.38975 39.8571 9.38975 40.6295 10.1622C41.4019 10.9346 41.4019 12.1977 40.6295 12.972L39.2246 14.375L40.6295 15.778Z" fill="#0D1C2E"/>
</svg>
