<svg width="22" height="21" viewBox="0 0 22 21" fill="none" xmlns="http://www.w3.org/2000/svg">
<path fill-rule="evenodd" clip-rule="evenodd" d="M16.25 16.625C16.25 17.1071 15.858 17.5 15.375 17.5H6.625C6.142 17.5 5.75 17.1071 5.75 16.625V7H16.25V16.625ZM9.25 3.787C9.25 3.65138 9.43725 3.5 9.6875 3.5H12.3125C12.5628 3.5 12.75 3.65138 12.75 3.787V5.25H9.25V3.787ZM18.875 5.25H18H14.5V3.787C14.5 2.6635 13.5191 1.75 12.3125 1.75H9.6875C8.48088 1.75 7.5 2.6635 7.5 3.787V5.25H4H3.125C2.64375 5.25 2.25 5.64375 2.25 6.125C2.25 6.60625 2.64375 7 3.125 7H4V16.625C4 18.0723 5.17775 19.25 6.625 19.25H15.375C16.8223 19.25 18 18.0723 18 16.625V7H18.875C19.3563 7 19.75 6.60625 19.75 6.125C19.75 5.64375 19.3563 5.25 18.875 5.25Z" fill="#FF647C"/>
<mask id="mask0_1575_17938" style="mask-type:luminance" maskUnits="userSpaceOnUse" x="2" y="1" width="18" height="19">
<path fill-rule="evenodd" clip-rule="evenodd" d="M16.25 16.625C16.25 17.1071 15.858 17.5 15.375 17.5H6.625C6.142 17.5 5.75 17.1071 5.75 16.625V7H16.25V16.625ZM9.25 3.787C9.25 3.65138 9.43725 3.5 9.6875 3.5H12.3125C12.5628 3.5 12.75 3.65138 12.75 3.787V5.25H9.25V3.787ZM18.875 5.25H18H14.5V3.787C14.5 2.6635 13.5191 1.75 12.3125 1.75H9.6875C8.48088 1.75 7.5 2.6635 7.5 3.787V5.25H4H3.125C2.64375 5.25 2.25 5.64375 2.25 6.125C2.25 6.60625 2.64375 7 3.125 7H4V16.625C4 18.0723 5.17775 19.25 6.625 19.25H15.375C16.8223 19.25 18 18.0723 18 16.625V7H18.875C19.3563 7 19.75 6.60625 19.75 6.125C19.75 5.64375 19.3563 5.25 18.875 5.25Z" fill="white"/>
</mask>
<g mask="url(#mask0_1575_17938)">
</g>
</svg>
