<svg width="14" height="15" viewBox="0 0 14 15" fill="none" xmlns="http://www.w3.org/2000/svg">
<path fill-rule="evenodd" clip-rule="evenodd" d="M10.5165 6.34415L8.15841 3.98602L9.86291 2.28065L12.2202 4.6379L10.5165 6.34415ZM4.44491 12.4219L1.84003 12.659L2.07103 10.0725L6.98591 5.15765L9.34491 7.51665L4.44491 12.4219ZM13.4784 3.42077L13.4775 3.4199L11.0818 1.02415C10.4334 0.37752 9.31954 0.346896 8.70529 0.96377L0.833784 8.83527C0.548534 9.11965 0.371784 9.49764 0.335034 9.89752L0.00340902 13.5463C-0.019341 13.8044 0.072534 14.0599 0.256284 14.2436C0.421659 14.409 0.644784 14.5 0.874909 14.5C0.902034 14.5 0.928284 14.4991 0.954534 14.4965L4.60328 14.1649C5.00403 14.1281 5.38116 13.9523 5.66553 13.6679L13.5379 5.79552C14.1749 5.15677 14.1478 4.09102 13.4784 3.42077Z" fill="#0084F4"/>
</svg>
