<svg width="20" height="20" viewBox="0 0 20 20" fill="none" xmlns="http://www.w3.org/2000/svg">
<g opacity="0.7">
<path fill-rule="evenodd" clip-rule="evenodd" d="M15 12.155C14.67 12.3025 14.0209 12.5 12.9167 12.5C11.98 12.5 11.1659 12.1808 10.3042 11.8433C9.33587 11.4642 8.33421 11.0717 7.08337 11.0717C6.20254 11.0717 5.52004 11.1775 5.00004 11.32V10V4.51333C5.33004 4.36583 5.98087 4.16667 7.08337 4.16667C8.02004 4.16667 8.83421 4.48583 9.69587 4.82333C10.6642 5.2025 11.6659 5.595 12.9167 5.595C13.6984 5.595 14.3967 5.51083 15 5.345V12.155ZM16.0567 3.9C15.6717 3.62167 15.1734 3.5425 14.7242 3.68917C14.2442 3.845 13.6192 3.92833 12.9167 3.92833C11.98 3.92833 11.1659 3.60917 10.3042 3.27167C9.33587 2.8925 8.33421 2.5 7.08337 2.5C4.67754 2.5 3.74587 3.29333 3.58337 3.45333C3.42337 3.60917 3.33337 3.82417 3.33337 4.0475V10V12.6192V16.6667C3.33337 17.1275 3.70587 17.5 4.16671 17.5C4.62754 17.5 5.00004 17.1275 5.00004 16.6667V13.085C5.32921 12.9383 5.97754 12.7383 7.08337 12.7383C8.02004 12.7383 8.83421 13.0575 9.69587 13.395C10.6642 13.7742 11.6659 14.1667 12.9167 14.1667C14.4242 14.1667 15.3525 13.8517 15.8675 13.5875C16.3609 13.3317 16.6667 12.835 16.6667 12.2908V5.08833C16.6667 4.62167 16.4392 4.1775 16.0567 3.9Z" fill="white"/>
<mask id="mask0_601_580" style="mask-type:alpha" maskUnits="userSpaceOnUse" x="3" y="2" width="14" height="16">
<path fill-rule="evenodd" clip-rule="evenodd" d="M15 12.155C14.67 12.3025 14.0209 12.5 12.9167 12.5C11.98 12.5 11.1659 12.1808 10.3042 11.8433C9.33587 11.4642 8.33421 11.0717 7.08337 11.0717C6.20254 11.0717 5.52004 11.1775 5.00004 11.32V10V4.51333C5.33004 4.36583 5.98087 4.16667 7.08337 4.16667C8.02004 4.16667 8.83421 4.48583 9.69587 4.82333C10.6642 5.2025 11.6659 5.595 12.9167 5.595C13.6984 5.595 14.3967 5.51083 15 5.345V12.155ZM16.0567 3.9C15.6717 3.62167 15.1734 3.5425 14.7242 3.68917C14.2442 3.845 13.6192 3.92833 12.9167 3.92833C11.98 3.92833 11.1659 3.60917 10.3042 3.27167C9.33587 2.8925 8.33421 2.5 7.08337 2.5C4.67754 2.5 3.74587 3.29333 3.58337 3.45333C3.42337 3.60917 3.33337 3.82417 3.33337 4.0475V10V12.6192V16.6667C3.33337 17.1275 3.70587 17.5 4.16671 17.5C4.62754 17.5 5.00004 17.1275 5.00004 16.6667V13.085C5.32921 12.9383 5.97754 12.7383 7.08337 12.7383C8.02004 12.7383 8.83421 13.0575 9.69587 13.395C10.6642 13.7742 11.6659 14.1667 12.9167 14.1667C14.4242 14.1667 15.3525 13.8517 15.8675 13.5875C16.3609 13.3317 16.6667 12.835 16.6667 12.2908V5.08833C16.6667 4.62167 16.4392 4.1775 16.0567 3.9Z" fill="white"/>
</mask>
<g mask="url(#mask0_601_580)">
</g>
</g>
</svg>
