<svg width="105" height="107" viewBox="0 0 105 107" fill="none" xmlns="http://www.w3.org/2000/svg">
<path d="M19.6815 70.7294V104H52.5153M19.6815 70.7294H52.5153M19.6815 70.7294L3.26465 54.094H34.9258L52.5153 70.7294M52.5153 70.7294H85.349M52.5153 70.7294V104M52.5153 70.7294L70.1048 54.094H101.766L85.349 70.7294M85.349 70.7294V104H52.5153M52.5153 51.7175C56.0332 33.8942 40.7889 8.94119 24.3721 16.0704C17.3363 19.6353 13.8184 32.7058 38.4437 36.2705M68.9322 6.5646C85.349 3 102.235 31.5176 61.8963 36.2705M52.5153 3L56.0332 7.75295L59.5511 3" stroke="#1A051D" stroke-width="5" stroke-linecap="round" stroke-linejoin="round"/>
</svg>
