<svg width="175" height="126" viewBox="0 0 175 126" fill="none" xmlns="http://www.w3.org/2000/svg">
<path opacity="0.69" d="M155.469 28H109.843C105.984 28 102.856 24.8662 102.856 21C102.856 17.1341 105.984 14 109.843 14H125.266C129.136 14 132.253 10.8769 132.253 7C132.253 3.12308 129.136 0 125.266 0H56.6382C52.7688 0 49.6517 3.12308 49.6517 7C49.6517 10.8769 52.7688 14 56.6382 14H71.5247C75.3941 14 78.5111 17.1231 78.5111 21C78.5111 24.8769 75.3941 28 71.5247 28H23.6944C19.825 28 16.708 31.1231 16.708 35C16.708 38.8769 19.825 42 23.6944 42H42.719C46.5885 42 49.7055 45.1231 49.7055 49C49.7055 52.8769 46.5885 56 42.719 56H34.6846C30.8152 56 27.6982 59.1231 27.6982 63C27.6982 66.8769 30.8152 70 34.6846 70H61.1794V84H40.7575C36.8881 84 33.771 87.1231 33.771 91C33.771 94.8769 36.8881 98 40.7575 98H78.0006C81.87 98 84.987 101.123 84.987 105C84.987 108.877 81.87 112 78.0006 112H57.1756C53.3062 112 50.1892 115.123 50.1892 119C50.1892 122.877 53.3062 126 57.1756 126H136.875C140.744 126 143.861 122.877 143.861 119C143.861 115.123 140.744 112 136.875 112H116.856V98H123.197C127.067 98 130.184 94.8769 130.184 91C130.184 87.1231 127.067 84 123.197 84H116.856V70H143.351C147.22 70 150.337 66.8769 150.337 63C150.337 59.1231 147.22 56 143.351 56H132.253C128.395 56 125.266 52.8662 125.266 49C125.266 45.1341 128.395 42 132.253 42H155.523C159.393 42 162.51 38.8769 162.51 35C162.456 31.15 159.339 28 155.469 28Z" fill="#ECE9F1"/>
<path opacity="0.69" d="M144.132 98.1344H153.775C157.612 98.1344 160.702 95.0263 160.702 91.168C160.702 87.3097 157.612 84.2017 153.775 84.2017H144.132C140.295 84.2017 137.205 87.3097 137.205 91.168C137.205 95.0263 140.295 98.1344 144.132 98.1344Z" fill="#ECE9F1"/>
<path opacity="0.69" d="M167.505 70.2694H164.141C160.234 70.2694 157.087 67.0262 157.087 63.0002C157.087 58.9742 160.234 55.731 164.141 55.731H167.505C171.412 55.731 174.559 58.9742 174.559 63.0002C174.559 67.0262 171.412 70.2694 167.505 70.2694Z" fill="#ECE9F1"/>
<path opacity="0.69" d="M27.9323 126H41.0301C44.9109 126 48.0372 122.892 48.0372 119.034C48.0372 115.175 44.9109 112.067 41.0301 112.067H27.9323C24.0515 112.067 20.9253 115.175 20.9253 119.034C20.9253 122.892 24.0515 126 27.9323 126Z" fill="#ECE9F1"/>
<path opacity="0.69" d="M7.3695 41.7979C11.2069 41.7979 14.2981 38.6899 14.2981 34.8316C14.2981 30.9733 11.2069 27.8652 7.3695 27.8652C3.53213 27.8652 0.440918 30.9733 0.440918 34.8316C0.440918 38.6899 3.53213 41.7979 7.3695 41.7979Z" fill="#ECE9F1"/>
</svg>
