<svg width="38" height="38" viewBox="0 0 38 38" fill="none" xmlns="http://www.w3.org/2000/svg">
<path fill-rule="evenodd" clip-rule="evenodd" d="M23.2864 14.7142C22.6673 14.0952 21.6667 14.0952 21.0476 14.7142L19.0003 16.7615L16.9531 14.7142C16.334 14.0952 15.3333 14.0952 14.7142 14.7142C14.0952 15.3333 14.0952 16.334 14.7142 16.9531L16.7615 19.0003L14.7142 21.0476C14.0952 21.6667 14.0952 22.6673 14.7142 23.2864C15.023 23.5952 15.4283 23.7503 15.8337 23.7503C16.239 23.7503 16.6443 23.5952 16.9531 23.2864L19.0003 21.2392L21.0476 23.2864C21.3563 23.5952 21.7617 23.7503 22.167 23.7503C22.5723 23.7503 22.9777 23.5952 23.2864 23.2864C23.9055 22.6673 23.9055 21.6667 23.2864 21.0476L21.2392 19.0003L23.2864 16.9531C23.9055 16.334 23.9055 15.3333 23.2864 14.7142ZM19.0003 31.667C12.0162 31.667 6.33366 25.9844 6.33366 19.0003C6.33366 12.0162 12.0162 6.33366 19.0003 6.33366C25.9844 6.33366 31.667 12.0162 31.667 19.0003C31.667 25.9844 25.9844 31.667 19.0003 31.667ZM19.0003 3.16699C10.2698 3.16699 3.16699 10.2698 3.16699 19.0003C3.16699 27.7308 10.2698 34.8337 19.0003 34.8337C27.7308 34.8337 34.8337 27.7308 34.8337 19.0003C34.8337 10.2698 27.7308 3.16699 19.0003 3.16699Z" fill="white"/>
<mask id="mask0_188_10406" style="mask-type:luminance" maskUnits="userSpaceOnUse" x="3" y="3" width="32" height="32">
<path fill-rule="evenodd" clip-rule="evenodd" d="M23.2864 14.7142C22.6673 14.0952 21.6667 14.0952 21.0476 14.7142L19.0003 16.7615L16.9531 14.7142C16.334 14.0952 15.3333 14.0952 14.7142 14.7142C14.0952 15.3333 14.0952 16.334 14.7142 16.9531L16.7615 19.0003L14.7142 21.0476C14.0952 21.6667 14.0952 22.6673 14.7142 23.2864C15.023 23.5952 15.4283 23.7503 15.8337 23.7503C16.239 23.7503 16.6443 23.5952 16.9531 23.2864L19.0003 21.2392L21.0476 23.2864C21.3563 23.5952 21.7617 23.7503 22.167 23.7503C22.5723 23.7503 22.9777 23.5952 23.2864 23.2864C23.9055 22.6673 23.9055 21.6667 23.2864 21.0476L21.2392 19.0003L23.2864 16.9531C23.9055 16.334 23.9055 15.3333 23.2864 14.7142ZM19.0003 31.667C12.0162 31.667 6.33366 25.9844 6.33366 19.0003C6.33366 12.0162 12.0162 6.33366 19.0003 6.33366C25.9844 6.33366 31.667 12.0162 31.667 19.0003C31.667 25.9844 25.9844 31.667 19.0003 31.667ZM19.0003 3.16699C10.2698 3.16699 3.16699 10.2698 3.16699 19.0003C3.16699 27.7308 10.2698 34.8337 19.0003 34.8337C27.7308 34.8337 34.8337 27.7308 34.8337 19.0003C34.8337 10.2698 27.7308 3.16699 19.0003 3.16699Z" fill="white"/>
</mask>
<g mask="url(#mask0_188_10406)">
</g>
</svg>
