<svg width="24" height="24" viewBox="0 0 24 24" fill="none" xmlns="http://www.w3.org/2000/svg">
<path d="M21.8182 0H2.18182C0.976364 0 0 0.976364 0 2.18182V21.8182C0 23.0236 0.976364 24 2.18182 24H21.8182C23.0236 24 24 23.0236 24 21.8182V2.18182C24 0.976364 23.0236 0 21.8182 0ZM17.4545 19.3244C17.4545 19.3844 17.4305 19.4444 17.3825 19.4804C17.3225 19.5404 15.6055 20.7273 12.468 20.7273C8.70436 20.7273 8.72727 16.2218 8.72727 15.7407V10.7542H6.45055C6.32945 10.7542 6.23345 10.6582 6.23345 10.5371V8.46546C6.23345 8.36946 6.28255 8.29745 6.36545 8.26145C6.40145 8.24945 9.97309 6.67636 9.97309 3.49091C9.97418 3.36873 10.0702 3.27273 10.1913 3.27273H12.252C12.372 3.27273 12.468 3.36873 12.468 3.48982V8.26036H15.9916C16.0996 8.26036 16.2087 8.35636 16.2087 8.47746V10.5382C16.2087 10.6582 16.1007 10.7542 15.9916 10.7542H12.468V15.7407C12.468 15.8127 12.3535 17.3291 13.9636 17.3291C15.2869 17.3291 17.1055 16.896 17.1175 16.896C17.1895 16.8469 17.2735 16.8469 17.3345 16.884C17.4055 16.92 17.4545 16.992 17.4545 17.076V19.3244Z" fill="white"/>
</svg>
