<svg width="267" height="148" viewBox="0 0 267 148" fill="none" xmlns="http://www.w3.org/2000/svg">
<path fill-rule="evenodd" clip-rule="evenodd" d="M0.566562 36.9618C0 40.4581 0 44.6387 0 53C0 61.3613 0 65.5419 0.566562 69.0382C3.59719 87.7405 18.2595 102.403 36.9618 105.433C40.4581 106 44.6387 106 53 106H122.5L130.6 116.8C131.8 118.4 134.2 118.4 135.4 116.8L143.5 106H214C222.361 106 226.542 106 230.038 105.433C248.741 102.403 263.403 87.7405 266.433 69.0382C267 65.5419 267 61.3613 267 53C267 44.6387 267 40.4581 266.433 36.9618C263.403 18.2595 248.741 3.59719 230.038 0.566562C226.542 0 222.361 0 214 0H53C44.6387 0 40.4581 0 36.9618 0.566562C18.2595 3.59719 3.59719 18.2595 0.566562 36.9618Z" fill="#6979F8"/>
<path d="M116.22 38.14C115.454 38.14 114.75 38.014 114.106 37.762C113.462 37.51 112.902 37.16 112.426 36.712C111.95 36.2547 111.581 35.7227 111.32 35.116C111.058 34.5 110.928 33.828 110.928 33.1C110.928 32.372 111.058 31.7047 111.32 31.098C111.581 30.482 111.95 29.95 112.426 29.502C112.902 29.0447 113.462 28.69 114.106 28.438C114.75 28.186 115.45 28.06 116.206 28.06C116.971 28.06 117.671 28.186 118.306 28.438C118.95 28.69 119.51 29.0447 119.986 29.502C120.462 29.95 120.83 30.482 121.092 31.098C121.353 31.7047 121.484 32.372 121.484 33.1C121.484 33.828 121.353 34.5 121.092 35.116C120.83 35.732 120.462 36.264 119.986 36.712C119.51 37.16 118.95 37.51 118.306 37.762C117.671 38.014 116.976 38.14 116.22 38.14ZM116.206 36.544C116.7 36.544 117.158 36.46 117.578 36.292C117.998 36.124 118.362 35.886 118.67 35.578C118.978 35.2607 119.216 34.8967 119.384 34.486C119.561 34.066 119.65 33.604 119.65 33.1C119.65 32.596 119.561 32.1387 119.384 31.728C119.216 31.308 118.978 30.944 118.67 30.636C118.362 30.3187 117.998 30.076 117.578 29.908C117.158 29.74 116.7 29.656 116.206 29.656C115.711 29.656 115.254 29.74 114.834 29.908C114.423 30.076 114.059 30.3187 113.742 30.636C113.434 30.944 113.191 31.308 113.014 31.728C112.846 32.1387 112.762 32.596 112.762 33.1C112.762 33.5947 112.846 34.052 113.014 34.472C113.191 34.892 113.434 35.2607 113.742 35.578C114.05 35.886 114.414 36.124 114.834 36.292C115.254 36.46 115.711 36.544 116.206 36.544ZM126.605 38.098C125.839 38.098 125.158 37.9347 124.561 37.608C123.963 37.272 123.492 36.8147 123.147 36.236C122.801 35.6573 122.629 34.9993 122.629 34.262C122.629 33.5153 122.801 32.8573 123.147 32.288C123.492 31.7093 123.963 31.2567 124.561 30.93C125.158 30.6033 125.839 30.44 126.605 30.44C127.379 30.44 128.065 30.6033 128.663 30.93C129.269 31.2567 129.741 31.7047 130.077 32.274C130.422 32.8433 130.595 33.506 130.595 34.262C130.595 34.9993 130.422 35.6573 130.077 36.236C129.741 36.8147 129.269 37.272 128.663 37.608C128.065 37.9347 127.379 38.098 126.605 38.098ZM126.605 36.6C127.034 36.6 127.417 36.5067 127.753 36.32C128.089 36.1333 128.35 35.8627 128.537 35.508C128.733 35.1533 128.831 34.738 128.831 34.262C128.831 33.7767 128.733 33.3613 128.537 33.016C128.35 32.6613 128.089 32.3907 127.753 32.204C127.417 32.0173 127.039 31.924 126.619 31.924C126.189 31.924 125.807 32.0173 125.471 32.204C125.144 32.3907 124.883 32.6613 124.687 33.016C124.491 33.3613 124.393 33.7767 124.393 34.262C124.393 34.738 124.491 35.1533 124.687 35.508C124.883 35.8627 125.144 36.1333 125.471 36.32C125.807 36.5067 126.185 36.6 126.605 36.6ZM136.412 38.098C135.805 38.098 135.25 37.958 134.746 37.678C134.251 37.398 133.855 36.978 133.556 36.418C133.267 35.8487 133.122 35.13 133.122 34.262C133.122 33.3847 133.262 32.666 133.542 32.106C133.831 31.546 134.223 31.1307 134.718 30.86C135.213 30.58 135.777 30.44 136.412 30.44C137.149 30.44 137.798 30.5987 138.358 30.916C138.927 31.2333 139.375 31.6767 139.702 32.246C140.038 32.8153 140.206 33.4873 140.206 34.262C140.206 35.0367 140.038 35.7133 139.702 36.292C139.375 36.8613 138.927 37.3047 138.358 37.622C137.798 37.9393 137.149 38.098 136.412 38.098ZM132.268 40.716V30.524H133.934V32.288L133.878 34.276L134.018 36.264V40.716H132.268ZM136.216 36.6C136.636 36.6 137.009 36.5067 137.336 36.32C137.672 36.1333 137.938 35.8627 138.134 35.508C138.33 35.1533 138.428 34.738 138.428 34.262C138.428 33.7767 138.33 33.3613 138.134 33.016C137.938 32.6613 137.672 32.3907 137.336 32.204C137.009 32.0173 136.636 31.924 136.216 31.924C135.796 31.924 135.418 32.0173 135.082 32.204C134.746 32.3907 134.48 32.6613 134.284 33.016C134.088 33.3613 133.99 33.7767 133.99 34.262C133.99 34.738 134.088 35.1533 134.284 35.508C134.48 35.8627 134.746 36.1333 135.082 36.32C135.418 36.5067 135.796 36.6 136.216 36.6ZM144.176 38.098C143.55 38.098 142.948 38.0187 142.37 37.86C141.8 37.692 141.348 37.4913 141.012 37.258L141.684 35.928C142.02 36.1427 142.421 36.32 142.888 36.46C143.354 36.6 143.821 36.67 144.288 36.67C144.838 36.67 145.235 36.5953 145.478 36.446C145.73 36.2967 145.856 36.096 145.856 35.844C145.856 35.6387 145.772 35.4847 145.604 35.382C145.436 35.27 145.216 35.186 144.946 35.13C144.675 35.074 144.372 35.0227 144.036 34.976C143.709 34.9293 143.378 34.8687 143.042 34.794C142.715 34.71 142.416 34.5933 142.146 34.444C141.875 34.2853 141.656 34.0753 141.488 33.814C141.32 33.5527 141.236 33.2073 141.236 32.778C141.236 32.302 141.371 31.8913 141.642 31.546C141.912 31.1913 142.29 30.9207 142.776 30.734C143.27 30.538 143.854 30.44 144.526 30.44C145.03 30.44 145.538 30.496 146.052 30.608C146.565 30.72 146.99 30.8787 147.326 31.084L146.654 32.414C146.299 32.1993 145.94 32.0547 145.576 31.98C145.221 31.896 144.866 31.854 144.512 31.854C143.98 31.854 143.583 31.9333 143.322 32.092C143.07 32.2507 142.944 32.4513 142.944 32.694C142.944 32.918 143.028 33.086 143.196 33.198C143.364 33.31 143.583 33.3987 143.854 33.464C144.124 33.5293 144.423 33.5853 144.75 33.632C145.086 33.6693 145.417 33.73 145.744 33.814C146.07 33.898 146.369 34.0147 146.64 34.164C146.92 34.304 147.144 34.5047 147.312 34.766C147.48 35.0273 147.564 35.368 147.564 35.788C147.564 36.2547 147.424 36.6607 147.144 37.006C146.873 37.3513 146.486 37.622 145.982 37.818C145.478 38.0047 144.876 38.098 144.176 38.098ZM149.183 34.752L148.847 28.2H150.919L150.569 34.752H149.183ZM149.883 38.098C149.556 38.098 149.286 37.9907 149.071 37.776C148.856 37.5613 148.749 37.3047 148.749 37.006C148.749 36.7073 148.856 36.4553 149.071 36.25C149.286 36.0353 149.556 35.928 149.883 35.928C150.21 35.928 150.476 36.0353 150.681 36.25C150.886 36.4553 150.989 36.7073 150.989 37.006C150.989 37.3047 150.886 37.5613 150.681 37.776C150.476 37.9907 150.21 38.098 149.883 38.098ZM42.3385 72V62.2H44.1585V70.46H49.2825V72H42.3385ZM50.5513 72V64.524H52.3013V72H50.5513ZM51.4333 63.292C51.1067 63.292 50.836 63.1893 50.6213 62.984C50.416 62.7787 50.3133 62.5313 50.3133 62.242C50.3133 61.9433 50.416 61.696 50.6213 61.5C50.836 61.2947 51.1067 61.192 51.4333 61.192C51.76 61.192 52.026 61.29 52.2313 61.486C52.446 61.6727 52.5533 61.9107 52.5533 62.2C52.5533 62.508 52.4507 62.7693 52.2453 62.984C52.04 63.1893 51.7693 63.292 51.4333 63.292ZM58.8402 64.44C59.4375 64.44 59.9695 64.5567 60.4362 64.79C60.9122 65.0233 61.2855 65.3827 61.5562 65.868C61.8269 66.344 61.9622 66.96 61.9622 67.716V72H60.2122V67.94C60.2122 67.2773 60.0535 66.7827 59.7362 66.456C59.4282 66.1293 58.9942 65.966 58.4342 65.966C58.0235 65.966 57.6595 66.05 57.3422 66.218C57.0249 66.386 56.7775 66.638 56.6002 66.974C56.4322 67.3007 56.3482 67.716 56.3482 68.22V72H54.5982V64.524H56.2642V66.54L55.9702 65.924C56.2315 65.448 56.6095 65.084 57.1042 64.832C57.6082 64.5707 58.1869 64.44 58.8402 64.44ZM65.6102 70.334L65.6522 68.136L69.5582 64.524H71.6582L68.3402 67.856L67.4162 68.626L65.6102 70.334ZM64.1822 72V61.612H65.9322V72H64.1822ZM69.8242 72L67.0942 68.626L68.2002 67.226L71.9522 72H69.8242ZM76.9517 72V64.524H78.7017V72H76.9517ZM77.8337 63.292C77.507 63.292 77.2364 63.1893 77.0217 62.984C76.8164 62.7787 76.7137 62.5313 76.7137 62.242C76.7137 61.9433 76.8164 61.696 77.0217 61.5C77.2364 61.2947 77.507 61.192 77.8337 61.192C78.1604 61.192 78.4264 61.29 78.6317 61.486C78.8464 61.6727 78.9537 61.9107 78.9537 62.2C78.9537 62.508 78.851 62.7693 78.6457 62.984C78.4404 63.1893 78.1697 63.292 77.8337 63.292ZM83.3086 72.098C82.6833 72.098 82.0813 72.0187 81.5026 71.86C80.9333 71.692 80.4806 71.4913 80.1446 71.258L80.8166 69.928C81.1526 70.1427 81.5539 70.32 82.0206 70.46C82.4873 70.6 82.9539 70.67 83.4206 70.67C83.9713 70.67 84.3679 70.5953 84.6106 70.446C84.8626 70.2967 84.9886 70.096 84.9886 69.844C84.9886 69.6387 84.9046 69.4847 84.7366 69.382C84.5686 69.27 84.3493 69.186 84.0786 69.13C83.8079 69.074 83.5046 69.0227 83.1686 68.976C82.8419 68.9293 82.5106 68.8687 82.1746 68.794C81.8479 68.71 81.5493 68.5933 81.2786 68.444C81.0079 68.2853 80.7886 68.0753 80.6206 67.814C80.4526 67.5527 80.3686 67.2073 80.3686 66.778C80.3686 66.302 80.5039 65.8913 80.7746 65.546C81.0453 65.1913 81.4233 64.9207 81.9086 64.734C82.4033 64.538 82.9866 64.44 83.6586 64.44C84.1626 64.44 84.6713 64.496 85.1846 64.608C85.6979 64.72 86.1226 64.8787 86.4586 65.084L85.7866 66.414C85.4319 66.1993 85.0726 66.0547 84.7086 65.98C84.3539 65.896 83.9993 65.854 83.6446 65.854C83.1126 65.854 82.7159 65.9333 82.4546 66.092C82.2026 66.2507 82.0766 66.4513 82.0766 66.694C82.0766 66.918 82.1606 67.086 82.3286 67.198C82.4966 67.31 82.7159 67.3987 82.9866 67.464C83.2573 67.5293 83.5559 67.5853 83.8826 67.632C84.2186 67.6693 84.5499 67.73 84.8766 67.814C85.2033 67.898 85.5019 68.0147 85.7726 68.164C86.0526 68.304 86.2766 68.5047 86.4446 68.766C86.6126 69.0273 86.6966 69.368 86.6966 69.788C86.6966 70.2547 86.5566 70.6607 86.2766 71.006C86.0059 71.3513 85.6186 71.622 85.1146 71.818C84.6106 72.0047 84.0086 72.098 83.3086 72.098ZM96.3148 64.44C96.9121 64.44 97.4441 64.5567 97.9108 64.79C98.3868 65.0233 98.7601 65.3827 99.0308 65.868C99.3015 66.344 99.4368 66.96 99.4368 67.716V72H97.6868V67.94C97.6868 67.2773 97.5281 66.7827 97.2108 66.456C96.9028 66.1293 96.4688 65.966 95.9088 65.966C95.4981 65.966 95.1341 66.05 94.8168 66.218C94.4995 66.386 94.2521 66.638 94.0748 66.974C93.9068 67.3007 93.8228 67.716 93.8228 68.22V72H92.0728V64.524H93.7388V66.54L93.4448 65.924C93.7061 65.448 94.0841 65.084 94.5788 64.832C95.0828 64.5707 95.6615 64.44 96.3148 64.44ZM105.03 72.098C104.265 72.098 103.584 71.9347 102.986 71.608C102.389 71.272 101.918 70.8147 101.572 70.236C101.227 69.6573 101.054 68.9993 101.054 68.262C101.054 67.5153 101.227 66.8573 101.572 66.288C101.918 65.7093 102.389 65.2567 102.986 64.93C103.584 64.6033 104.265 64.44 105.03 64.44C105.805 64.44 106.491 64.6033 107.088 64.93C107.695 65.2567 108.166 65.7047 108.502 66.274C108.848 66.8433 109.02 67.506 109.02 68.262C109.02 68.9993 108.848 69.6573 108.502 70.236C108.166 70.8147 107.695 71.272 107.088 71.608C106.491 71.9347 105.805 72.098 105.03 72.098ZM105.03 70.6C105.46 70.6 105.842 70.5067 106.178 70.32C106.514 70.1333 106.776 69.8627 106.962 69.508C107.158 69.1533 107.256 68.738 107.256 68.262C107.256 67.7767 107.158 67.3613 106.962 67.016C106.776 66.6613 106.514 66.3907 106.178 66.204C105.842 66.0173 105.464 65.924 105.044 65.924C104.615 65.924 104.232 66.0173 103.896 66.204C103.57 66.3907 103.308 66.6613 103.112 67.016C102.916 67.3613 102.818 67.7767 102.818 68.262C102.818 68.738 102.916 69.1533 103.112 69.508C103.308 69.8627 103.57 70.1333 103.896 70.32C104.232 70.5067 104.61 70.6 105.03 70.6ZM113.508 72.098C112.687 72.098 112.052 71.888 111.604 71.468C111.156 71.0387 110.932 70.4087 110.932 69.578V62.872H112.682V69.536C112.682 69.8907 112.771 70.166 112.948 70.362C113.135 70.558 113.391 70.656 113.718 70.656C114.11 70.656 114.437 70.5533 114.698 70.348L115.188 71.594C114.983 71.762 114.731 71.888 114.432 71.972C114.133 72.056 113.825 72.098 113.508 72.098ZM109.7 65.98V64.58H114.684V65.98H109.7ZM122.485 72L119.279 64.524H121.099L123.857 71.118H122.961L125.817 64.524H127.497L124.291 72H122.485ZM132.964 72V70.488L132.866 70.166V67.52C132.866 67.0067 132.712 66.61 132.404 66.33C132.096 66.0407 131.629 65.896 131.004 65.896C130.584 65.896 130.169 65.9613 129.758 66.092C129.357 66.2227 129.016 66.4047 128.736 66.638L128.05 65.364C128.451 65.056 128.927 64.8273 129.478 64.678C130.038 64.5193 130.617 64.44 131.214 64.44C132.297 64.44 133.132 64.7013 133.72 65.224C134.317 65.7373 134.616 66.5353 134.616 67.618V72H132.964ZM130.612 72.098C130.052 72.098 129.562 72.0047 129.142 71.818C128.722 71.622 128.395 71.356 128.162 71.02C127.938 70.6747 127.826 70.2873 127.826 69.858C127.826 69.438 127.924 69.06 128.12 68.724C128.325 68.388 128.657 68.122 129.114 67.926C129.571 67.73 130.178 67.632 130.934 67.632H133.104V68.794H131.06C130.463 68.794 130.061 68.892 129.856 69.088C129.651 69.2747 129.548 69.508 129.548 69.788C129.548 70.1053 129.674 70.3573 129.926 70.544C130.178 70.7307 130.528 70.824 130.976 70.824C131.405 70.824 131.788 70.726 132.124 70.53C132.469 70.334 132.717 70.0447 132.866 69.662L133.16 70.712C132.992 71.1507 132.689 71.4913 132.25 71.734C131.821 71.9767 131.275 72.098 130.612 72.098ZM136.862 72V61.612H138.612V72H136.862ZM140.909 72V64.524H142.659V72H140.909ZM141.791 63.292C141.464 63.292 141.193 63.1893 140.979 62.984C140.773 62.7787 140.671 62.5313 140.671 62.242C140.671 61.9433 140.773 61.696 140.979 61.5C141.193 61.2947 141.464 61.192 141.791 61.192C142.117 61.192 142.383 61.29 142.589 61.486C142.803 61.6727 142.911 61.9107 142.911 62.2C142.911 62.508 142.808 62.7693 142.603 62.984C142.397 63.1893 142.127 63.292 141.791 63.292ZM148.12 72.098C147.401 72.098 146.752 71.9393 146.174 71.622C145.604 71.2953 145.156 70.8473 144.83 70.278C144.503 69.7087 144.34 69.0367 144.34 68.262C144.34 67.4873 144.503 66.8153 144.83 66.246C145.156 65.6767 145.604 65.2333 146.174 64.916C146.752 64.5987 147.401 64.44 148.12 64.44C148.745 64.44 149.305 64.58 149.8 64.86C150.294 65.1307 150.686 65.546 150.976 66.106C151.265 66.666 151.41 67.3847 151.41 68.262C151.41 69.13 151.27 69.8487 150.99 70.418C150.71 70.978 150.322 71.398 149.828 71.678C149.333 71.958 148.764 72.098 148.12 72.098ZM148.33 70.6C148.75 70.6 149.123 70.5067 149.45 70.32C149.786 70.1333 150.052 69.8627 150.248 69.508C150.453 69.1533 150.556 68.738 150.556 68.262C150.556 67.7767 150.453 67.3613 150.248 67.016C150.052 66.6613 149.786 66.3907 149.45 66.204C149.123 66.0173 148.75 65.924 148.33 65.924C147.91 65.924 147.532 66.0173 147.196 66.204C146.869 66.3907 146.603 66.6613 146.398 67.016C146.202 67.3613 146.104 67.7767 146.104 68.262C146.104 68.738 146.202 69.1533 146.398 69.508C146.603 69.8627 146.869 70.1333 147.196 70.32C147.532 70.5067 147.91 70.6 148.33 70.6ZM150.598 72V70.236L150.668 68.248L150.528 66.26V61.612H152.264V72H150.598ZM163.042 72V70.488L162.944 70.166V67.52C162.944 67.0067 162.79 66.61 162.482 66.33C162.174 66.0407 161.707 65.896 161.082 65.896C160.662 65.896 160.247 65.9613 159.836 66.092C159.435 66.2227 159.094 66.4047 158.814 66.638L158.128 65.364C158.529 65.056 159.005 64.8273 159.556 64.678C160.116 64.5193 160.695 64.44 161.292 64.44C162.375 64.44 163.21 64.7013 163.798 65.224C164.395 65.7373 164.694 66.5353 164.694 67.618V72H163.042ZM160.69 72.098C160.13 72.098 159.64 72.0047 159.22 71.818C158.8 71.622 158.473 71.356 158.24 71.02C158.016 70.6747 157.904 70.2873 157.904 69.858C157.904 69.438 158.002 69.06 158.198 68.724C158.403 68.388 158.735 68.122 159.192 67.926C159.649 67.73 160.256 67.632 161.012 67.632H163.182V68.794H161.138C160.541 68.794 160.139 68.892 159.934 69.088C159.729 69.2747 159.626 69.508 159.626 69.788C159.626 70.1053 159.752 70.3573 160.004 70.544C160.256 70.7307 160.606 70.824 161.054 70.824C161.483 70.824 161.866 70.726 162.202 70.53C162.547 70.334 162.795 70.0447 162.944 69.662L163.238 70.712C163.07 71.1507 162.767 71.4913 162.328 71.734C161.899 71.9767 161.353 72.098 160.69 72.098ZM171.182 64.44C171.779 64.44 172.311 64.5567 172.778 64.79C173.254 65.0233 173.627 65.3827 173.898 65.868C174.169 66.344 174.304 66.96 174.304 67.716V72H172.554V67.94C172.554 67.2773 172.395 66.7827 172.078 66.456C171.77 66.1293 171.336 65.966 170.776 65.966C170.365 65.966 170.001 66.05 169.684 66.218C169.367 66.386 169.119 66.638 168.942 66.974C168.774 67.3007 168.69 67.716 168.69 68.22V72H166.94V64.524H168.606V66.54L168.312 65.924C168.573 65.448 168.951 65.084 169.446 64.832C169.95 64.5707 170.529 64.44 171.182 64.44ZM177.003 74.814C176.639 74.814 176.275 74.7533 175.911 74.632C175.547 74.5107 175.244 74.3427 175.001 74.128L175.701 72.84C175.879 72.9987 176.079 73.1247 176.303 73.218C176.527 73.3113 176.756 73.358 176.989 73.358C177.307 73.358 177.563 73.2787 177.759 73.12C177.955 72.9613 178.137 72.6953 178.305 72.322L178.739 71.342L178.879 71.132L181.707 64.524H183.387L179.887 72.602C179.654 73.162 179.393 73.6053 179.103 73.932C178.823 74.2587 178.506 74.4873 178.151 74.618C177.806 74.7487 177.423 74.814 177.003 74.814ZM178.543 72.266L175.169 64.524H176.989L179.733 70.978L178.543 72.266ZM193.917 64.44C194.514 64.44 195.042 64.5567 195.499 64.79C195.966 65.0233 196.33 65.3827 196.591 65.868C196.852 66.344 196.983 66.96 196.983 67.716V72H195.233V67.94C195.233 67.2773 195.088 66.7827 194.799 66.456C194.51 66.1293 194.094 65.966 193.553 65.966C193.17 65.966 192.83 66.05 192.531 66.218C192.242 66.386 192.013 66.6333 191.845 66.96C191.686 67.2867 191.607 67.702 191.607 68.206V72H189.857V67.94C189.857 67.2773 189.712 66.7827 189.423 66.456C189.134 66.1293 188.718 65.966 188.177 65.966C187.794 65.966 187.454 66.05 187.155 66.218C186.866 66.386 186.637 66.6333 186.469 66.96C186.31 67.2867 186.231 67.702 186.231 68.206V72H184.481V64.524H186.147V66.512L185.853 65.924C186.105 65.4387 186.469 65.07 186.945 64.818C187.43 64.566 187.981 64.44 188.597 64.44C189.297 64.44 189.904 64.6127 190.417 64.958C190.94 65.3033 191.285 65.826 191.453 66.526L190.767 66.288C191.01 65.728 191.411 65.28 191.971 64.944C192.531 64.608 193.18 64.44 193.917 64.44ZM202.593 72.098C201.828 72.098 201.146 71.9347 200.549 71.608C199.952 71.272 199.48 70.8147 199.135 70.236C198.79 69.6573 198.617 68.9993 198.617 68.262C198.617 67.5153 198.79 66.8573 199.135 66.288C199.48 65.7093 199.952 65.2567 200.549 64.93C201.146 64.6033 201.828 64.44 202.593 64.44C203.368 64.44 204.054 64.6033 204.651 64.93C205.258 65.2567 205.729 65.7047 206.065 66.274C206.41 66.8433 206.583 67.506 206.583 68.262C206.583 68.9993 206.41 69.6573 206.065 70.236C205.729 70.8147 205.258 71.272 204.651 71.608C204.054 71.9347 203.368 72.098 202.593 72.098ZM202.593 70.6C203.022 70.6 203.405 70.5067 203.741 70.32C204.077 70.1333 204.338 69.8627 204.525 69.508C204.721 69.1533 204.819 68.738 204.819 68.262C204.819 67.7767 204.721 67.3613 204.525 67.016C204.338 66.6613 204.077 66.3907 203.741 66.204C203.405 66.0173 203.027 65.924 202.607 65.924C202.178 65.924 201.795 66.0173 201.459 66.204C201.132 66.3907 200.871 66.6613 200.675 67.016C200.479 67.3613 200.381 67.7767 200.381 68.262C200.381 68.738 200.479 69.1533 200.675 69.508C200.871 69.8627 201.132 70.1333 201.459 70.32C201.795 70.5067 202.173 70.6 202.593 70.6ZM208.256 72V64.524H209.922V66.582L209.726 65.98C209.95 65.476 210.3 65.0933 210.776 64.832C211.262 64.5707 211.864 64.44 212.582 64.44V66.106C212.508 66.0873 212.438 66.078 212.372 66.078C212.307 66.0687 212.242 66.064 212.176 66.064C211.514 66.064 210.986 66.26 210.594 66.652C210.202 67.0347 210.006 67.6087 210.006 68.374V72H208.256ZM217.513 72.098C216.682 72.098 215.954 71.9347 215.329 71.608C214.713 71.272 214.232 70.8147 213.887 70.236C213.551 69.6573 213.383 68.9993 213.383 68.262C213.383 67.5153 213.546 66.8573 213.873 66.288C214.209 65.7093 214.666 65.2567 215.245 64.93C215.833 64.6033 216.5 64.44 217.247 64.44C217.975 64.44 218.623 64.5987 219.193 64.916C219.762 65.2333 220.21 65.6813 220.537 66.26C220.863 66.8387 221.027 67.52 221.027 68.304C221.027 68.3787 221.022 68.4627 221.013 68.556C221.013 68.6493 221.008 68.738 220.999 68.822H214.769V67.66H220.075L219.389 68.024C219.398 67.5947 219.309 67.2167 219.123 66.89C218.936 66.5633 218.679 66.3067 218.353 66.12C218.035 65.9333 217.667 65.84 217.247 65.84C216.817 65.84 216.439 65.9333 216.113 66.12C215.795 66.3067 215.543 66.568 215.357 66.904C215.179 67.2307 215.091 67.618 215.091 68.066V68.346C215.091 68.794 215.193 69.1907 215.399 69.536C215.604 69.8813 215.893 70.1473 216.267 70.334C216.64 70.5207 217.069 70.614 217.555 70.614C217.975 70.614 218.353 70.5487 218.689 70.418C219.025 70.2873 219.323 70.082 219.585 69.802L220.523 70.88C220.187 71.272 219.762 71.5753 219.249 71.79C218.745 71.9953 218.166 72.098 217.513 72.098ZM223.268 72.098C222.95 72.098 222.68 71.9907 222.456 71.776C222.232 71.552 222.12 71.272 222.12 70.936C222.12 70.5813 222.232 70.3013 222.456 70.096C222.68 69.8813 222.95 69.774 223.268 69.774C223.585 69.774 223.856 69.8813 224.08 70.096C224.304 70.3013 224.416 70.5813 224.416 70.936C224.416 71.272 224.304 71.552 224.08 71.776C223.856 71.9907 223.585 72.098 223.268 72.098Z" fill="white"/>
<ellipse opacity="0.14" cx="136" cy="127" rx="77" ry="21" fill="#6979F8"/>
<ellipse opacity="0.3" cx="136" cy="127" rx="40" ry="9" fill="#6979F8"/>
</svg>
